<?xml version="1.0" encoding="UTF-8"?>
<svg id="Tactylophone" xmlns="http://www.w3.org/2000/svg" viewBox="0 0 3499.21 550.49">
  <defs>
    <style>
      .cls-1 {
        fill: #fff;
        stroke: #fff;
      }
    </style>
  </defs>
  <path id="logo" class="cls-1" d="M1747.04,547.25c-6.58-3.54-10.81-10.07-10.81-16.69s3.08-14.29,12.08-30.4c14.33-25.63,46.31-90.91,77.75-158.67l7.42-16-19.63-.41c-11.75-.24-21.67,.19-24.71,1.08-8.04,2.35-14.54,9.43-27.62,30.05-14.3,22.55-23.04,31.5-33.86,34.64-6.07,1.77-19.33,1.99-96.9,1.68l-89.87-.37-6.66-3.33c-7.14-3.57-11.88-9.41-13.97-17.21-.71-2.63-2.2-8.17-3.31-12.3-1.12-4.13-3.18-8.93-4.59-10.67-2.33-2.87-3.58-3.16-13.82-3.16h-11.26l-12.06,11.48c-28.34,26.97-48.11,35-86.32,35.04-26.78,.03-33.71-1.49-41.25-9.04-6.78-6.79-8.94-13.61-8.89-28.08,.04-9.74,.69-14.75,3.55-27.27,.72-3.16,.64-3.19-7.01-2.37-26,2.77-54.86,16.41-67.54,31.91-2.54,3.11-10.44,15.86-17.54,28.32-42.55,74.68-70,105.69-108.07,122.1l-10.59,4.57-539.33,.36c-364.27,.24-542.24-.08-548.3-1.01-12.74-1.95-22.48-5.95-29.48-12.11-11.62-10.23-16.74-27.85-12.42-42.73,1.85-6.37,26.64-54.67,62.87-122.51,6.07-11.37,28.56-57.87,49.98-103.33,44.22-93.86,56.01-118.38,57.39-119.33,.53-.37,5.51-9.74,11.06-20.84l10.09-20.17-2.94-2.76c-1.62-1.52-5.94-4.14-9.59-5.83-6.63-3.06-6.86-3.07-76.32-3.46-38.32-.22-69.67-.66-69.67-.99s8.04-12.95,17.86-28.05L70.62,1.92l414.18-.71,414.18-.71-2.7,7.16c-1.48,3.94-6.48,16.76-11.09,28.49l-8.39,21.33-293.95,.67-293.95,.67-6.67,3.07c-8.85,4.08-13.42,8.63-18.27,18.18-2.21,4.36-5.13,9.46-6.48,11.33-2.36,3.28-76.72,163.42-93.88,202.18-4.57,10.32-16.74,34.92-27.04,54.67-31.53,60.43-40.33,78.89-40.33,84.66,0,6.7,5.79,13.46,14.37,16.8,5.99,2.33,16.47,2.47,218.96,2.87,116.97,.24,346.77,.03,510.67-.46l298-.88,7.57-7.99c9.65-10.18,19.99-25.93,25.78-39.24,2.49-5.73,4.36-10.57,4.17-10.77-.2-.2-31.18,.2-68.84,.88-46.96,.85-70.52,.81-74.95-.14-8.68-1.86-14.07-6.73-18.65-16.83-4.44-9.8-7.58-11.62-17.81-10.36-8.48,1.05-12.44,3.66-20.32,13.39-10.8,13.34-3.69,12.42-98.95,12.76-81.87,.3-83.47,.25-91.05-2.52-4.25-1.55-9.44-4.05-11.55-5.55-4.24-3.02-9.4-12.51-9.4-17.3,0-2.95-.31-3.04-7-2.16-8.93,1.18-12.83,3.71-20.67,13.36-11.02,13.59-6.2,12.84-79,12.27-63.95-.5-103.28-2.14-115.12-4.82-10.68-2.42-15.37-4.96-28.34-15.39-15.06-12.12-24.16-18-27.8-18-1.99,0-4.67,3.09-9.79,11.25-8.91,14.21-19.37,23.98-28.6,26.72-10.13,3.01-178.47,3.04-188.59,.03-13.23-3.93-17.78-10.49-21.86-31.53-2.89-14.89-3.3-30.23-1.07-39.55,3.15-13.13,50.06-113.87,59.49-127.76,11.2-16.49,27.7-28.31,46.34-33.21,12.22-3.21,57.73-4.89,115.33-4.27,53.69,.58,56.12,.83,68.02,6.98,7.78,4.02,15.49,12.37,19.39,21,3.18,7.03,3.77,10.09,3.77,19.66,0,6.63-.86,14.1-2.09,18-2.57,8.15-12,29.22-21.99,49.14-4.1,8.17-9.41,19.14-11.79,24.37l-4.34,9.51,8.15,5.75c4.48,3.16,13.15,10.55,19.26,16.41,10.54,10.12,11.42,10.67,17.27,10.74l6.16,.08,10.23-25.43c12.78-31.79,47.93-106.1,56.08-118.56,11.49-17.58,27.91-29.64,47.23-34.71,10.63-2.79,46.87-4.52,95.71-4.58,44.46-.05,44.16-.11,49.03,9.44,7.14,13.99-2,33.96-19.68,43-3.65,1.87-9.71,2.19-42,2.21-56.52,.04-65.86,1.6-75.56,12.65-8.26,9.41-43.98,85.23-45.14,95.81-.76,6.95,3.31,13.4,10.97,17.4,5.15,2.68,7.44,2.79,65.33,3.12l60,.34,38.78-79.01c21.33-43.45,38.27-79.35,37.64-79.77-1.09-.73,70.68-170.58,73.99-175.1,1.43-1.95,5.75-2.14,40.38-1.83l38.79,.36-15.19,34c-8.36,18.7-20.03,44.8-25.94,58-5.91,13.2-11.04,24.75-11.4,25.67-.52,1.32,10.59,1.67,52.87,1.67,51.02,0,53.78,.13,58.79,2.68,18.51,9.45,11.64,38.8-12.04,51.44-4.15,2.21-9.26,2.59-46,3.38-22.73,.49-50.06,.95-60.73,1.03l-19.4,.14-13.15,28.33c-7.23,15.58-19.15,40.89-26.48,56.24-14.29,29.91-15.77,35.52-11.22,42.47,1.29,1.98,4.89,4.95,8,6.61,5.62,3,5.95,3.02,72.98,3.41l67.33,.39,11.89-27.06c15.53-35.35,40.4-87.89,47.68-100.76,7.33-12.95,19.82-25.88,29.25-30.27,13.77-6.41,28.29-3.4,34.91,7.25,2.28,3.66,2.91,6.66,2.84,13.38-.08,8.21-.9,10.38-15.55,41.33-20.54,43.39-39.69,86.55-39.69,89.45,0,5.1,7.45,5.88,56,5.88s54.52-.61,65.61-6.18c7.26-3.65,10.4-8.32,25.88-38.49,49.82-97.14,48.08-94.03,58.61-104.28,13.04-12.67,30.44-17.6,42.15-11.93,7.42,3.59,10.42,8.65,10.42,17.55,0,8.01-5.8,22.68-25.44,64.29-6.67,14.13-12.4,26.6-12.74,27.7-.54,1.75,3.4,1.95,31.12,1.6l31.74-.4,4.4-4.26c5.22-5.05,15.35-24.68,37.98-73.61,25.58-55.3,45.94-98.49,61.33-130.1,11.59-23.82,15.3-30.17,21.54-36.91,8.83-9.54,15.92-14.01,27.21-17.14,11.13-3.09,20.44-1.16,27,5.61,4.28,4.42,4.54,5.22,4.46,13.62-.09,8.68-.5,9.73-15.42,38.92-38.01,74.39-93.51,199.59-105.68,238.37-4.87,15.52-5.68,21.38-3.09,22.38,2.86,1.1,6.11-.87,21.04-12.77,7.86-6.26,15.55-11.21,19.45-12.5,8.68-2.88,23.75-4.72,39.11-4.78l12.67-.05,21.33-44.99c11.73-24.75,24.08-49.19,27.44-54.33,11.49-17.57,27.91-29.64,47.23-34.71,12.22-3.21,57.73-4.89,115.33-4.27,53.69,.58,56.12,.83,68.02,6.98,7.78,4.02,15.49,12.37,19.39,21,3.18,7.03,3.77,10.09,3.77,19.66,.01,13.56-1.37,18.26-13.03,44.46-4.85,10.88-8.81,20.03-8.81,20.33s12.23,.54,27.17,.54h27.17l1.71-4.33c.94-2.38,9.97-21.29,20.07-42.02,16.79-34.47,19.07-38.43,26.72-46.39,11.2-11.66,23.3-17.73,38.7-19.43,6.12-.67,48.32-1.06,93.79-.86l82.67,.36,6.67,3.27c9.34,4.58,22.59,18.14,27,27.64,2.82,6.07,3.61,9.79,3.63,17.09,.03,9-.41,10.28-12.3,35.8-6.78,14.56-12.33,26.71-12.33,27s8.57,.53,19.04,.53h19.04l40.06-80.33c77.3-155.01,78.64-157.58,85.15-164.09,17.6-17.6,47.2-18.17,57.17-1.1,4.93,8.45,3.72,13.02-11.53,43.54-11.68,23.39-36.26,76.99-40.94,89.29l-1.29,3.4,65.64-.36c60.53-.33,66.18-.17,72.58,2.06,7.86,2.74,14.31,9.14,15.73,15.6,2.09,9.49-.48,15.72-34.01,82.64-18.19,36.3-33.45,67.27-33.9,68.82-2,6.86,6.68,7.42,20.07,1.29,10.45-4.78,17.1-10.46,25.37-21.64,9.02-12.2,16.36-16.82,27.86-17.56l8.18-.52,13.12-27.52q41.53-87.14,57.16-94.88c15.25-7.51,21.72-8.05,106.92-8.89,82.15-.82,89.55-.44,101.66,5.26,7.9,3.71,14.86,10.73,18.88,19.05,2.58,5.33,3.21,8.81,3.28,17.94l.08,11.33-13.56,28-13.56,28,22.23,.39c31.39,.55,45.15-2.36,51.94-11,1.45-1.84,12.76-20.51,25.13-41.48,24.18-41,30.55-49.22,42.4-54.74l6.75-3.14h85.85c61.96-.02,87.3,.41,91.08,1.54,6.92,2.07,15.02,10.36,17.64,18.05,2.44,7.15,2.74,20.06,.65,27.59-.8,2.86-13.99,32.51-29.33,65.88-15.33,33.37-27.88,61.18-27.88,61.79s13.72,1.12,30.5,1.12h30.5l6.08-13.67c8.21-18.46,11.6-27.28,11.6-30.23,0-3.31-3.51-4.07-19.1-4.09-12.69-.02-13.22-.14-17-3.92-6.26-6.26-4.93-16.61,3.4-26.49,6.78-8.04,12.59-9.98,32.7-10.93,19.2-.9,26.52-2.99,29.91-8.54,.94-1.54,7.33-13.6,14.19-26.8,17.64-33.93,26.84-42.49,51.93-48.34,9.12-2.13,21.01-2.32,139.3-2.32,139.19,0,134.81-.21,144.33,6.9,14.99,11.19,8.51,32.37-12.93,42.29-6,2.77-7.52,2.82-129.4,3.47-117.34,.63-123.56,.79-127.92,3.17-2.52,1.37-5.67,3.77-7,5.33-3.17,3.73-9.88,15.38-11.01,19.13l-.89,2.97,121.08,.37c116.03,.35,121.29,.47,126.2,2.91,7.03,3.49,9.87,9.55,7.77,16.55-2.48,8.29-11.06,16.85-22.58,22.54l-10.17,5.03-120.2,.67c-101.97,.57-120.55,.96-122.51,2.59-5.45,4.53-14.57,27.57-13.85,35.02l.42,4.39,27.33,1.21c36.59,1.62,142.47-.93,159.33-3.84,6.6-1.14,22.63-4.21,35.63-6.84,19.94-4.02,24.34-4.53,28.17-3.27,17.42,5.75,13.17,32.27-8.78,54.82-12.29,12.63-21.62,17.42-38.46,19.74-6.32,.87-81.22,1.46-207.46,1.62-193.29,.25-197.66,.2-202-2.33-6.49-3.78-10.88-12.53-10.88-21.69,0-8.24,1.41-11.61,35.13-84.09,22.36-48.07,24.79-56.33,17.91-60.84-3.07-2.01-7.04-2.14-40.32-1.28-42.29,1.09-43.92,1.46-54.62,12.49-6.87,7.07-12.88,17.32-51.42,87.53-28.41,51.76-33.59,58.91-47.86,66.04l-8.12,4.06h-27.2c-31.44,0-37.2-1.02-44.39-7.86-12.76-12.15-8.2-32.47,9.43-42.06,6.56-3.56,8.72-3.99,23.74-4.67l16.53-.74,4.06-7.19,4.06-7.19-25.24,.71c-13.88,.39-28.02,1.43-31.41,2.31-9.57,2.49-14.86,7.93-26.16,26.96-12.38,20.85-17.74,27.24-27.16,32.36-14.27,7.77-14.43,7.78-105.47,8.36-73.06,.47-84.66,.27-91.85-1.58-14.84-3.8-25.4-14.62-30.02-30.74-2.21-7.72-2.85-8.66-5.85-8.66-7.06,0-15.08,6.03-26.67,20.06-17.09,20.69-14.79,19.94-61.21,19.91-34.1-.03-38.69-.29-43.51-2.48-15.67-7.12-18.46-24.56-7.35-45.88,3.14-6.02,17.1-32.16,31.03-58.08,15.7-29.22,25.59-49.09,26.01-52.27,.59-4.42,.12-5.7-3.38-9.2l-4.06-4.06h-39.1s-39.1,.02-39.1,.02l-11.86,22.32c-32.63,61.39-65.22,119.52-73.79,131.61-8.23,11.61-22.67,18.07-40.25,18.02-11.82-.03-19.04-2.75-24.48-9.22-6.63-7.88-5.52-11.88,11.18-40.17,12.9-21.85,13.06-19.92-1.65-19.91-6.86,0-14.76,.64-17.56,1.42-7.11,1.97-13.87,9.27-26.83,28.97-14.17,21.53-20.29,26.24-44.75,34.43l-11.33,3.8-62.44,.43c-73.62,.51-70.97,.9-84.75-12.55-4.76-4.64-8.78-8.3-8.93-8.14-.15,.17-7.77,16.8-16.92,36.97-22.08,48.66-39.6,85.53-48.79,102.67-13.36,24.91-29.22,36.88-50.65,38.26-8.92,.57-10.92,.26-16.05-2.5h0ZM419.82,336.15c10.08-2.99,16.32-10.61,27.11-33.15,17.46-36.45,30.63-70.74,30.63-79.75,0-4.32-.88-6.24-4.53-9.89l-4.53-4.53-40.47,.02c-59.47,.03-68.5,1.49-78.3,12.65-7.87,8.96-43.69,84.51-45.12,95.15-1.16,8.61,4.54,16.19,14.95,19.88,2.5,.89,20.81,1.46,48.76,1.52,36.15,.09,46.05-.28,51.5-1.9h0Zm1280,0c10.08-2.99,16.32-10.61,27.11-33.15,17.46-36.45,30.63-70.74,30.63-79.75,0-4.32-.88-6.24-4.53-9.89l-4.53-4.53-40.47,.02c-59.47,.03-68.5,1.49-78.3,12.65-7.87,8.96-43.69,84.51-45.12,95.15-1.16,8.61,4.54,16.19,14.95,19.88,2.5,.89,20.81,1.46,48.76,1.52,36.15,.09,46.05-.28,51.5-1.9h0Zm331.37-2.36c8.31-4.89,12.88-11.84,25.14-38.27,25.06-54.06,30.76-73.71,23.71-81.86-4.83-5.59-15.18-6.52-61.14-5.49-49.29,1.1-53.67,1.94-62.5,12-6.83,7.78-41.63,79.62-45.46,93.85-2.36,8.77,2.33,16.82,12.63,21.65,4.95,2.32,8.75,2.48,53.33,2.16l48-.34,6.29-3.7Zm607.83,2.88c11.71-2.51,16.31-8.45,33.16-42.86,7.99-16.31,17.06-35.66,20.16-42.99,9.19-21.74,7.7-33.99-4.86-39.95-4.33-2.05-9.44-2.23-51.03-1.72-39.08,.47-47.31,.91-53.29,2.86-10.56,3.43-15.95,9.72-26.04,30.36-11.17,22.85-29.77,65.16-31.55,71.76-2.34,8.68,2.44,16.8,12.66,21.51,4.84,2.23,9.42,2.46,49.6,2.49,27.58,.02,46.88-.53,51.19-1.45h0Z"/>
</svg>