<?xml version="1.0" encoding="UTF-8"?>
<svg id="grid" xmlns="http://www.w3.org/2000/svg" viewBox="0 0 610 190.66">
  <defs>
    <style>
      .h {
        stroke-width: 2.5px;
      }

      .h,
      .v {
        fill: none;
        stroke: #e6e6e6;
      }

      .v {
        stroke-width: 1.5px;
      }
    </style>
  </defs>
  <g id="mesh">
    <path id="h1" class="h" d="M0,185.66H610" />
    <path id="h2" class="h" d="M0,175.66H610" />
    <path id="h3" class="h" d="M0,165.66H610" />
    <path id="h4" class="h" d="M0,155.66H610" />
    <path id="h5" class="h" d="M0,145.66H610" />
    <path id="h6" class="h" d="M0,135.66H610" />
    <path id="h7" class="h" d="M0,125.66H610" />
    <path id="h8" class="h" d="M0,115.66H610" />
    <path id="h9" class="h" d="M0,105.66H610" />
    <path id="h10" class="h" d="M0,95.66H610" />
    <path id="h11" class="h" d="M0,85.66H610" />
    <path id="h12" class="h" d="M0,75.66H610" />
    <path id="h13" class="h" d="M0,65.66H610" />
    <path id="h14" class="h" d="M0,55.66H610" />
    <path id="h15" class="h" d="M0,45.66H610" />
    <path id="h16" class="h" d="M0,35.66H610" />
    <path id="h17" class="h" d="M0,25.66H610" />
    <path id="h18" class="h" d="M0,15.66H610" />
    <path id="h19" class="h" d="M0,5.66H610" />
    <path id="v1" class="v" d="M5,.66V190.66h0" />
    <path id="v2" class="v" d="M25,.66V190.66h0" />
    <path id="v3" class="v" d="M45,.66V190.66h0" />
    <path id="v4" class="v" d="M65,.66V190.66h0" />
    <path id="v5" class="v" d="M85,.66V190.66h0" />
    <path id="v6" class="v" d="M105,.66V190.66h0" />
    <path id="v7" class="v" d="M125,.66V190.66h0" />
    <path id="v8" class="v" d="M145,.66V190.66h0" />
    <path id="v9" class="v" d="M165,.66V190.66h0" />
    <path id="v10" class="v" d="M185,.66V190.66h0" />
    <path id="v11" class="v" d="M205,.66V190.66h0" />
    <path id="v12" class="v" d="M225,.66V190.66h0" />
    <path id="v13" class="v" d="M245,.66V190.66h0" />
    <path id="v14" class="v" d="M265,.66V190.66h0" />
    <path id="v15" class="v" d="M285,.66V190.66h0" />
    <path id="v16" class="v" d="M305,.66V190.66h0" />
    <path id="v17" class="v" d="M325,.66V190.66h0" />
    <path id="v18" class="v" d="M345,.66V190.66h0" />
    <path id="v19" class="v" d="M365,.66V190.66h0" />
    <path id="v20" class="v" d="M385,.66V190.66h0" />
    <path id="v21" class="v" d="M405,.66V190.66h0" />
    <path id="v22" class="v" d="M425,.66V190.66h0" />
    <path id="v23" class="v" d="M445,.66V190.66h0" />
    <path id="v24" class="v" d="M465,.66V190.66h0" />
    <path id="v25" class="v" d="M485,.66V190.66h0" />
    <path id="v26" class="v" d="M505,.66V190.66h0" />
    <path id="v27" class="v" d="M525,.66V190.66h0" />
    <path id="v28" class="v" d="M545,.66V190.66h0" />
    <path id="v29" class="v" d="M565,.66V190.66h0" />
    <path id="v30" class="v" d="M585,.66V190.66h0" />
    <path id="v31" class="v" d="M604.8,0V190h0" />
  </g>
</svg>