<?xml version="1.0" encoding="UTF-8"?>
<svg id="Capa_1" data-name="Capa 1" xmlns="http://www.w3.org/2000/svg" xmlns:xlink="http://www.w3.org/1999/xlink" viewBox="0 0 618 121.5">
  <defs>
    <style>
      .cls-1, .cls-2 {
        fill: #fff;
      }

      .cls-3 {
        fill: #e6e6e6;
      }

      .cls-3, .cls-4, .cls-2, .cls-5 {
        stroke: #000;
      }

      .cls-6 {
        stroke: url(#Degradado_sin_nombre_2);
      }

      .cls-5 {
        fill: #1a1a1a;
      }
    </style>
    <linearGradient id="Degradado_sin_nombre_2" data-name="Degradado sin nombre 2" x1="581.97" y1="-408.25" x2="561.91" y2="-393.21" gradientTransform="translate(-60.01 -215.99) scale(1 -1)" gradientUnits="userSpaceOnUse">
      <stop offset="0" stop-color="#000"/>
      <stop offset="1" stop-color="#000" stop-opacity="0"/>
    </linearGradient>
  </defs>
  <g id="keyboard">
    <rect id="base" class="cls-1" width="618" height="121.5" rx="5" ry="5"/>
    <path id="frame" class="cls-2" d="M158.29,20l-35.17,26v49h472.25c.04-16.33,.08-32.67,.12-49-11.67-8.67-23.33-17.33-35-26H158.29Z"/>
    <g id="keys">
      <g id="naturals">
        <polygon id="key-12" class="cls-3" points="559.43 20.14 560.36 20.14 595.36 46.04 595.36 94.86 559.43 94.86 559.43 20.14"/>
        <rect id="key-11" class="cls-3" x="519.5" y="20" width="40" height="75"/>
        <rect id="key-10" class="cls-3" x="479.5" y="20" width="40" height="75"/>
        <rect id="key-9" class="cls-3" x="439.5" y="20" width="40" height="75"/>
        <rect id="key-8" class="cls-3" x="399.5" y="20" width="40" height="75"/>
        <rect id="key-7" class="cls-3" x="359.5" y="20" width="40" height="75"/>
        <rect id="key-6" class="cls-3" x="319.5" y="20" width="40" height="75"/>
        <rect id="key-5" class="cls-3" x="279.5" y="20" width="40" height="75"/>
        <rect id="key-4" class="cls-3" x="239.5" y="20" width="40" height="75"/>
        <rect id="key-3" class="cls-3" x="199.5" y="20" width="40" height="75"/>
        <rect id="key-2" class="cls-3" x="159.43" y="20" width="40" height="75"/>
        <polygon id="key-1" class="cls-3" points="159.43 20 158.5 20 123.5 46 123.5 95 159.43 95 159.43 20"/>
      </g>
      <g id="accidentals">
        <polyline id="key-11.5" class="cls-3" points="559.99 20 579.22 34.28 579.22 50 574.22 55 544.22 55 539.22 50 539.22 20 559.99 20 551.49 20"/>
        <polyline id="key-10.5" class="cls-3" points="499.22 20 499.22 50 504.22 55 534.22 55 539.22 50 539.22 20 499.22 20 499.22 20"/>
        <polyline id="key-8.5" class="cls-3" points="419.12 20 419.12 50 424.12 55 454.12 55 459.12 50 459.12 20 419.12 20 419.12 20"/>
        <polyline id="key-7.5" class="cls-3" points="379.12 20 379.12 50 384.12 55 414.12 55 419.12 50 419.12 20 379.12 20 379.12 20"/>
        <polyline id="key-6.5" class="cls-3" points="338.97 20 338.97 50 343.97 55 373.97 55 378.97 50 378.97 20 338.97 20 338.97 20"/>
        <polyline id="key-4.5" class="cls-3" points="258.99 20 258.99 50 263.99 55 293.99 55 298.99 50 298.99 20 258.99 20 258.99 20"/>
        <polyline id="key-3.5" class="cls-3" points="219.02 20 219.02 50 224.02 55 254.02 55 259.02 50 259.02 20 219.02 20 219.02 20"/>
        <polyline id="key-1.5" class="cls-3" points="158.5 20 139.27 34.28 139.27 50 144.27 55 174.27 55 179.27 50 179.27 20 158.5 20 167 20"/>
      </g>
    </g>
    <path id="shadow" class="cls-6" d="M123.5,89.94l467,1.06V42l4.5,3.56v49.32H123.5v-4.93Z"/>
    <g id="controls">
      <g id="label">
        <rect class="cls-4" x="28.5" y="11" width="55" height="100"/>
        <rect class="cls-1" x="33.5" y="26" width="45" height="70"/>
      </g>
      <g id="text">
        <g id="off">
          <path id="f" class="cls-1" d="M60.16,21.35v-5.73h3.86v.68h-3.11v1.77h2.69v.68h-2.69v2.6h-.76Z"/>
          <path id="f-2" data-name="f" class="cls-1" d="M55.27,21.35v-5.73h3.86v.68h-3.11v1.77h2.69v.68h-2.69v2.6h-.76Z"/>
          <path id="o" class="cls-1" d="M48.78,18.56c0-.95,.26-1.69,.77-2.23,.51-.54,1.17-.81,1.98-.81,.53,0,1.01,.13,1.43,.38,.42,.25,.75,.61,.97,1.06,.22,.45,.34,.96,.34,1.54s-.12,1.1-.35,1.56c-.23,.46-.57,.81-1,1.04-.43,.23-.89,.35-1.39,.35-.54,0-1.02-.13-1.45-.39-.42-.26-.75-.62-.96-1.07-.22-.45-.33-.93-.33-1.43Zm.78,.01c0,.69,.18,1.23,.55,1.63,.37,.4,.84,.59,1.4,.59s1.04-.2,1.41-.6c.37-.4,.55-.97,.55-1.71,0-.47-.08-.87-.24-1.22-.16-.35-.39-.62-.69-.81-.3-.19-.64-.29-1.02-.29-.54,0-1,.18-1.39,.55-.39,.37-.58,.98-.58,1.84Z"/>
        </g>
        <g id="on">
          <path id="n" class="cls-1" d="M57.26,106.66v-5.73h.78l3.01,4.5v-4.5h.73v5.73h-.78l-3.01-4.5v4.5h-.73Z"/>
          <path id="o-2" data-name="o" class="cls-1" d="M50.81,103.87c0-.95,.26-1.69,.77-2.23,.51-.54,1.17-.81,1.98-.81,.53,0,1.01,.13,1.43,.38,.42,.25,.75,.61,.97,1.06,.22,.45,.34,.96,.34,1.54s-.12,1.1-.35,1.56c-.23,.46-.57,.81-1,1.04-.43,.23-.89,.35-1.39,.35-.54,0-1.02-.13-1.45-.39-.42-.26-.75-.62-.96-1.07-.22-.45-.33-.93-.33-1.43Zm.78,.01c0,.69,.18,1.23,.55,1.63,.37,.4,.84,.59,1.4,.59s1.04-.2,1.41-.6c.37-.4,.55-.97,.55-1.71,0-.47-.08-.87-.24-1.22-.16-.35-.39-.62-.69-.81-.3-.19-.64-.29-1.02-.29-.54,0-1,.18-1.39,.55-.39,.37-.58,.98-.58,1.84Z"/>
        </g>
        <g id="power">
          <path id="r" d="M57.07,76.92h-.67l-1.3-1.54h-.73v1.54h-.52v-3.88h1.09c.23,0,.43,.02,.59,.05,.16,.03,.3,.08,.42,.16,.14,.09,.25,.2,.33,.34,.08,.13,.12,.3,.12,.51,0,.28-.07,.51-.21,.7-.14,.19-.33,.33-.58,.42l1.46,1.7Zm-1.21-2.79c0-.11-.02-.21-.06-.29-.04-.09-.1-.16-.19-.22-.07-.05-.16-.09-.27-.1-.1-.02-.22-.03-.36-.03h-.61v1.46h.52c.16,0,.31-.01,.43-.04,.12-.03,.22-.08,.31-.16,.08-.07,.14-.16,.17-.25,.04-.1,.06-.22,.06-.36h0Z"/>
          <path id="e" d="M56.42,70.25h-2.55v-3.88h2.55v.46h-2.04v1.06h2.04v.46h-2.04v1.44h2.04v.46Z"/>
          <path id="w" d="M58.38,59.71l-1.01,3.88h-.58l-.82-3.22-.8,3.22h-.57l-1.03-3.88h.53l.82,3.22,.8-3.22h.52l.81,3.26,.81-3.26h.51Z"/>
          <path id="o-3" data-name="o" d="M56.76,53.49c.16,.17,.28,.39,.36,.64,.09,.25,.13,.54,.13,.86s-.04,.61-.13,.86c-.09,.25-.2,.46-.36,.63-.16,.18-.35,.31-.57,.4-.22,.09-.47,.13-.74,.13s-.52-.05-.74-.14c-.22-.09-.41-.22-.57-.39s-.28-.38-.36-.63c-.08-.25-.13-.54-.12-.86,0-.32,.04-.6,.12-.85,.08-.25,.2-.47,.36-.65,.15-.17,.34-.3,.57-.39,.23-.09,.47-.14,.74-.14s.53,.05,.75,.14c.22,.09,.41,.22,.57,.39h0Zm-.05,1.49c0-.5-.11-.89-.34-1.16-.23-.27-.53-.41-.92-.41s-.7,.14-.93,.41c-.22,.27-.34,.66-.34,1.16s.11,.9,.34,1.17c.23,.27,.54,.4,.92,.4s.69-.13,.92-.4c.23-.27,.34-.66,.34-1.17Z"/>
          <path id="p" d="M56.4,47.55c0,.17-.03,.33-.09,.48-.06,.15-.14,.27-.25,.38-.13,.13-.29,.23-.47,.3-.18,.07-.41,.1-.69,.1h-.52v1.45h-.52v-3.88h1.05c.23,0,.43,.02,.59,.06,.16,.04,.3,.1,.43,.18,.15,.1,.26,.22,.34,.37,.08,.15,.12,.33,.12,.56h0Zm-.54,.01c0-.13-.02-.25-.07-.35-.05-.1-.12-.18-.21-.24-.08-.05-.18-.09-.29-.11-.11-.02-.24-.04-.4-.04h-.51v1.55h.43c.21,0,.38-.02,.51-.05,.13-.04,.24-.1,.32-.18,.08-.08,.14-.17,.17-.26,.03-.09,.05-.2,.05-.31h0Z"/>
        </g>
        <g id="vibrato">
          <path id="o-4" data-name="o" d="M102.93,80.02c.16,.17,.28,.39,.36,.64,.09,.25,.13,.54,.13,.86s-.04,.61-.13,.86c-.09,.25-.2,.46-.36,.63-.16,.18-.35,.31-.57,.4-.22,.09-.47,.13-.74,.13s-.52-.05-.74-.14c-.22-.09-.41-.22-.57-.39s-.28-.38-.36-.63c-.08-.25-.12-.54-.12-.86s.04-.6,.12-.85c.08-.25,.2-.47,.36-.65,.15-.17,.34-.3,.57-.39,.23-.09,.47-.14,.74-.14s.53,.05,.75,.14c.22,.09,.41,.22,.57,.39h0Zm-.05,1.49c0-.5-.11-.89-.34-1.16-.23-.27-.53-.41-.92-.41s-.7,.14-.93,.41c-.22,.27-.34,.66-.34,1.16s.11,.9,.34,1.17c.23,.27,.54,.4,.92,.4s.69-.13,.92-.4c.23-.27,.34-.66,.34-1.17Z"/>
          <path id="t" d="M102.8,73.37h-1.39v3.42h-.52v-3.42h-1.39v-.46h3.29v.46Z"/>
          <path id="a" d="M103.09,70.12h-.55l-.38-1.08h-1.68l-.38,1.08h-.52l1.41-3.88h.69l1.41,3.88Zm-1.09-1.52l-.68-1.9-.68,1.9h1.36Z"/>
          <path id="r-2" data-name="r" d="M103.25,63.46h-.67l-1.3-1.54h-.73v1.54h-.52v-3.88h1.09c.23,0,.43,.02,.59,.05,.16,.03,.3,.08,.42,.16,.14,.09,.25,.2,.33,.34,.08,.13,.12,.3,.12,.51,0,.28-.07,.51-.21,.7-.14,.19-.33,.33-.58,.42l1.46,1.7Zm-1.21-2.79c0-.11-.02-.21-.06-.29-.04-.09-.1-.16-.19-.22-.07-.05-.16-.09-.27-.1-.1-.02-.22-.03-.36-.03h-.61v1.46h.52c.16,0,.31-.01,.43-.04,.12-.03,.22-.08,.31-.16,.08-.07,.14-.16,.17-.25,.04-.1,.06-.22,.06-.36h0Z"/>
          <path id="b" d="M102.96,55.6c0,.19-.04,.36-.11,.51s-.17,.27-.29,.36c-.15,.11-.31,.2-.48,.24-.17,.05-.39,.07-.66,.07h-1.38v-3.88h1.15c.28,0,.49,.01,.64,.03,.14,.02,.28,.06,.4,.13,.14,.07,.25,.17,.31,.29,.06,.12,.1,.26,.1,.42,0,.18-.05,.34-.14,.47-.09,.13-.22,.23-.38,.31v.02c.26,.05,.47,.17,.62,.35,.15,.18,.23,.4,.23,.67h0Zm-.87-1.75c0-.09-.02-.17-.05-.24s-.08-.12-.15-.16c-.08-.05-.18-.08-.3-.09-.12-.01-.26-.02-.43-.02h-.61v1.12h.67c.16,0,.29,0,.39-.02,.1-.02,.18-.05,.27-.1,.08-.05,.14-.12,.17-.2,.03-.08,.05-.18,.05-.29h0Zm.33,1.77c0-.16-.02-.28-.07-.37-.05-.09-.13-.17-.26-.23-.08-.04-.18-.07-.3-.08-.12-.01-.26-.02-.43-.02h-.81v1.44h.68c.23,0,.41-.01,.55-.03,.14-.02,.26-.07,.35-.13,.1-.07,.17-.14,.21-.23,.05-.09,.07-.2,.07-.34h0Z"/>
          <path id="i" d="M101.4,50.12h-1.53v-.4h.51v-3.09h-.51v-.4h1.53v.4h-.51v3.09h.51v.4Z"/>
          <path id="v" d="M103.09,39.58l-1.41,3.88h-.69l-1.41-3.88h.55l1.22,3.41,1.22-3.41h.53Z"/>
        </g>
      </g>
      <g id="switches">
        <g id="power-2" data-name="power">
          <rect id="socket" class="cls-4" x="19.29" y="40.25" width="25" height="40"/>
          <rect id="switch" class="cls-5" x="19.29" y="65.25" width="25" height="15"/>
        </g>
        <g id="vibrato-2" data-name="vibrato">
          <rect id="socket-2" data-name="socket" class="cls-4" x="69.29" y="40.25" width="25" height="40"/>
          <rect id="switch-2" data-name="switch" class="cls-5" x="69.29" y="65.25" width="25" height="15"/>
        </g>
      </g>
    </g>
    <g id="labels">
      <g id="naturals-2" data-name="naturals">
        <path id="_1" data-name="1" d="M143.54,109.15h-4.72v-.89h1.82v-5.85h-1.82v-.8c.25,0,.51-.02,.79-.06,.28-.04,.49-.1,.64-.18,.18-.1,.32-.22,.42-.37,.11-.15,.17-.36,.18-.61h.91v7.86h1.78v.89Z"/>
        <path id="_2" data-name="2" d="M181.2,109.15h-5.91v-1.22l1.23-1.05c.41-.35,.8-.7,1.15-1.05,.75-.73,1.26-1.3,1.54-1.73,.28-.43,.42-.89,.42-1.39,0-.45-.15-.81-.45-1.06-.3-.26-.71-.39-1.25-.39-.36,0-.74,.06-1.15,.19s-.82,.32-1.21,.57h-.06v-1.23c.28-.14,.65-.26,1.11-.38,.46-.11,.91-.17,1.35-.17,.89,0,1.6,.22,2.1,.65,.51,.43,.76,1.01,.76,1.75,0,.33-.04,.64-.13,.93-.08,.29-.21,.56-.37,.81-.15,.24-.33,.48-.54,.71-.2,.23-.45,.49-.74,.78-.42,.41-.85,.81-1.29,1.2-.45,.38-.86,.74-1.25,1.07h4.69v1Z"/>
        <path id="_3" data-name="3" d="M221.81,104.94c.19,.17,.34,.38,.46,.63s.18,.58,.18,.98-.07,.76-.22,1.1-.35,.62-.61,.87c-.29,.27-.64,.48-1.04,.61-.39,.13-.83,.19-1.3,.19s-.96-.06-1.43-.18c-.47-.11-.85-.24-1.15-.38v-1.22h.09c.33,.22,.72,.4,1.17,.54s.88,.22,1.3,.22c.25,0,.51-.04,.79-.12s.5-.2,.67-.36c.18-.17,.31-.36,.4-.57,.09-.21,.13-.47,.13-.79s-.05-.57-.15-.77c-.1-.21-.23-.37-.41-.49-.18-.12-.39-.2-.64-.25-.25-.05-.52-.07-.81-.07h-.53v-.97h.41c.59,0,1.07-.12,1.42-.37,.36-.25,.53-.61,.53-1.09,0-.21-.04-.39-.13-.55-.09-.16-.21-.29-.38-.39-.17-.1-.35-.17-.54-.21s-.41-.06-.65-.06c-.37,0-.77,.07-1.18,.2s-.81,.32-1.18,.56h-.06v-1.22c.28-.14,.65-.26,1.11-.38,.46-.12,.91-.18,1.35-.18s.8,.04,1.12,.12,.62,.2,.88,.38c.28,.19,.49,.41,.64,.68s.22,.58,.22,.93c0,.48-.17,.91-.52,1.27-.34,.36-.74,.59-1.21,.68v.08c.19,.03,.4,.1,.64,.2,.24,.1,.45,.22,.62,.37h0Z"/>
        <path id="_4" data-name="4" d="M259.94,106.69h-1.29v2.46h-1.12v-2.46h-4.18v-1.35l4.22-4.92h1.08v5.33h1.29v.94Zm-2.42-.94v-3.94l-3.38,3.94h3.38Z"/>
        <path id="_5" data-name="5" d="M301.05,106.37c0,.41-.07,.79-.22,1.17s-.35,.68-.61,.94c-.28,.27-.62,.48-1.01,.63-.39,.14-.84,.22-1.35,.22-.48,0-.94-.05-1.38-.15-.44-.1-.81-.22-1.12-.36v-1.24h.08c.32,.2,.7,.38,1.12,.52,.43,.14,.85,.21,1.27,.21,.28,0,.54-.04,.8-.12,.26-.08,.49-.21,.7-.41,.17-.17,.3-.37,.39-.6,.09-.23,.13-.51,.13-.81s-.05-.55-.16-.76c-.1-.21-.24-.37-.43-.5-.2-.15-.45-.25-.74-.31-.29-.06-.61-.09-.97-.09s-.68,.02-1,.07c-.32,.05-.59,.09-.82,.14v-4.49h5.25v1.03h-4.12v2.32c.17-.02,.34-.03,.52-.04,.18,0,.33-.01,.46-.01,.47,0,.89,.04,1.24,.12,.36,.08,.68,.22,.98,.42,.31,.21,.55,.49,.73,.83s.26,.77,.26,1.28h0Z"/>
        <path id="_6" data-name="6" d="M342.63,106.32c0,.89-.29,1.61-.88,2.17-.58,.56-1.3,.84-2.14,.84-.43,0-.82-.07-1.17-.2s-.66-.33-.93-.59c-.34-.32-.6-.75-.78-1.29-.18-.54-.27-1.18-.27-1.93s.08-1.46,.25-2.06c.17-.6,.43-1.13,.8-1.59,.34-.44,.79-.79,1.33-1.03,.54-.25,1.18-.38,1.9-.38,.23,0,.42,0,.58,.03s.31,.05,.47,.11v1.12h-.06c-.11-.06-.28-.11-.5-.16-.22-.05-.44-.08-.67-.08-.84,0-1.51,.26-2.01,.79-.5,.52-.79,1.23-.87,2.13,.33-.2,.65-.35,.97-.45,.32-.11,.69-.16,1.11-.16,.37,0,.7,.04,.98,.11,.29,.07,.58,.2,.87,.41,.34,.24,.6,.54,.77,.9,.18,.36,.26,.8,.26,1.32h0Zm-1.19,.05c0-.36-.05-.66-.16-.9-.11-.24-.28-.45-.53-.62-.18-.12-.38-.21-.6-.25s-.45-.06-.69-.06c-.33,0-.64,.04-.93,.12s-.58,.2-.88,.36c0,.09-.01,.17-.02,.25,0,.08,0,.18,0,.3,0,.62,.06,1.11,.19,1.46,.13,.36,.3,.64,.53,.84,.18,.17,.37,.3,.58,.38,.21,.08,.44,.12,.69,.12,.57,0,1.01-.17,1.34-.52,.32-.35,.49-.85,.49-1.49h0Z"/>
        <path id="_7" data-name="7" d="M383.9,101.73l-3.95,7.42h-1.25l4.2-7.7h-4.97v-1.03h5.97v1.31Z"/>
        <path id="_8" data-name="8" d="M421.1,106.71c0,.75-.29,1.38-.88,1.88-.59,.5-1.32,.75-2.21,.75-.95,0-1.7-.24-2.26-.73-.56-.49-.84-1.11-.84-1.88,0-.48,.14-.92,.42-1.31,.28-.39,.68-.71,1.19-.94v-.04c-.47-.25-.82-.52-1.04-.82-.22-.3-.33-.67-.33-1.11,0-.66,.27-1.2,.81-1.64s1.22-.66,2.06-.66,1.57,.21,2.09,.63,.78,.95,.78,1.59c0,.39-.12,.78-.37,1.17-.25,.38-.61,.68-1.08,.89v.04c.55,.23,.96,.52,1.25,.87s.43,.78,.43,1.31Zm-1.39-4.26c0-.42-.16-.75-.49-1-.32-.25-.73-.38-1.23-.38s-.9,.12-1.21,.35c-.31,.23-.47,.55-.47,.95,0,.28,.08,.53,.23,.73,.16,.2,.4,.38,.72,.54,.14,.07,.35,.16,.62,.28,.27,.11,.54,.21,.8,.28,.39-.26,.65-.53,.8-.8s.22-.6,.22-.96Zm.18,4.37c0-.36-.08-.65-.24-.86-.16-.22-.46-.44-.93-.66-.18-.09-.38-.17-.6-.24s-.51-.18-.87-.31c-.35,.19-.63,.45-.85,.78-.21,.33-.32,.7-.32,1.11,0,.53,.18,.96,.54,1.31s.82,.52,1.38,.52,1.03-.15,1.37-.44c.34-.29,.52-.7,.52-1.21Z"/>
        <path id="_9" data-name="9" d="M462.4,104.26c0,.76-.09,1.45-.26,2.07-.17,.62-.43,1.15-.79,1.59-.36,.45-.8,.79-1.34,1.03s-1.16,.36-1.89,.36c-.2,0-.39-.01-.57-.04-.18-.02-.34-.05-.48-.1v-1.12h.06c.11,.06,.27,.12,.48,.17,.21,.05,.44,.08,.69,.08,.86,0,1.54-.26,2.03-.77,.49-.52,.78-1.23,.86-2.14-.36,.22-.71,.38-1.03,.47s-.67,.14-1.05,.14c-.36,0-.69-.04-.98-.11-.29-.07-.58-.21-.87-.41-.34-.24-.6-.54-.78-.91-.17-.37-.26-.81-.26-1.32,0-.89,.29-1.62,.88-2.17s1.3-.84,2.14-.84c.42,0,.81,.07,1.17,.2,.36,.13,.67,.32,.94,.59,.33,.32,.59,.74,.77,1.25,.18,.51,.27,1.17,.27,1.97h0Zm-1.18-.25c0-.61-.06-1.09-.19-1.46s-.3-.65-.52-.86c-.18-.18-.38-.3-.59-.38-.21-.08-.44-.12-.69-.12-.56,0-1.01,.18-1.34,.53-.32,.35-.49,.85-.49,1.48,0,.37,.05,.67,.16,.91s.28,.44,.53,.62c.18,.12,.37,.2,.58,.25,.21,.04,.45,.06,.7,.06,.3,0,.61-.04,.93-.12s.61-.2,.88-.36c0-.08,0-.16,.01-.24,0-.08,.01-.19,.01-.31Z"/>
        <g id="_10" data-name="10">
          <path id="_0" data-name="0" d="M507.19,104.78c0,1.57-.25,2.72-.74,3.45-.49,.73-1.25,1.1-2.28,1.1s-1.81-.37-2.3-1.11c-.48-.74-.72-1.88-.72-3.42s.24-2.7,.73-3.43c.49-.74,1.25-1.11,2.29-1.11s1.81,.38,2.29,1.13c.48,.75,.73,1.88,.73,3.4Zm-1.54,2.66c.14-.32,.23-.69,.28-1.11,.05-.43,.08-.95,.08-1.55s-.03-1.11-.08-1.55c-.05-.44-.14-.81-.28-1.11-.14-.3-.32-.53-.56-.68-.23-.15-.54-.23-.91-.23s-.67,.08-.91,.23c-.24,.15-.43,.38-.57,.69-.13,.29-.22,.67-.28,1.13-.05,.46-.07,.97-.07,1.53,0,.61,.02,1.12,.06,1.53,.04,.41,.13,.78,.28,1.1,.13,.3,.31,.54,.54,.7,.24,.16,.55,.24,.94,.24,.37,0,.67-.08,.91-.23s.43-.38,.56-.69h0Z"/>
          <path id="_1-2" data-name="1" d="M499.08,109.15h-4.72v-.89h1.82v-5.85h-1.82v-.8c.25,0,.51-.02,.79-.06,.28-.04,.49-.1,.64-.18,.18-.1,.32-.22,.42-.37,.11-.15,.17-.36,.18-.61h.91v7.86h1.78v.89Z"/>
        </g>
        <g id="_11" data-name="11">
          <path id="_1-3" data-name="1" d="M547.28,109.15h-4.72v-.89h1.82v-5.85h-1.82v-.8c.25,0,.51-.02,.79-.06,.28-.04,.49-.1,.64-.18,.18-.1,.32-.22,.42-.37,.11-.15,.17-.36,.18-.61h.91v7.86h1.78v.89Z"/>
          <path id="_1-4" data-name="1" d="M539.65,109.15h-4.72v-.89h1.82v-5.85h-1.82v-.8c.25,0,.51-.02,.79-.06,.28-.04,.49-.1,.64-.18,.18-.1,.32-.22,.42-.37,.11-.15,.17-.36,.18-.61h.91v7.86h1.78v.89Z"/>
        </g>
        <g id="_12" data-name="12">
          <path id="_2-2" data-name="2" d="M584.13,109.15h-5.91v-1.22l1.23-1.05c.41-.35,.8-.7,1.15-1.05,.75-.73,1.26-1.3,1.54-1.73,.28-.43,.42-.89,.42-1.39,0-.45-.15-.81-.45-1.06-.3-.26-.71-.39-1.25-.39-.36,0-.74,.06-1.15,.19s-.82,.32-1.21,.57h-.06v-1.23c.28-.14,.65-.26,1.11-.38,.46-.11,.91-.17,1.35-.17,.89,0,1.6,.22,2.1,.65,.51,.43,.76,1.01,.76,1.75,0,.33-.04,.64-.13,.93-.08,.29-.21,.56-.37,.81-.15,.24-.33,.48-.54,.71-.2,.23-.45,.49-.74,.78-.42,.41-.85,.81-1.29,1.2-.45,.38-.86,.74-1.25,1.07h4.69v1Z"/>
          <path id="_1-5" data-name="1" d="M576,109.15h-4.72v-.89h1.82v-5.85h-1.82v-.8c.25,0,.51-.02,.79-.06,.28-.04,.49-.1,.64-.18,.18-.1,.32-.22,.42-.37,.11-.15,.17-.36,.18-.61h.91v7.86h1.78v.89Z"/>
        </g>
      </g>
      <g id="accidentals-2" data-name="accidentals">
        <g id="_1.5" data-name="1.5">
          <path id="_5-2" data-name="5" d="M178.31,10.91c0,.41-.07,.79-.22,1.17s-.35,.68-.61,.94c-.28,.27-.62,.48-1.01,.63-.39,.14-.84,.22-1.35,.22-.48,0-.94-.05-1.38-.15-.44-.1-.81-.22-1.12-.36v-1.24h.08c.32,.2,.7,.38,1.12,.52,.43,.14,.85,.21,1.27,.21,.28,0,.54-.04,.8-.12,.26-.08,.49-.21,.7-.41,.17-.17,.3-.37,.39-.6,.09-.23,.13-.51,.13-.81s-.05-.55-.16-.76c-.1-.21-.24-.37-.43-.5-.2-.15-.45-.25-.74-.31-.29-.06-.61-.09-.97-.09s-.68,.02-1,.07c-.32,.05-.59,.09-.82,.14V4.95h5.25v1.03h-4.12v2.32c.17-.02,.34-.03,.52-.04,.18,0,.33-.01,.46-.01,.47,0,.89,.04,1.24,.12,.36,.08,.68,.22,.98,.42,.31,.21,.55,.49,.73,.83s.26,.77,.26,1.28Z"/>
          <path id="_." data-name="." d="M170.05,13.68h-1.75v-2.09h1.75v2.09Z"/>
          <path id="_1-6" data-name="1" d="M165.89,13.68h-4.72v-.89h1.82V6.94h-1.82v-.8c.25,0,.51-.02,.79-.06,.28-.04,.49-.1,.64-.18,.18-.1,.32-.22,.42-.37,.11-.15,.17-.36,.18-.61h.91v7.86h1.78v.89Z"/>
        </g>
        <g id="_3.5" data-name="3.5">
          <path id="_5-3" data-name="5" d="M248.56,10.91c0,.41-.07,.79-.22,1.17s-.35,.68-.61,.94c-.28,.27-.62,.48-1.01,.63-.39,.14-.84,.22-1.35,.22-.48,0-.94-.05-1.38-.15-.44-.1-.81-.22-1.12-.36v-1.24h.08c.32,.2,.7,.38,1.12,.52,.43,.14,.85,.21,1.27,.21,.28,0,.54-.04,.8-.12,.26-.08,.49-.21,.7-.41,.17-.17,.3-.37,.39-.6,.09-.23,.13-.51,.13-.81s-.05-.55-.16-.76c-.1-.21-.24-.37-.43-.5-.2-.15-.45-.25-.74-.31-.29-.06-.61-.09-.97-.09s-.68,.02-1,.07c-.32,.05-.59,.09-.82,.14V4.95h5.25v1.03h-4.12v2.32c.17-.02,.34-.03,.52-.04,.18,0,.33-.01,.46-.01,.47,0,.89,.04,1.24,.12,.36,.08,.68,.22,.98,.42,.31,.21,.55,.49,.73,.83,.17,.34,.26,.77,.26,1.28h0Z"/>
          <path id="_.-2" data-name="." d="M240.29,13.68h-1.4v-1.67h1.4v1.67Z"/>
          <path id="_3-2" data-name="3" d="M235.86,9.48c.19,.17,.34,.38,.46,.63s.18,.58,.18,.98-.07,.76-.22,1.1c-.14,.33-.35,.62-.61,.87-.29,.27-.64,.48-1.04,.61-.39,.13-.83,.19-1.3,.19s-.96-.06-1.43-.18c-.47-.11-.85-.24-1.15-.38v-1.22h.09c.33,.22,.72,.4,1.17,.54s.88,.22,1.3,.22c.25,0,.51-.04,.79-.12s.5-.2,.67-.36c.18-.17,.31-.36,.4-.57,.09-.21,.13-.47,.13-.79s-.05-.57-.15-.77c-.1-.21-.23-.37-.41-.49-.18-.12-.39-.2-.64-.25-.25-.05-.52-.07-.81-.07h-.53v-.97h.41c.59,0,1.07-.12,1.42-.37,.36-.25,.53-.61,.53-1.09,0-.21-.04-.39-.13-.55-.09-.16-.21-.29-.38-.39-.17-.1-.35-.17-.54-.21s-.41-.06-.65-.06c-.37,0-.77,.07-1.18,.2s-.81,.32-1.18,.56h-.06v-1.22c.28-.14,.65-.26,1.11-.38,.46-.12,.91-.18,1.35-.18s.8,.04,1.12,.12,.62,.2,.88,.38c.28,.19,.49,.41,.64,.68,.14,.27,.22,.58,.22,.93,0,.48-.17,.91-.52,1.27-.34,.36-.74,.59-1.21,.68v.08c.19,.03,.4,.1,.64,.2,.24,.1,.45,.22,.62,.37h0Z"/>
        </g>
        <g id="_4.5" data-name="4.5">
          <path id="_5-4" data-name="5" d="M287.03,10.91c0,.41-.07,.79-.22,1.17s-.35,.68-.61,.94c-.28,.27-.62,.48-1.01,.63-.39,.14-.84,.22-1.35,.22-.48,0-.94-.05-1.38-.15-.44-.1-.81-.22-1.12-.36v-1.24h.08c.32,.2,.7,.38,1.12,.52,.43,.14,.85,.21,1.27,.21,.28,0,.54-.04,.8-.12,.26-.08,.49-.21,.7-.41,.17-.17,.3-.37,.39-.6,.09-.23,.13-.51,.13-.81s-.05-.55-.16-.76c-.1-.21-.24-.37-.43-.5-.2-.15-.45-.25-.74-.31-.29-.06-.61-.09-.97-.09s-.68,.02-1,.07c-.32,.05-.59,.09-.82,.14V4.96h5.25v1.03h-4.12v2.32c.17-.02,.34-.03,.52-.04,.18,0,.33-.01,.46-.01,.47,0,.89,.04,1.24,.12,.36,.08,.68,.22,.98,.42,.31,.21,.55,.49,.73,.83,.17,.34,.26,.77,.26,1.28h0Z"/>
          <path id="_.-3" data-name="." d="M278.79,13.68h-1.44v-1.72h1.44v1.72Z"/>
          <path id="_4-2" data-name="4" d="M275.49,11.32h-1.29v2.46h-1.12v-2.46h-4.18v-1.35l4.22-4.92h1.08v5.33h1.29v.94Zm-2.42-.94v-3.94l-3.38,3.94h3.38Z"/>
        </g>
        <g id="_6.5" data-name="6.5">
          <path id="_5-5" data-name="5" d="M367.96,10.91c0,.41-.07,.79-.22,1.17s-.35,.68-.61,.94c-.28,.27-.62,.48-1.01,.63-.39,.14-.84,.22-1.35,.22-.48,0-.94-.05-1.38-.15-.44-.1-.81-.22-1.12-.36v-1.24h.08c.32,.2,.7,.38,1.12,.52,.43,.14,.85,.21,1.27,.21,.28,0,.54-.04,.8-.12,.26-.08,.49-.21,.7-.41,.17-.17,.3-.37,.39-.6,.09-.23,.13-.51,.13-.81s-.05-.55-.16-.76c-.1-.21-.24-.37-.43-.5-.2-.15-.45-.25-.74-.31-.29-.06-.61-.09-.97-.09s-.68,.02-1,.07c-.32,.05-.59,.09-.82,.14V4.95h5.25v1.03h-4.12v2.32c.17-.02,.34-.03,.52-.04,.18,0,.33-.01,.46-.01,.47,0,.89,.04,1.24,.12,.36,.08,.68,.22,.98,.42,.31,.21,.55,.49,.73,.83s.26,.77,.26,1.28h0Z"/>
          <path id="_.-4" data-name="." d="M359.7,13.68h-1.4v-1.67h1.4v1.67Z"/>
          <path id="_6-2" data-name="6" d="M356.16,10.85c0,.89-.29,1.61-.88,2.17-.58,.56-1.3,.84-2.14,.84-.43,0-.82-.07-1.17-.2s-.66-.33-.93-.59c-.34-.32-.6-.75-.78-1.29-.18-.54-.27-1.18-.27-1.93s.08-1.46,.25-2.06c.17-.6,.43-1.13,.8-1.59,.34-.44,.79-.79,1.33-1.03,.54-.25,1.18-.38,1.9-.38,.23,0,.42,0,.58,.03s.31,.05,.47,.11v1.12h-.06c-.11-.06-.28-.11-.5-.16-.22-.05-.44-.08-.67-.08-.84,0-1.51,.26-2.01,.79-.5,.52-.79,1.23-.87,2.13,.33-.2,.65-.35,.97-.45,.32-.11,.69-.16,1.11-.16,.37,0,.7,.04,.98,.11,.29,.07,.58,.2,.87,.41,.34,.24,.6,.54,.77,.9,.18,.36,.26,.8,.26,1.32h0Zm-1.19,.05c0-.36-.05-.66-.16-.9-.11-.24-.28-.45-.53-.62-.18-.12-.38-.21-.6-.25s-.45-.06-.69-.06c-.33,0-.64,.04-.93,.12s-.58,.2-.88,.36c0,.09-.01,.17-.02,.25,0,.08,0,.18,0,.3,0,.62,.06,1.11,.19,1.46,.13,.36,.3,.64,.53,.84,.18,.17,.37,.3,.58,.38,.21,.08,.44,.12,.69,.12,.57,0,1.01-.17,1.34-.52,.32-.35,.49-.85,.49-1.49h0Z"/>
        </g>
        <g id="_7.5" data-name="7.5">
          <path id="_5-6" data-name="5" d="M408.67,10.91c0,.41-.07,.79-.22,1.17s-.35,.68-.61,.94c-.28,.27-.62,.48-1.01,.63-.39,.14-.84,.22-1.35,.22-.48,0-.94-.05-1.38-.15-.44-.1-.81-.22-1.12-.36v-1.24h.08c.32,.2,.7,.38,1.12,.52,.43,.14,.85,.21,1.27,.21,.28,0,.54-.04,.8-.12,.26-.08,.49-.21,.7-.41,.17-.17,.3-.37,.39-.6,.09-.23,.13-.51,.13-.81s-.05-.55-.16-.76c-.1-.21-.24-.37-.43-.5-.2-.15-.45-.25-.74-.31-.29-.06-.61-.09-.97-.09s-.68,.02-1,.07c-.32,.05-.59,.09-.82,.14V4.95h5.25v1.03h-4.12v2.32c.17-.02,.34-.03,.52-.04,.18,0,.33-.01,.46-.01,.47,0,.89,.04,1.24,.12,.36,.08,.68,.22,.98,.42,.31,.21,.55,.49,.73,.83s.26,.77,.26,1.28h0Z"/>
          <path id="_.-5" data-name="." d="M400.41,13.68h-1.4v-1.67h1.4v1.67Z"/>
          <path id="_7-2" data-name="7" d="M396.77,6.26l-3.95,7.42h-1.25l4.2-7.7h-4.97v-1.03h5.97v1.31Z"/>
        </g>
        <g id="_8.5" data-name="8.5">
          <path id="_5-7" data-name="5" d="M449.39,10.91c0,.41-.07,.79-.22,1.17s-.35,.68-.61,.94c-.28,.27-.62,.48-1.01,.63-.39,.14-.84,.22-1.35,.22-.48,0-.94-.05-1.38-.15-.44-.1-.81-.22-1.12-.36v-1.24h.08c.32,.2,.7,.38,1.12,.52,.43,.14,.85,.21,1.27,.21,.28,0,.54-.04,.8-.12,.26-.08,.49-.21,.7-.41,.17-.17,.3-.37,.39-.6,.09-.23,.13-.51,.13-.81s-.05-.55-.16-.76c-.1-.21-.24-.37-.43-.5-.2-.15-.45-.25-.74-.31-.29-.06-.61-.09-.97-.09s-.68,.02-1,.07c-.32,.05-.59,.09-.82,.14V4.95h5.25v1.03h-4.12v2.32c.17-.02,.34-.03,.52-.04,.18,0,.33-.01,.46-.01,.47,0,.89,.04,1.24,.12,.36,.08,.68,.22,.98,.42,.31,.21,.55,.49,.73,.83s.26,.77,.26,1.28h0Z"/>
          <path id="_.-6" data-name="." d="M441.13,13.68h-1.4v-1.67h1.4v1.67Z"/>
          <path id="_8-2" data-name="8" d="M437.53,11.25c0,.75-.29,1.38-.88,1.88-.59,.5-1.32,.75-2.21,.75-.95,0-1.7-.24-2.26-.73-.56-.49-.84-1.11-.84-1.88,0-.48,.14-.92,.42-1.31,.28-.39,.68-.71,1.19-.94v-.04c-.47-.25-.82-.52-1.04-.82-.22-.3-.33-.67-.33-1.11,0-.66,.27-1.2,.81-1.64s1.22-.66,2.06-.66,1.57,.21,2.09,.63,.78,.95,.78,1.59c0,.39-.12,.78-.37,1.17-.25,.38-.61,.68-1.08,.89v.04c.55,.23,.96,.52,1.25,.87s.43,.78,.43,1.31Zm-1.39-4.26c0-.42-.16-.75-.49-1-.32-.25-.73-.38-1.23-.38s-.9,.12-1.21,.35c-.31,.23-.47,.55-.47,.95,0,.28,.08,.53,.23,.73,.16,.2,.4,.38,.72,.54,.14,.07,.35,.16,.62,.28,.27,.11,.54,.21,.8,.28,.39-.26,.65-.53,.8-.8s.22-.6,.22-.96Zm.18,4.37c0-.36-.08-.65-.24-.86-.16-.22-.46-.44-.93-.66-.18-.09-.38-.17-.6-.24s-.51-.18-.87-.31c-.35,.19-.63,.45-.85,.78-.21,.33-.32,.7-.32,1.11,0,.53,.18,.96,.54,1.31s.82,.52,1.38,.52,1.03-.15,1.37-.44c.34-.29,.52-.7,.52-1.21Z"/>
        </g>
        <g id="_10.5" data-name="10.5">
          <path id="_5-8" data-name="5" d="M531.49,10.91c0,.41-.07,.79-.22,1.17s-.35,.68-.61,.94c-.28,.27-.62,.48-1.01,.63-.39,.14-.84,.22-1.35,.22-.48,0-.94-.05-1.38-.15-.44-.1-.81-.22-1.12-.36v-1.24h.08c.32,.2,.7,.38,1.12,.52,.43,.14,.85,.21,1.27,.21,.28,0,.54-.04,.8-.12,.26-.08,.49-.21,.7-.41,.17-.17,.3-.37,.39-.6,.09-.23,.13-.51,.13-.81s-.05-.55-.16-.76c-.1-.21-.24-.37-.43-.5-.2-.15-.45-.25-.74-.31-.29-.06-.61-.09-.97-.09s-.68,.02-1,.07c-.32,.05-.59,.09-.82,.14V4.95h5.25v1.03h-4.12v2.32c.17-.02,.34-.03,.52-.04,.18,0,.33-.01,.46-.01,.47,0,.89,.04,1.24,.12,.36,.08,.68,.22,.98,.42,.31,.21,.55,.49,.73,.83s.26,.77,.26,1.28h0Z"/>
          <path id="_.-7" data-name="." d="M523.23,13.68h-1.4v-1.67h1.4v1.67Z"/>
          <path id="_0-2" data-name="0" d="M519.55,9.31c0,1.57-.25,2.72-.74,3.45-.49,.73-1.25,1.1-2.28,1.1s-1.81-.37-2.3-1.11c-.48-.74-.72-1.88-.72-3.42s.24-2.7,.73-3.43c.49-.74,1.25-1.11,2.29-1.11s1.81,.38,2.29,1.13c.48,.75,.73,1.88,.73,3.4Zm-1.54,2.66c.14-.32,.23-.69,.28-1.11,.05-.43,.08-.95,.08-1.55s-.03-1.11-.08-1.55c-.05-.44-.14-.81-.28-1.11-.14-.3-.32-.53-.56-.68-.23-.15-.54-.23-.91-.23s-.67,.08-.91,.23c-.24,.15-.43,.38-.57,.69-.13,.29-.22,.67-.28,1.13-.05,.46-.07,.97-.07,1.53,0,.61,.02,1.12,.06,1.53,.04,.41,.13,.78,.28,1.1,.13,.3,.31,.54,.54,.7,.24,.16,.55,.24,.94,.24,.37,0,.67-.08,.91-.23,.24-.15,.43-.38,.56-.69h0Z"/>
          <path id="_1-7" data-name="1" d="M511.44,13.68h-4.72v-.89h1.82V6.94h-1.82v-.8c.25,0,.51-.02,.79-.06,.28-.04,.49-.1,.64-.18,.18-.1,.32-.22,.42-.37,.11-.15,.17-.36,.18-.61h.91v7.86h1.78v.89Z"/>
        </g>
        <g id="_11.5" data-name="11.5">
          <path id="_5-9" data-name="5" d="M571.4,10.91c0,.41-.07,.79-.22,1.17s-.35,.68-.61,.94c-.28,.27-.62,.48-1.01,.63-.39,.14-.84,.22-1.35,.22-.48,0-.94-.05-1.38-.15-.44-.1-.81-.22-1.12-.36v-1.24h.08c.32,.2,.7,.38,1.12,.52,.43,.14,.85,.21,1.27,.21,.28,0,.54-.04,.8-.12,.26-.08,.49-.21,.7-.41,.17-.17,.3-.37,.39-.6,.09-.23,.13-.51,.13-.81s-.05-.55-.16-.76c-.1-.21-.24-.37-.43-.5-.2-.15-.45-.25-.74-.31-.29-.06-.61-.09-.97-.09s-.68,.02-1,.07c-.32,.05-.59,.09-.82,.14V4.95h5.25v1.03h-4.12v2.32c.17-.02,.34-.03,.52-.04,.18,0,.33-.01,.46-.01,.47,0,.89,.04,1.24,.12,.36,.08,.68,.22,.98,.42,.31,.21,.55,.49,.73,.83s.26,.77,.26,1.28h0Z"/>
          <path id="_.-8" data-name="." d="M563.13,13.68h-1.4v-1.67h1.4v1.67Z"/>
          <path id="_1-8" data-name="1" d="M558.97,13.68h-4.72v-.89h1.82V6.94h-1.82v-.8c.25,0,.51-.02,.79-.06,.28-.04,.49-.1,.64-.18,.18-.1,.32-.22,.42-.37,.11-.15,.17-.36,.18-.61h.91v7.86h1.78v.89Z"/>
          <path id="_1-9" data-name="1" d="M551.34,13.68h-4.72v-.89h1.82V6.94h-1.82v-.8c.25,0,.51-.02,.79-.06,.28-.04,.49-.1,.64-.18,.18-.1,.32-.22,.42-.37,.11-.15,.17-.36,.18-.61h.91v7.86h1.78v.89Z"/>
        </g>
      </g>
    </g>
  </g>
</svg>