<?xml version="1.0" encoding="UTF-8"?>
<svg id="Capa_1" data-name="Capa 1" xmlns="http://www.w3.org/2000/svg" xmlns:xlink="http://www.w3.org/1999/xlink" viewBox="0 0 1025.02 1025.02">
  <defs>
    <style>
      .cls-1, .cls-2 {
        fill: #fff;
      }

      .cls-3 {
        stroke-width: 2.5px;
      }

      .cls-3, .cls-4 {
        fill: none;
        stroke: #e6e6e6;
      }

      .cls-5 {
        fill: #e6e6e6;
      }

      .cls-5, .cls-6, .cls-7, .cls-2, .cls-8 {
        stroke: #000;
      }

      .cls-9 {
        stroke: url(#Degradado_sin_nombre_2);
      }

      .cls-10 {
        stroke: #1a1a1a;
      }

      .cls-10, .cls-7 {
        stroke-width: 1.02px;
      }

      .cls-10, .cls-8 {
        fill: #1a1a1a;
      }

      .cls-4 {
        stroke-width: 1.5px;
      }
    </style>
    <linearGradient id="Degradado_sin_nombre_2" data-name="Degradado sin nombre 2" x1="910.81" y1="-348.66" x2="878.92" y2="-324.74" gradientTransform="translate(-60.01 767.28) scale(1 -1)" gradientUnits="userSpaceOnUse">
      <stop offset="0" stop-color="#000"/>
      <stop offset="1" stop-color="#000" stop-opacity="0"/>
    </linearGradient>
  </defs>
  <g id="body">
    <rect id="outter" class="cls-7" x=".51" y=".51" width="1024" height="1024" rx="10" ry="10"/>
    <rect id="inner" class="cls-10" x="10.29" y="10.63" width="1004" height="1004" rx="5" ry="5"/>
    <rect id="base" class="cls-7" x="20.79" y="20.13" width="984" height="703"/>
    <g>
      <path id="h1" class="cls-3" d="M20.57,319.84H1004.57"/>
      <path id="h2" class="cls-3" d="M20.57,303.71H1004.57"/>
      <path id="h3" class="cls-3" d="M20.57,287.58H1004.57"/>
      <path id="h4" class="cls-3" d="M20.57,271.45H1004.57"/>
      <path id="h5" class="cls-3" d="M20.57,255.32H1004.57"/>
      <path id="h6" class="cls-3" d="M20.57,239.18H1004.57"/>
      <path id="h7" class="cls-3" d="M20.57,223.05H1004.57"/>
      <path id="h8" class="cls-3" d="M20.57,206.92H1004.57"/>
      <path id="h9" class="cls-3" d="M20.57,190.79H1004.57"/>
      <path id="h10" class="cls-3" d="M20.57,174.66H1004.57"/>
      <path id="h11" class="cls-3" d="M20.57,158.53H1004.57"/>
      <path id="h12" class="cls-3" d="M20.57,142.4H1004.57"/>
      <path id="h13" class="cls-3" d="M20.57,126.27H1004.57"/>
      <path id="h14" class="cls-3" d="M20.57,110.13H1004.57"/>
      <path id="h15" class="cls-3" d="M20.57,94H1004.57"/>
      <path id="h16" class="cls-3" d="M20.57,77.87H1004.57"/>
      <path id="h17" class="cls-3" d="M20.57,61.74H1004.57"/>
      <path id="h18" class="cls-3" d="M20.57,45.61H1004.57"/>
      <path id="h19" class="cls-3" d="M20.57,29.48H1004.57"/>
      <path id="path1437" class="cls-4" d="M28.63,21.41V327.91h0"/>
      <path id="path1437-0" class="cls-4" d="M60.89,21.41V327.91h0"/>
      <path id="path1437-2" class="cls-4" d="M93.16,21.41V327.91h0"/>
      <path id="path1437-0-3" class="cls-4" d="M125.42,21.41V327.91h0"/>
      <path id="path1437-1" class="cls-4" d="M157.68,21.41V327.91h0"/>
      <path id="path1437-0-9" class="cls-4" d="M189.94,21.41V327.91h0"/>
      <path id="path1437-2-5" class="cls-4" d="M222.21,21.41V327.91h0"/>
      <path id="path1437-0-3-3" class="cls-4" d="M254.47,21.41V327.91h0"/>
      <path id="path1437-21" class="cls-4" d="M286.73,21.41V327.91h0"/>
      <path id="path1437-0-6" class="cls-4" d="M318.99,21.41V327.91h0"/>
      <path id="path1437-2-9" class="cls-4" d="M351.26,21.41V327.91h0"/>
      <path id="path1437-0-3-2" class="cls-4" d="M383.52,21.41V327.91h0"/>
      <path id="path1437-1-5" class="cls-4" d="M415.78,21.41V327.91h0"/>
      <path id="path1437-0-9-8" class="cls-4" d="M448.04,21.41V327.91h0"/>
      <path id="path1437-2-5-0" class="cls-4" d="M480.3,21.41V327.91h0"/>
      <path id="path1437-0-3-3-9" class="cls-4" d="M512.57,21.41V327.91h0"/>
      <path id="path1437-21-2" class="cls-4" d="M544.83,21.41V327.91h0"/>
      <path id="path1437-0-6-9" class="cls-4" d="M577.09,21.41V327.91h0"/>
      <path id="path1437-2-9-2" class="cls-4" d="M609.35,21.41V327.91h0"/>
      <path id="path1437-0-3-2-1" class="cls-4" d="M641.62,21.41V327.91h0"/>
      <path id="path1437-1-5-1" class="cls-4" d="M673.88,21.41V327.91h0"/>
      <path id="path1437-0-9-8-7" class="cls-4" d="M706.14,21.41V327.91h0"/>
      <path id="path1437-2-5-0-9" class="cls-4" d="M738.4,21.41V327.91h0"/>
      <path id="path1437-0-3-3-9-2" class="cls-4" d="M770.67,21.41V327.91h0"/>
      <path id="path1437-21-2-1" class="cls-4" d="M802.93,21.41V327.91h0"/>
      <path id="path1437-0-6-9-0" class="cls-4" d="M835.19,21.41V327.91h0"/>
      <path id="path1437-2-9-2-1" class="cls-4" d="M867.45,21.41V327.91h0"/>
      <path id="path1437-0-3-2-1-5" class="cls-4" d="M899.71,21.41V327.91h0"/>
      <path id="path1437-1-5-1-5" class="cls-4" d="M931.98,21.41V327.91h0"/>
      <path id="path1437-0-9-8-7-7" class="cls-4" d="M964.24,21.41V327.91h0"/>
      <path id="path1437-2-5-0-9-0" class="cls-4" d="M996.18,20.35V326.84h0"/>
    </g>
    <g>
      <path id="h1-2" data-name="h1" class="cls-3" d="M20.57,625.98H1004.57"/>
      <path id="h2-2" data-name="h2" class="cls-3" d="M20.57,609.85H1004.57"/>
      <path id="h3-2" data-name="h3" class="cls-3" d="M20.57,593.72H1004.57"/>
      <path id="h4-2" data-name="h4" class="cls-3" d="M20.57,577.59H1004.57"/>
      <path id="h5-2" data-name="h5" class="cls-3" d="M20.57,561.46H1004.57"/>
      <path id="h6-2" data-name="h6" class="cls-3" d="M20.57,545.33H1004.57"/>
      <path id="h7-2" data-name="h7" class="cls-3" d="M20.57,529.2H1004.57"/>
      <path id="h8-2" data-name="h8" class="cls-3" d="M20.57,513.06H1004.57"/>
      <path id="h9-2" data-name="h9" class="cls-3" d="M20.57,496.93H1004.57"/>
      <path id="h10-2" data-name="h10" class="cls-3" d="M20.57,480.8H1004.57"/>
      <path id="h11-2" data-name="h11" class="cls-3" d="M20.57,464.67H1004.57"/>
      <path id="h12-2" data-name="h12" class="cls-3" d="M20.57,448.54H1004.57"/>
      <path id="h13-2" data-name="h13" class="cls-3" d="M20.57,432.41H1004.57"/>
      <path id="h14-2" data-name="h14" class="cls-3" d="M20.57,416.28H1004.57"/>
      <path id="h15-2" data-name="h15" class="cls-3" d="M20.57,400.15H1004.57"/>
      <path id="h16-2" data-name="h16" class="cls-3" d="M20.57,384.02H1004.57"/>
      <path id="h17-2" data-name="h17" class="cls-3" d="M20.57,367.88H1004.57"/>
      <path id="h18-2" data-name="h18" class="cls-3" d="M20.57,351.75H1004.57"/>
      <path id="h19-2" data-name="h19" class="cls-3" d="M20.57,335.62H1004.57"/>
      <path id="path1437-2" data-name="path1437" class="cls-4" d="M28.63,327.56v306.49h0"/>
      <path id="path1437-0-2" data-name="path1437-0" class="cls-4" d="M60.89,327.56v306.49h0"/>
      <path id="path1437-2-2" data-name="path1437-2" class="cls-4" d="M93.16,327.56v306.49h0"/>
      <path id="path1437-0-3-2" data-name="path1437-0-3" class="cls-4" d="M125.42,327.56v306.49h0"/>
      <path id="path1437-1-2" data-name="path1437-1" class="cls-4" d="M157.68,327.56v306.49h0"/>
      <path id="path1437-0-9-2" data-name="path1437-0-9" class="cls-4" d="M189.94,327.56v306.49h0"/>
      <path id="path1437-2-5-2" data-name="path1437-2-5" class="cls-4" d="M222.21,327.56v306.49h0"/>
      <path id="path1437-0-3-3-2" data-name="path1437-0-3-3" class="cls-4" d="M254.47,327.56v306.49h0"/>
      <path id="path1437-21-2" data-name="path1437-21" class="cls-4" d="M286.73,327.56v306.49h0"/>
      <path id="path1437-0-6-2" data-name="path1437-0-6" class="cls-4" d="M318.99,327.56v306.49h0"/>
      <path id="path1437-2-9-2" data-name="path1437-2-9" class="cls-4" d="M351.26,327.56v306.49h0"/>
      <path id="path1437-0-3-2-2" data-name="path1437-0-3-2" class="cls-4" d="M383.52,327.56v306.49h0"/>
      <path id="path1437-1-5-2" data-name="path1437-1-5" class="cls-4" d="M415.78,327.56v306.49h0"/>
      <path id="path1437-0-9-8-2" data-name="path1437-0-9-8" class="cls-4" d="M448.04,327.56v306.49h0"/>
      <path id="path1437-2-5-0-2" data-name="path1437-2-5-0" class="cls-4" d="M480.3,327.56v306.49h0"/>
      <path id="path1437-0-3-3-9-2" data-name="path1437-0-3-3-9" class="cls-4" d="M512.57,327.56v306.49h0"/>
      <path id="path1437-21-2-2" data-name="path1437-21-2" class="cls-4" d="M544.83,327.56v306.49h0"/>
      <path id="path1437-0-6-9-2" data-name="path1437-0-6-9" class="cls-4" d="M577.09,327.56v306.49h0"/>
      <path id="path1437-2-9-2-2" data-name="path1437-2-9-2" class="cls-4" d="M609.35,327.56v306.49h0"/>
      <path id="path1437-0-3-2-1-2" data-name="path1437-0-3-2-1" class="cls-4" d="M641.62,327.56v306.49h0"/>
      <path id="path1437-1-5-1-2" data-name="path1437-1-5-1" class="cls-4" d="M673.88,327.56v306.49h0"/>
      <path id="path1437-0-9-8-7-2" data-name="path1437-0-9-8-7" class="cls-4" d="M706.14,327.56v306.49h0"/>
      <path id="path1437-2-5-0-9-2" data-name="path1437-2-5-0-9" class="cls-4" d="M738.4,327.56v306.49h0"/>
      <path id="path1437-0-3-3-9-2-2" data-name="path1437-0-3-3-9-2" class="cls-4" d="M770.67,327.56v306.49h0"/>
      <path id="path1437-21-2-1-2" data-name="path1437-21-2-1" class="cls-4" d="M802.93,327.56v306.49h0"/>
      <path id="path1437-0-6-9-0-2" data-name="path1437-0-6-9-0" class="cls-4" d="M835.19,327.56v306.49h0"/>
      <path id="path1437-2-9-2-1-2" data-name="path1437-2-9-2-1" class="cls-4" d="M867.45,327.56v306.49h0"/>
      <path id="path1437-0-3-2-1-5-2" data-name="path1437-0-3-2-1-5" class="cls-4" d="M899.71,327.56v306.49h0"/>
      <path id="path1437-1-5-1-5-2" data-name="path1437-1-5-1-5" class="cls-4" d="M931.98,327.56v306.49h0"/>
      <path id="path1437-0-9-8-7-7-2" data-name="path1437-0-9-8-7-7" class="cls-4" d="M964.24,327.56v306.49h0"/>
      <path id="path1437-2-5-0-9-0-2" data-name="path1437-2-5-0-9-0" class="cls-4" d="M996.18,326.49v306.49h0"/>
    </g>
    <g id="stylus">
      <rect id="blank" x="20.29" y="734.63" width="984" height="62"/>
    </g>
    <g id="keyboard">
      <rect id="base-2" data-name="base" class="cls-1" x="20.29" y="811.73" width="984" height="190.9" rx="5" ry="5"/>
      <path id="frame" class="cls-2" d="M272.33,843.16l-55.99,40.85v76.99H968.27c.07-25.66,.13-51.33,.2-76.99-18.58-13.62-37.15-27.23-55.73-40.85H272.33Z"/>
      <g id="keys">
        <g id="naturals">
          <polygon id="key-12" class="cls-5" points="911.04 843.38 912.51 843.38 968.24 884.07 968.24 960.78 911.04 960.78 911.04 843.38"/>
          <rect id="key-11" class="cls-5" x="847.46" y="843.16" width="63.69" height="117.84"/>
          <rect id="key-10" class="cls-5" x="783.77" y="843.16" width="63.69" height="117.84"/>
          <rect id="key-9" class="cls-5" x="720.08" y="843.16" width="63.69" height="117.84"/>
          <rect id="key-8" class="cls-5" x="656.39" y="843.16" width="63.69" height="117.84"/>
          <rect id="key-7" class="cls-5" x="592.7" y="843.16" width="63.69" height="117.84"/>
          <rect id="key-6" class="cls-5" x="529.01" y="843.16" width="63.69" height="117.84"/>
          <rect id="key-5" class="cls-5" x="465.32" y="843.16" width="63.69" height="117.84"/>
          <rect id="key-4" class="cls-5" x="401.63" y="843.16" width="63.69" height="117.84"/>
          <rect id="key-3" class="cls-5" x="337.94" y="843.16" width="63.69" height="117.84"/>
          <rect id="key-2" class="cls-5" x="274.14" y="843.16" width="63.69" height="117.84"/>
          <polygon id="key-1" class="cls-5" points="274.14 843.16 272.66 843.16 216.93 884.01 216.93 961 274.14 961 274.14 843.16"/>
        </g>
        <g id="accidentals">
          <polyline id="key-11.5" class="cls-5" points="911.93 843.16 942.55 865.6 942.55 890.29 934.58 898.15 886.82 898.15 878.86 890.29 878.86 843.16 911.93 843.16 898.4 843.16"/>
          <polyline id="key-10.5" class="cls-5" points="815.17 843.16 815.17 890.29 823.13 898.15 870.89 898.15 878.86 890.29 878.86 843.16 815.17 843.16 815.17 843.16"/>
          <polyline id="key-8.5" class="cls-5" points="687.63 843.16 687.63 890.29 695.59 898.15 743.36 898.15 751.32 890.29 751.32 843.16 687.63 843.16 687.63 843.16"/>
          <polyline id="key-7.5" class="cls-5" points="623.94 843.16 623.94 890.29 631.9 898.15 679.67 898.15 687.63 890.29 687.63 843.16 623.94 843.16 623.94 843.16"/>
          <polyline id="key-6.5" class="cls-5" points="560.01 843.16 560.01 890.29 567.97 898.15 615.73 898.15 623.7 890.29 623.7 843.16 560.01 843.16 560.01 843.16"/>
          <polyline id="key-4.5" class="cls-5" points="432.66 843.16 432.66 890.29 440.62 898.15 488.39 898.15 496.35 890.29 496.35 843.16 432.66 843.16 432.66 843.16"/>
          <polyline id="key-3.5" class="cls-5" points="369.03 843.16 369.03 890.29 376.99 898.15 424.76 898.15 432.72 890.29 432.72 843.16 369.03 843.16 369.03 843.16"/>
          <polyline id="key-1.5" class="cls-5" points="272.66 843.16 242.05 865.6 242.05 890.29 250.01 898.15 297.78 898.15 305.74 890.29 305.74 843.16 272.66 843.16 286.2 843.16"/>
        </g>
      </g>
      <path id="shadow" class="cls-9" d="M216.93,953.05l743.57,1.66v-76.99l7.17,5.59v77.49H216.93v-7.75Z"/>
      <g id="controls">
        <g id="label">
          <rect class="cls-6" x="65.67" y="829.02" width="87.57" height="157.12"/>
          <rect class="cls-1" x="73.63" y="852.58" width="71.65" height="109.98"/>
        </g>
        <g id="text">
          <g id="off">
            <path id="f" class="cls-1" d="M116.08,845.27v-9h6.15v1.06h-4.94v2.79h4.28v1.06h-4.28v4.09h-1.21Z"/>
            <path id="f-2" data-name="f" class="cls-1" d="M108.3,845.27v-9h6.15v1.06h-4.94v2.79h4.28v1.06h-4.28v4.09h-1.21Z"/>
            <path id="o" class="cls-1" d="M97.96,840.89c0-1.49,.41-2.66,1.22-3.5,.81-.85,1.86-1.27,3.15-1.27,.84,0,1.6,.2,2.28,.6,.68,.4,1.19,.95,1.54,1.66,.36,.71,.53,1.51,.53,2.41s-.19,1.73-.56,2.45c-.37,.72-.9,1.27-1.59,1.64-.68,.37-1.42,.55-2.21,.55-.86,0-1.63-.2-2.3-.61-.68-.41-1.19-.97-1.54-1.68-.35-.71-.52-1.46-.52-2.25Zm1.24,.02c0,1.08,.29,1.94,.88,2.57,.59,.62,1.34,.93,2.23,.93s1.65-.32,2.24-.95c.59-.63,.88-1.52,.88-2.68,0-.73-.13-1.37-.38-1.91-.25-.55-.62-.97-1.1-1.27-.48-.3-1.02-.45-1.62-.45-.85,0-1.59,.29-2.21,.87-.61,.58-.92,1.54-.92,2.9Z"/>
          </g>
          <g id="on">
            <path id="n" class="cls-1" d="M111.46,979.31v-9h1.24l4.79,7.06v-7.06h1.16v9h-1.24l-4.79-7.07v7.07h-1.16Z"/>
            <path id="o-2" data-name="o" class="cls-1" d="M101.2,974.93c0-1.49,.41-2.66,1.22-3.5,.81-.85,1.86-1.27,3.15-1.27,.84,0,1.6,.2,2.28,.6,.68,.4,1.19,.95,1.54,1.66,.36,.71,.53,1.51,.53,2.41s-.19,1.73-.56,2.45c-.37,.72-.9,1.27-1.59,1.64-.68,.37-1.42,.55-2.21,.55-.86,0-1.63-.2-2.3-.61-.68-.41-1.19-.97-1.54-1.68-.35-.71-.52-1.46-.52-2.25Zm1.24,.02c0,1.08,.29,1.94,.88,2.57,.59,.62,1.34,.93,2.23,.93s1.65-.32,2.24-.95c.59-.63,.88-1.52,.88-2.68,0-.73-.13-1.37-.38-1.91-.25-.55-.62-.97-1.1-1.27-.48-.3-1.02-.45-1.62-.45-.85,0-1.59,.29-2.21,.87-.61,.58-.92,1.54-.92,2.9Z"/>
          </g>
          <g id="power">
            <path id="r" d="M111.17,932.59h-1.07l-2.06-2.42h-1.16v2.42h-.82v-6.09h1.73c.37,0,.68,.02,.93,.07,.25,.05,.47,.13,.67,.25,.22,.14,.4,.32,.52,.53,.13,.21,.19,.48,.19,.8,0,.44-.11,.81-.34,1.1-.22,.29-.53,.52-.92,.67l2.32,2.66Zm-1.92-4.38c0-.17-.03-.33-.1-.46-.06-.14-.16-.25-.31-.34-.12-.08-.26-.13-.42-.16-.16-.03-.36-.05-.58-.05h-.97v2.3h.83c.26,0,.49-.02,.68-.07,.19-.05,.36-.13,.49-.25,.12-.11,.22-.25,.27-.39,.06-.15,.09-.34,.09-.57h0Z"/>
            <path id="e" d="M110.13,922.11h-4.07v-6.09h4.07v.72h-3.25v1.67h3.25v.72h-3.25v2.26h3.25v.72Z"/>
            <path id="w" d="M113.24,905.55l-1.6,6.09h-.92l-1.3-5.06-1.27,5.06h-.9l-1.63-6.09h.84l1.3,5.07,1.28-5.07h.83l1.29,5.11,1.29-5.11h.8Z"/>
            <path id="o-3" data-name="o" d="M110.66,895.77c.25,.27,.44,.61,.58,1,.14,.4,.2,.84,.2,1.35s-.07,.95-.21,1.35c-.14,.4-.33,.73-.57,.99-.25,.28-.56,.48-.9,.62-.35,.14-.74,.21-1.19,.21s-.83-.07-1.19-.21c-.35-.14-.66-.35-.9-.62s-.44-.6-.58-.99c-.13-.39-.2-.84-.2-1.35,0-.5,.07-.94,.2-1.33,.13-.4,.33-.73,.58-1.01,.24-.27,.54-.47,.9-.61,.36-.14,.76-.21,1.18-.21s.84,.07,1.19,.22c.35,.14,.65,.35,.9,.61h0Zm-.07,2.35c0-.79-.18-1.4-.54-1.83-.36-.43-.85-.65-1.47-.65s-1.12,.22-1.48,.65c-.36,.43-.53,1.04-.53,1.83s.18,1.41,.55,1.84c.36,.42,.85,.63,1.47,.63s1.1-.21,1.46-.63c.36-.43,.55-1.04,.55-1.84Z"/>
            <path id="p" d="M110.1,886.44c0,.27-.05,.52-.15,.75-.09,.23-.23,.43-.4,.6-.21,.21-.46,.37-.75,.47-.29,.1-.66,.16-1.1,.16h-.82v2.27h-.82v-6.09h1.68c.37,0,.68,.03,.94,.09,.26,.06,.49,.16,.68,.29,.23,.16,.42,.35,.54,.58,.13,.23,.19,.53,.19,.88h0Zm-.85,.02c0-.21-.04-.39-.11-.55-.07-.16-.19-.28-.34-.38-.13-.08-.28-.14-.46-.18-.17-.04-.38-.06-.64-.06h-.81v2.43h.69c.33,0,.6-.03,.81-.09,.21-.06,.38-.15,.51-.28,.13-.13,.22-.27,.27-.41,.06-.14,.08-.31,.08-.49h0Z"/>
          </g>
          <g id="vibrato">
            <path id="o-4" data-name="o" d="M184.18,937.47c.25,.27,.44,.61,.58,1,.14,.4,.2,.84,.2,1.35s-.07,.95-.21,1.35c-.14,.4-.33,.73-.57,.99-.25,.28-.56,.48-.9,.62-.35,.14-.74,.21-1.19,.21s-.83-.07-1.19-.21c-.35-.14-.66-.35-.9-.62s-.44-.6-.58-.99c-.13-.39-.2-.84-.2-1.35s.07-.94,.2-1.33c.13-.4,.33-.73,.58-1.01,.24-.27,.54-.47,.9-.61,.36-.14,.76-.21,1.18-.21s.84,.07,1.19,.22c.35,.14,.65,.35,.9,.61h0Zm-.07,2.35c0-.79-.18-1.4-.54-1.83-.36-.43-.85-.65-1.47-.65s-1.12,.22-1.48,.65c-.36,.43-.53,1.04-.53,1.83s.18,1.41,.55,1.84c.36,.42,.85,.63,1.47,.63s1.1-.21,1.46-.63c.36-.43,.55-1.04,.55-1.84Z"/>
            <path id="t" d="M183.98,927.01h-2.21v5.37h-.82v-5.37h-2.21v-.72h5.23v.72Z"/>
            <path id="a" d="M184.44,921.91h-.87l-.61-1.7h-2.67l-.61,1.7h-.83l2.25-6.09h1.09l2.25,6.09Zm-1.73-2.39l-1.08-2.99-1.09,2.99h2.17Z"/>
            <path id="r-2" data-name="r" d="M184.68,911.43h-1.07l-2.06-2.42h-1.16v2.42h-.82v-6.09h1.73c.37,0,.68,.02,.93,.07,.25,.05,.47,.13,.67,.25,.22,.14,.4,.32,.52,.53,.13,.21,.19,.48,.19,.8,0,.44-.11,.81-.34,1.1-.22,.29-.53,.52-.92,.67l2.32,2.66Zm-1.92-4.38c0-.17-.03-.33-.1-.46-.06-.14-.16-.25-.31-.34-.12-.08-.26-.13-.42-.16-.16-.03-.36-.05-.58-.05h-.97v2.3h.83c.26,0,.49-.02,.68-.07,.19-.05,.36-.13,.49-.25,.12-.11,.22-.25,.27-.39,.06-.15,.09-.34,.09-.57h0Z"/>
            <path id="b" d="M184.23,899.09c0,.3-.06,.57-.17,.8s-.27,.42-.47,.57c-.23,.18-.49,.31-.77,.38-.28,.08-.63,.11-1.06,.11h-2.19v-6.09h1.83c.45,0,.79,.02,1.01,.05,.22,.03,.44,.1,.64,.2,.23,.12,.39,.27,.49,.45,.1,.18,.15,.4,.15,.66,0,.29-.07,.54-.22,.74-.15,.2-.35,.36-.6,.49v.03c.42,.08,.75,.27,.99,.54,.24,.28,.36,.62,.36,1.05h0Zm-1.38-2.75c0-.15-.02-.27-.07-.37s-.13-.18-.24-.25c-.13-.07-.29-.12-.47-.13-.19-.02-.41-.03-.69-.03h-.98v1.76h1.06c.26,0,.46-.01,.61-.04,.15-.03,.29-.08,.42-.16,.13-.08,.22-.19,.27-.32,.06-.13,.08-.29,.08-.46h0Zm.53,2.78c0-.25-.04-.44-.11-.59-.07-.14-.21-.27-.41-.37-.13-.07-.29-.11-.49-.13-.19-.02-.42-.03-.69-.03h-1.29v2.27h1.09c.36,0,.65-.02,.88-.05,.23-.04,.42-.11,.56-.2,.15-.11,.27-.23,.34-.36,.07-.14,.11-.31,.11-.53h0Z"/>
            <path id="i" d="M181.75,890.49h-2.44v-.62h.81v-4.85h-.81v-.62h2.44v.62h-.81v4.85h.81v.62Z"/>
            <path id="v" d="M184.44,873.92l-2.25,6.09h-1.09l-2.25-6.09h.88l1.94,5.36,1.94-5.36h.84Z"/>
          </g>
        </g>
        <g id="switches">
          <g id="power-2" data-name="power">
            <rect id="socket" class="cls-6" x="51.01" y="874.97" width="39.81" height="62.85"/>
            <rect id="switch" class="cls-8" x="51.01" y="914.25" width="39.81" height="23.57"/>
          </g>
          <g id="vibrato-2" data-name="vibrato">
            <rect id="socket-2" data-name="socket" class="cls-6" x="130.62" y="874.97" width="39.81" height="62.85"/>
            <rect id="switch-2" data-name="switch" class="cls-8" x="130.62" y="914.25" width="39.81" height="23.57"/>
          </g>
        </g>
      </g>
      <g id="labels">
        <g id="naturals-2" data-name="naturals">
          <path id="_1" data-name="1" d="M248.84,983.22h-7.52v-1.4h2.89v-9.19h-2.89v-1.25c.39,0,.81-.03,1.26-.09,.45-.07,.79-.16,1.02-.29,.29-.15,.51-.35,.67-.58,.17-.24,.26-.56,.29-.96h1.45v12.35h2.84v1.4Z"/>
          <path id="_2" data-name="2" d="M308.81,983.22h-9.4v-1.92l1.96-1.66c.66-.55,1.27-1.1,1.84-1.65,1.19-1.14,2.01-2.05,2.45-2.72,.44-.68,.66-1.4,.66-2.18,0-.71-.24-1.27-.72-1.67-.47-.41-1.14-.61-1.99-.61-.57,0-1.18,.1-1.84,.29s-1.3,.5-1.93,.9h-.09v-1.93c.44-.21,1.03-.41,1.76-.59,.74-.18,1.46-.27,2.15-.27,1.42,0,2.54,.34,3.35,1.02,.81,.68,1.21,1.59,1.21,2.75,0,.52-.07,1.01-.21,1.46-.13,.45-.33,.87-.59,1.28-.24,.38-.53,.75-.86,1.12-.32,.37-.72,.78-1.18,1.22-.67,.64-1.35,1.27-2.06,1.88-.71,.6-1.37,1.16-1.99,1.68h7.47v1.57Z"/>
          <path id="_3" data-name="3" d="M373.47,976.62c.3,.26,.54,.6,.74,.99s.29,.91,.29,1.55-.12,1.2-.35,1.72-.55,.98-.97,1.36c-.47,.43-1.02,.75-1.65,.96-.63,.2-1.32,.3-2.07,.3s-1.53-.09-2.28-.28c-.75-.18-1.36-.37-1.84-.59v-1.92h.14c.53,.34,1.15,.63,1.87,.86s1.41,.34,2.07,.34c.39,0,.81-.06,1.25-.19s.8-.32,1.07-.57c.29-.27,.5-.57,.63-.89,.14-.33,.21-.74,.21-1.23s-.08-.9-.24-1.22c-.16-.33-.37-.58-.65-.76-.28-.19-.62-.32-1.02-.39-.4-.07-.83-.11-1.29-.11h-.84v-1.53h.65c.95,0,1.7-.19,2.26-.58,.57-.39,.85-.96,.85-1.71,0-.33-.07-.62-.21-.87-.14-.25-.34-.46-.6-.62-.27-.16-.55-.27-.86-.33s-.65-.09-1.04-.09c-.59,0-1.22,.1-1.88,.31s-1.29,.5-1.88,.88h-.09v-1.92c.44-.21,1.03-.41,1.76-.59,.74-.18,1.46-.28,2.15-.28s1.28,.06,1.79,.18,.98,.32,1.4,.59c.45,.29,.79,.65,1.02,1.07s.35,.91,.35,1.46c0,.76-.27,1.43-.82,2-.54,.56-1.18,.92-1.92,1.07v.13c.3,.05,.64,.15,1.03,.31,.39,.15,.71,.35,.98,.58h0Z"/>
          <path id="_4" data-name="4" d="M434.17,979.37h-2.06v3.86h-1.79v-3.86h-6.65v-2.12l6.73-7.73h1.72v8.38h2.06v1.47Zm-3.85-1.47v-6.19l-5.38,6.19h5.38Z"/>
          <path id="_5" data-name="5" d="M499.63,978.87c0,.64-.12,1.25-.35,1.83s-.56,1.07-.97,1.47c-.45,.43-.98,.76-1.6,.99-.62,.23-1.33,.34-2.15,.34-.76,0-1.49-.08-2.19-.24-.7-.15-1.3-.34-1.78-.56v-1.94h.13c.51,.32,1.11,.59,1.79,.82,.68,.22,1.36,.33,2.02,.33,.44,0,.87-.06,1.28-.18,.42-.12,.79-.34,1.11-.64,.27-.26,.48-.58,.62-.95,.14-.37,.21-.79,.21-1.28s-.08-.87-.25-1.2c-.16-.33-.39-.59-.68-.78-.32-.23-.72-.4-1.18-.49-.46-.1-.98-.15-1.55-.15s-1.08,.04-1.59,.11c-.5,.07-.94,.15-1.31,.22v-7.06h8.36v1.61h-6.56v3.65c.27-.02,.54-.04,.82-.06,.28-.01,.52-.02,.73-.02,.75,0,1.41,.06,1.98,.19,.57,.12,1.09,.34,1.56,.66,.5,.34,.88,.77,1.16,1.31s.41,1.2,.41,2.01h0Z"/>
          <path id="_6" data-name="6" d="M565.83,978.78c0,1.39-.47,2.53-1.4,3.42-.93,.88-2.06,1.32-3.41,1.32-.68,0-1.31-.1-1.87-.31s-1.05-.52-1.48-.93c-.53-.51-.95-1.18-1.24-2.03-.29-.84-.43-1.85-.43-3.04s.13-2.29,.39-3.23c.27-.94,.69-1.77,1.27-2.5,.55-.69,1.25-1.23,2.12-1.62,.86-.39,1.87-.59,3.02-.59,.37,0,.67,.02,.92,.05s.5,.09,.76,.17v1.76h-.09c-.17-.09-.44-.18-.79-.26-.35-.09-.71-.13-1.07-.13-1.34,0-2.4,.41-3.2,1.24-.8,.82-1.26,1.94-1.39,3.34,.52-.31,1.04-.55,1.54-.71,.51-.17,1.1-.25,1.76-.25,.59,0,1.11,.06,1.56,.17,.45,.1,.92,.32,1.39,.64,.55,.37,.96,.85,1.23,1.42,.28,.57,.42,1.26,.42,2.08h0Zm-1.89,.07c0-.57-.09-1.04-.26-1.42-.17-.37-.45-.7-.84-.98-.29-.2-.6-.33-.95-.39s-.71-.09-1.09-.09c-.53,0-1.02,.06-1.47,.18s-.92,.31-1.4,.57c-.01,.14-.02,.27-.03,.4,0,.12,0,.28,0,.47,0,.97,.1,1.74,.3,2.3,.21,.56,.49,1,.84,1.33,.29,.27,.59,.47,.92,.6,.34,.12,.7,.18,1.09,.18,.9,0,1.61-.27,2.13-.81,.52-.55,.77-1.33,.77-2.35h0Z"/>
          <path id="_7" data-name="7" d="M631.55,971.57l-6.29,11.66h-2l6.69-12.1h-7.91v-1.61h9.51v2.05Z"/>
          <path id="_8" data-name="8" d="M690.78,979.4c0,1.18-.47,2.17-1.41,2.96-.93,.79-2.11,1.18-3.53,1.18-1.51,0-2.71-.38-3.6-1.15-.89-.77-1.33-1.75-1.33-2.95,0-.76,.22-1.45,.67-2.06,.45-.62,1.08-1.11,1.89-1.47v-.06c-.75-.39-1.3-.82-1.66-1.29-.35-.47-.53-1.05-.53-1.75,0-1.03,.43-1.89,1.29-2.58s1.95-1.03,3.27-1.03,2.49,.33,3.32,.99,1.24,1.49,1.24,2.5c0,.62-.2,1.23-.59,1.83-.39,.6-.97,1.06-1.73,1.4v.06c.87,.37,1.54,.82,2,1.36s.69,1.23,.69,2.06Zm-2.21-6.69c0-.66-.26-1.18-.77-1.57-.51-.39-1.16-.59-1.96-.59s-1.43,.18-1.93,.55c-.5,.37-.75,.87-.75,1.49,0,.44,.12,.83,.37,1.15,.26,.32,.64,.6,1.15,.86,.23,.11,.56,.25,.99,.43,.44,.18,.86,.33,1.27,.44,.62-.41,1.04-.83,1.28-1.26s.35-.94,.35-1.51Zm.29,6.87c0-.56-.13-1.02-.38-1.35-.25-.34-.74-.69-1.47-1.03-.29-.14-.61-.26-.96-.38s-.81-.28-1.39-.49c-.56,.3-1.01,.71-1.35,1.22-.34,.52-.5,1.1-.5,1.75,0,.83,.29,1.51,.87,2.05s1.31,.81,2.2,.81,1.63-.23,2.17-.69c.55-.46,.82-1.09,.82-1.9Z"/>
          <path id="_9" data-name="9" d="M756.55,975.54c0,1.2-.14,2.28-.42,3.26-.27,.98-.69,1.81-1.25,2.49-.57,.7-1.28,1.24-2.13,1.62s-1.85,.57-3,.57c-.32,0-.63-.02-.91-.06-.29-.03-.54-.08-.77-.16v-1.76h.09c.18,.09,.44,.18,.77,.27,.33,.08,.7,.12,1.1,.12,1.37,0,2.45-.41,3.23-1.22,.78-.82,1.24-1.94,1.36-3.37-.58,.34-1.12,.59-1.63,.74s-1.07,.22-1.67,.22c-.57,0-1.09-.06-1.56-.17-.46-.11-.92-.33-1.39-.64-.55-.37-.96-.85-1.24-1.43-.27-.58-.41-1.27-.41-2.07,0-1.4,.47-2.54,1.4-3.42s2.07-1.32,3.41-1.32c.67,0,1.29,.1,1.87,.31,.57,.2,1.07,.51,1.5,.92,.53,.51,.94,1.17,1.22,1.97,.29,.8,.43,1.83,.43,3.1h0Zm-1.88-.4c0-.95-.1-1.72-.3-2.29s-.47-1.02-.82-1.34c-.29-.28-.61-.47-.94-.59-.34-.12-.7-.18-1.09-.18-.9,0-1.6,.28-2.13,.83-.52,.55-.77,1.33-.77,2.33,0,.58,.08,1.06,.25,1.43s.45,.69,.85,.97c.28,.19,.59,.32,.92,.39,.34,.06,.71,.09,1.12,.09,.49,0,.98-.06,1.47-.19s.96-.32,1.4-.56c0-.13,.01-.25,.02-.38,.01-.13,.02-.29,.02-.49Z"/>
          <g id="_10" data-name="10">
            <path id="_0" data-name="0" d="M827.86,976.36c0,2.46-.39,4.27-1.18,5.42-.78,1.15-1.99,1.72-3.63,1.72s-2.89-.58-3.66-1.75c-.77-1.17-1.15-2.96-1.15-5.38s.39-4.23,1.17-5.39c.78-1.17,1.99-1.75,3.64-1.75s2.88,.59,3.65,1.78c.77,1.18,1.16,2.96,1.16,5.35Zm-2.45,4.18c.22-.5,.36-1.08,.44-1.75,.08-.68,.12-1.49,.12-2.43s-.04-1.74-.12-2.43c-.07-.69-.22-1.27-.45-1.75-.22-.47-.52-.83-.9-1.07-.37-.24-.86-.36-1.45-.36s-1.07,.12-1.46,.36c-.38,.24-.68,.6-.9,1.09-.21,.45-.36,1.05-.44,1.78-.07,.73-.11,1.53-.11,2.4,0,.96,.03,1.76,.1,2.4,.07,.64,.21,1.22,.44,1.73,.21,.48,.49,.84,.87,1.1,.38,.25,.88,.38,1.5,.38,.58,0,1.07-.12,1.46-.36s.68-.6,.9-1.09h0Z"/>
            <path id="_1-2" data-name="1" d="M814.94,983.22h-7.52v-1.4h2.89v-9.19h-2.89v-1.25c.39,0,.81-.03,1.26-.09,.45-.07,.79-.16,1.02-.29,.29-.15,.51-.35,.67-.58,.17-.24,.26-.56,.29-.96h1.45v12.35h2.84v1.4Z"/>
          </g>
          <g id="_11" data-name="11">
            <path id="_1-3" data-name="1" d="M891.68,983.22h-7.52v-1.4h2.89v-9.19h-2.89v-1.25c.39,0,.81-.03,1.26-.09,.45-.07,.79-.16,1.02-.29,.29-.15,.51-.35,.67-.58,.17-.24,.26-.56,.29-.96h1.45v12.35h2.84v1.4Z"/>
            <path id="_1-4" data-name="1" d="M879.54,983.22h-7.52v-1.4h2.89v-9.19h-2.89v-1.25c.39,0,.81-.03,1.26-.09,.45-.07,.79-.16,1.02-.29,.29-.15,.51-.35,.67-.58,.17-.24,.26-.56,.29-.96h1.45v12.35h2.84v1.4Z"/>
          </g>
          <g id="_12" data-name="12">
            <path id="_2-2" data-name="2" d="M950.36,983.22h-9.4v-1.92l1.96-1.66c.66-.55,1.27-1.1,1.84-1.65,1.19-1.14,2.01-2.05,2.45-2.72,.44-.68,.66-1.4,.66-2.18,0-.71-.24-1.27-.72-1.67-.47-.41-1.14-.61-1.99-.61-.57,0-1.18,.1-1.84,.29s-1.3,.5-1.93,.9h-.09v-1.93c.44-.21,1.03-.41,1.76-.59,.74-.18,1.46-.27,2.15-.27,1.42,0,2.54,.34,3.35,1.02,.81,.68,1.21,1.59,1.21,2.75,0,.52-.07,1.01-.21,1.46-.13,.45-.33,.87-.59,1.28-.24,.38-.53,.75-.86,1.12-.32,.37-.72,.78-1.18,1.22-.67,.64-1.35,1.27-2.06,1.88-.71,.6-1.37,1.16-1.99,1.68h7.47v1.57Z"/>
            <path id="_1-5" data-name="1" d="M937.42,983.22h-7.52v-1.4h2.89v-9.19h-2.89v-1.25c.39,0,.81-.03,1.26-.09,.45-.07,.79-.16,1.02-.29,.29-.15,.51-.35,.67-.58,.17-.24,.26-.56,.29-.96h1.45v12.35h2.84v1.4Z"/>
          </g>
        </g>
        <g id="accidentals-2" data-name="accidentals">
          <g id="_1.5" data-name="1.5">
            <path id="_5-2" data-name="5" d="M304.2,828.87c0,.64-.12,1.25-.35,1.83s-.56,1.07-.97,1.47c-.45,.43-.98,.76-1.6,.99-.62,.23-1.33,.34-2.15,.34-.76,0-1.49-.08-2.19-.24-.7-.15-1.3-.34-1.78-.56v-1.94h.13c.51,.32,1.11,.59,1.79,.82,.68,.22,1.36,.33,2.02,.33,.44,0,.87-.06,1.28-.18,.42-.12,.79-.34,1.11-.64,.27-.26,.48-.58,.62-.95,.14-.37,.21-.79,.21-1.28s-.08-.87-.25-1.2c-.16-.33-.39-.59-.68-.78-.32-.23-.72-.4-1.18-.49-.46-.1-.98-.15-1.55-.15s-1.08,.04-1.59,.11c-.5,.07-.94,.15-1.31,.22v-7.06h8.36v1.61h-6.56v3.65c.27-.02,.54-.04,.82-.06,.28-.01,.52-.02,.73-.02,.75,0,1.41,.06,1.98,.19,.57,.12,1.09,.34,1.56,.66,.5,.34,.88,.77,1.16,1.31s.41,1.2,.41,2.01Z"/>
            <path id="_." data-name="." d="M291.04,833.22h-2.79v-3.28h2.79v3.28Z"/>
            <path id="_1-6" data-name="1" d="M284.42,833.22h-7.52v-1.4h2.89v-9.19h-2.89v-1.25c.39,0,.81-.03,1.26-.09,.45-.07,.79-.16,1.02-.29,.29-.15,.51-.35,.67-.58,.17-.24,.26-.56,.29-.96h1.45v12.35h2.84v1.4Z"/>
          </g>
          <g id="_3.5" data-name="3.5">
            <path id="_5-3" data-name="5" d="M416.05,828.87c0,.64-.12,1.25-.35,1.83s-.56,1.07-.97,1.47c-.45,.43-.98,.76-1.6,.99-.62,.23-1.33,.34-2.15,.34-.76,0-1.49-.08-2.19-.24-.7-.15-1.3-.34-1.78-.56v-1.94h.13c.51,.32,1.11,.59,1.79,.82,.68,.22,1.36,.33,2.02,.33,.44,0,.87-.06,1.28-.18,.42-.12,.79-.34,1.11-.64,.27-.26,.48-.58,.62-.95,.14-.37,.21-.79,.21-1.28s-.08-.87-.25-1.2c-.16-.33-.39-.59-.68-.78-.32-.23-.72-.4-1.18-.49-.46-.1-.98-.15-1.55-.15s-1.08,.04-1.59,.11c-.5,.07-.94,.15-1.31,.22v-7.06h8.36v1.61h-6.56v3.65c.27-.02,.54-.04,.82-.06,.28-.01,.52-.02,.73-.02,.75,0,1.41,.06,1.98,.19,.57,.12,1.09,.34,1.56,.66,.5,.34,.88,.77,1.16,1.31,.27,.53,.41,1.2,.41,2.01h0Z"/>
            <path id="_.-2" data-name="." d="M402.9,833.22h-2.23v-2.62h2.23v2.62Z"/>
            <path id="_3-2" data-name="3" d="M395.84,826.62c.3,.26,.54,.6,.74,.99s.29,.91,.29,1.55-.12,1.2-.35,1.72c-.23,.52-.55,.98-.97,1.36-.47,.43-1.02,.75-1.65,.96-.63,.2-1.32,.3-2.07,.3s-1.53-.09-2.28-.28c-.75-.18-1.36-.37-1.84-.59v-1.92h.14c.53,.34,1.15,.63,1.87,.86s1.41,.34,2.07,.34c.39,0,.81-.06,1.25-.19s.8-.32,1.07-.57c.29-.27,.5-.57,.63-.89,.14-.33,.21-.74,.21-1.23s-.08-.9-.24-1.22c-.16-.33-.37-.58-.65-.76-.28-.19-.62-.32-1.02-.39-.4-.07-.83-.11-1.29-.11h-.84v-1.53h.65c.95,0,1.7-.19,2.26-.58,.57-.39,.85-.96,.85-1.71,0-.33-.07-.62-.21-.87-.14-.25-.34-.46-.6-.62-.27-.16-.55-.27-.86-.33s-.65-.09-1.04-.09c-.59,0-1.22,.1-1.88,.31s-1.29,.5-1.88,.88h-.09v-1.92c.44-.21,1.03-.41,1.76-.59,.74-.18,1.46-.28,2.15-.28s1.28,.06,1.79,.18,.98,.32,1.4,.59c.45,.29,.79,.65,1.02,1.07,.23,.42,.35,.91,.35,1.46,0,.76-.27,1.43-.82,2-.54,.56-1.18,.92-1.92,1.07v.13c.3,.05,.64,.15,1.03,.31,.39,.15,.71,.35,.98,.58h0Z"/>
          </g>
          <g id="_4.5" data-name="4.5">
            <path id="_5-4" data-name="5" d="M477.31,828.88c0,.64-.12,1.25-.35,1.83s-.56,1.07-.97,1.47c-.45,.43-.98,.76-1.6,.99-.62,.23-1.33,.34-2.15,.34-.76,0-1.49-.08-2.19-.24-.7-.15-1.3-.34-1.78-.56v-1.94h.13c.51,.32,1.11,.59,1.79,.82,.68,.22,1.36,.33,2.02,.33,.44,0,.87-.06,1.28-.18,.42-.12,.79-.34,1.11-.64,.27-.26,.48-.58,.62-.95,.14-.37,.21-.79,.21-1.28s-.08-.87-.25-1.2c-.16-.33-.39-.59-.68-.78-.32-.23-.72-.4-1.18-.49-.46-.1-.98-.15-1.55-.15s-1.08,.04-1.59,.11c-.5,.07-.94,.15-1.31,.22v-7.06h8.36v1.61h-6.56v3.65c.27-.02,.54-.04,.82-.06,.28-.01,.52-.02,.73-.02,.75,0,1.41,.06,1.98,.19,.57,.12,1.09,.34,1.56,.66,.5,.34,.88,.77,1.16,1.31,.27,.53,.41,1.2,.41,2.01h0Z"/>
            <path id="_.-3" data-name="." d="M464.19,833.22h-2.29v-2.7h2.29v2.7Z"/>
            <path id="_4-2" data-name="4" d="M458.93,829.52h-2.06v3.86h-1.79v-3.86h-6.65v-2.12l6.73-7.73h1.72v8.38h2.06v1.47Zm-3.85-1.47v-6.19l-5.38,6.19h5.38Z"/>
          </g>
          <g id="_6.5" data-name="6.5">
            <path id="_5-5" data-name="5" d="M606.17,828.87c0,.64-.12,1.25-.35,1.83s-.56,1.07-.97,1.47c-.45,.43-.98,.76-1.6,.99-.62,.23-1.33,.34-2.15,.34-.76,0-1.49-.08-2.19-.24-.7-.15-1.3-.34-1.78-.56v-1.94h.13c.51,.32,1.11,.59,1.79,.82,.68,.22,1.36,.33,2.02,.33,.44,0,.87-.06,1.28-.18,.42-.12,.79-.34,1.11-.64,.27-.26,.48-.58,.62-.95,.14-.37,.21-.79,.21-1.28s-.08-.87-.25-1.2c-.16-.33-.39-.59-.68-.78-.32-.23-.72-.4-1.18-.49-.46-.1-.98-.15-1.55-.15s-1.08,.04-1.59,.11c-.5,.07-.94,.15-1.31,.22v-7.06h8.36v1.61h-6.56v3.65c.27-.02,.54-.04,.82-.06,.28-.01,.52-.02,.73-.02,.75,0,1.41,.06,1.98,.19,.57,.12,1.09,.34,1.56,.66,.5,.34,.88,.77,1.16,1.31s.41,1.2,.41,2.01h0Z"/>
            <path id="_.-4" data-name="." d="M593.01,833.22h-2.23v-2.62h2.23v2.62Z"/>
            <path id="_6-2" data-name="6" d="M587.39,828.78c0,1.39-.47,2.53-1.4,3.42-.93,.88-2.06,1.32-3.41,1.32-.68,0-1.31-.1-1.87-.31s-1.05-.52-1.48-.93c-.53-.51-.95-1.18-1.24-2.03-.29-.84-.43-1.85-.43-3.04s.13-2.29,.39-3.23c.27-.94,.69-1.77,1.27-2.5,.55-.69,1.25-1.23,2.12-1.62,.86-.39,1.87-.59,3.02-.59,.37,0,.67,.02,.92,.05s.5,.09,.76,.17v1.76h-.09c-.17-.09-.44-.18-.79-.26-.35-.09-.71-.13-1.07-.13-1.34,0-2.4,.41-3.2,1.24-.8,.82-1.26,1.94-1.39,3.34,.52-.31,1.04-.55,1.54-.71,.51-.17,1.1-.25,1.76-.25,.59,0,1.11,.06,1.56,.17,.45,.1,.92,.32,1.39,.64,.55,.37,.96,.85,1.23,1.42,.28,.57,.42,1.26,.42,2.08h0Zm-1.89,.07c0-.57-.09-1.04-.26-1.42-.17-.37-.45-.7-.84-.98-.29-.2-.6-.33-.95-.39s-.71-.09-1.09-.09c-.53,0-1.02,.06-1.47,.18s-.92,.31-1.4,.57c-.01,.14-.02,.27-.03,.4,0,.12,0,.28,0,.47,0,.97,.1,1.74,.3,2.3,.21,.56,.49,1,.84,1.33,.29,.27,.59,.47,.92,.6,.34,.12,.7,.18,1.09,.18,.9,0,1.61-.27,2.13-.81,.52-.55,.77-1.33,.77-2.35h0Z"/>
          </g>
          <g id="_7.5" data-name="7.5">
            <path id="_5-6" data-name="5" d="M671,828.87c0,.64-.12,1.25-.35,1.83s-.56,1.07-.97,1.47c-.45,.43-.98,.76-1.6,.99-.62,.23-1.33,.34-2.15,.34-.76,0-1.49-.08-2.19-.24-.7-.15-1.3-.34-1.78-.56v-1.94h.13c.51,.32,1.11,.59,1.79,.82,.68,.22,1.36,.33,2.02,.33,.44,0,.87-.06,1.28-.18,.42-.12,.79-.34,1.11-.64,.27-.26,.48-.58,.62-.95,.14-.37,.21-.79,.21-1.28s-.08-.87-.25-1.2c-.16-.33-.39-.59-.68-.78-.32-.23-.72-.4-1.18-.49-.46-.1-.98-.15-1.55-.15s-1.08,.04-1.59,.11c-.5,.07-.94,.15-1.31,.22v-7.06h8.36v1.61h-6.56v3.65c.27-.02,.54-.04,.82-.06,.28-.01,.52-.02,.73-.02,.75,0,1.41,.06,1.98,.19,.57,.12,1.09,.34,1.56,.66,.5,.34,.88,.77,1.16,1.31s.41,1.2,.41,2.01h0Z"/>
            <path id="_.-5" data-name="." d="M657.84,833.22h-2.23v-2.62h2.23v2.62Z"/>
            <path id="_7-2" data-name="7" d="M652.05,821.57l-6.29,11.66h-2l6.69-12.1h-7.91v-1.61h9.51v2.05Z"/>
          </g>
          <g id="_8.5" data-name="8.5">
            <path id="_5-7" data-name="5" d="M735.83,828.87c0,.64-.12,1.25-.35,1.83s-.56,1.07-.97,1.47c-.45,.43-.98,.76-1.6,.99-.62,.23-1.33,.34-2.15,.34-.76,0-1.49-.08-2.19-.24-.7-.15-1.3-.34-1.78-.56v-1.94h.13c.51,.32,1.11,.59,1.79,.82,.68,.22,1.36,.33,2.02,.33,.44,0,.87-.06,1.28-.18,.42-.12,.79-.34,1.11-.64,.27-.26,.48-.58,.62-.95,.14-.37,.21-.79,.21-1.28s-.08-.87-.25-1.2c-.16-.33-.39-.59-.68-.78-.32-.23-.72-.4-1.18-.49-.46-.1-.98-.15-1.55-.15s-1.08,.04-1.59,.11c-.5,.07-.94,.15-1.31,.22v-7.06h8.36v1.61h-6.56v3.65c.27-.02,.54-.04,.82-.06,.28-.01,.52-.02,.73-.02,.75,0,1.41,.06,1.98,.19,.57,.12,1.09,.34,1.56,.66,.5,.34,.88,.77,1.16,1.31s.41,1.2,.41,2.01h0Z"/>
            <path id="_.-6" data-name="." d="M722.67,833.22h-2.23v-2.62h2.23v2.62Z"/>
            <path id="_8-2" data-name="8" d="M716.95,829.4c0,1.18-.47,2.17-1.41,2.96-.93,.79-2.11,1.18-3.53,1.18-1.51,0-2.71-.38-3.6-1.15-.89-.77-1.33-1.75-1.33-2.95,0-.76,.22-1.45,.67-2.06,.45-.62,1.08-1.11,1.89-1.47v-.06c-.75-.39-1.3-.82-1.66-1.29-.35-.47-.53-1.05-.53-1.75,0-1.03,.43-1.89,1.29-2.58s1.95-1.03,3.27-1.03,2.49,.33,3.32,.99,1.24,1.49,1.24,2.5c0,.62-.2,1.23-.59,1.83-.39,.6-.97,1.06-1.73,1.4v.06c.87,.37,1.54,.82,2,1.36s.69,1.23,.69,2.06Zm-2.21-6.69c0-.66-.26-1.18-.77-1.57-.51-.39-1.16-.59-1.96-.59s-1.43,.18-1.93,.55c-.5,.37-.75,.87-.75,1.49,0,.44,.12,.83,.37,1.15,.26,.32,.64,.6,1.15,.86,.23,.11,.56,.25,.99,.43,.44,.18,.86,.33,1.27,.44,.62-.41,1.04-.83,1.28-1.26s.35-.94,.35-1.51Zm.29,6.87c0-.56-.13-1.02-.38-1.35-.25-.34-.74-.69-1.47-1.03-.29-.14-.61-.26-.96-.38s-.81-.28-1.39-.49c-.56,.3-1.01,.71-1.35,1.22-.34,.52-.5,1.1-.5,1.75,0,.83,.29,1.51,.87,2.05s1.31,.81,2.2,.81,1.63-.23,2.17-.69c.55-.46,.82-1.09,.82-1.9Z"/>
          </g>
          <g id="_10.5" data-name="10.5">
            <path id="_5-8" data-name="5" d="M866.54,828.87c0,.64-.12,1.25-.35,1.83s-.56,1.07-.97,1.47c-.45,.43-.98,.76-1.6,.99-.62,.23-1.33,.34-2.15,.34-.76,0-1.49-.08-2.19-.24-.7-.15-1.3-.34-1.78-.56v-1.94h.13c.51,.32,1.11,.59,1.79,.82,.68,.22,1.36,.33,2.02,.33,.44,0,.87-.06,1.28-.18,.42-.12,.79-.34,1.11-.64,.27-.26,.48-.58,.62-.95,.14-.37,.21-.79,.21-1.28s-.08-.87-.25-1.2c-.16-.33-.39-.59-.68-.78-.32-.23-.72-.4-1.18-.49-.46-.1-.98-.15-1.55-.15s-1.08,.04-1.59,.11c-.5,.07-.94,.15-1.31,.22v-7.06h8.36v1.61h-6.56v3.65c.27-.02,.54-.04,.82-.06,.28-.01,.52-.02,.73-.02,.75,0,1.41,.06,1.98,.19,.57,.12,1.09,.34,1.56,.66,.5,.34,.88,.77,1.16,1.31s.41,1.2,.41,2.01h0Z"/>
            <path id="_.-7" data-name="." d="M853.39,833.22h-2.23v-2.62h2.23v2.62Z"/>
            <path id="_0-2" data-name="0" d="M847.54,826.36c0,2.46-.39,4.27-1.18,5.42-.78,1.15-1.99,1.72-3.63,1.72s-2.89-.58-3.66-1.75c-.77-1.17-1.15-2.96-1.15-5.38s.39-4.23,1.17-5.39c.78-1.17,1.99-1.75,3.64-1.75s2.88,.59,3.65,1.78c.77,1.18,1.16,2.96,1.16,5.35Zm-2.45,4.18c.22-.5,.36-1.08,.44-1.75,.08-.68,.12-1.49,.12-2.43s-.04-1.74-.12-2.43c-.07-.69-.22-1.27-.45-1.75-.22-.47-.52-.83-.9-1.07-.37-.24-.86-.36-1.45-.36s-1.07,.12-1.46,.36c-.38,.24-.68,.6-.9,1.09-.21,.45-.36,1.05-.44,1.78-.07,.73-.11,1.53-.11,2.4,0,.96,.03,1.76,.1,2.4,.07,.64,.21,1.22,.44,1.73,.21,.48,.49,.84,.87,1.1,.38,.25,.88,.38,1.5,.38,.58,0,1.07-.12,1.46-.36,.39-.24,.68-.6,.9-1.09h0Z"/>
            <path id="_1-7" data-name="1" d="M834.62,833.22h-7.52v-1.4h2.89v-9.19h-2.89v-1.25c.39,0,.81-.03,1.26-.09,.45-.07,.79-.16,1.02-.29,.29-.15,.51-.35,.67-.58,.17-.24,.26-.56,.29-.96h1.45v12.35h2.84v1.4Z"/>
          </g>
          <g id="_11.5" data-name="11.5">
            <path id="_5-9" data-name="5" d="M930.09,828.87c0,.64-.12,1.25-.35,1.83s-.56,1.07-.97,1.47c-.45,.43-.98,.76-1.6,.99-.62,.23-1.33,.34-2.15,.34-.76,0-1.49-.08-2.19-.24-.7-.15-1.3-.34-1.78-.56v-1.94h.13c.51,.32,1.11,.59,1.79,.82,.68,.22,1.36,.33,2.02,.33,.44,0,.87-.06,1.28-.18,.42-.12,.79-.34,1.11-.64,.27-.26,.48-.58,.62-.95,.14-.37,.21-.79,.21-1.28s-.08-.87-.25-1.2c-.16-.33-.39-.59-.68-.78-.32-.23-.72-.4-1.18-.49-.46-.1-.98-.15-1.55-.15s-1.08,.04-1.59,.11c-.5,.07-.94,.15-1.31,.22v-7.06h8.36v1.61h-6.56v3.65c.27-.02,.54-.04,.82-.06,.28-.01,.52-.02,.73-.02,.75,0,1.41,.06,1.98,.19,.57,.12,1.09,.34,1.56,.66,.5,.34,.88,.77,1.16,1.31s.41,1.2,.41,2.01h0Z"/>
            <path id="_.-8" data-name="." d="M916.93,833.22h-2.23v-2.62h2.23v2.62Z"/>
            <path id="_1-8" data-name="1" d="M910.31,833.22h-7.52v-1.4h2.89v-9.19h-2.89v-1.25c.39,0,.81-.03,1.26-.09,.45-.07,.79-.16,1.02-.29,.29-.15,.51-.35,.67-.58,.17-.24,.26-.56,.29-.96h1.45v12.35h2.84v1.4Z"/>
            <path id="_1-9" data-name="1" d="M898.16,833.22h-7.52v-1.4h2.89v-9.19h-2.89v-1.25c.39,0,.81-.03,1.26-.09,.45-.07,.79-.16,1.02-.29,.29-.15,.51-.35,.67-.58,.17-.24,.26-.56,.29-.96h1.45v12.35h2.84v1.4Z"/>
          </g>
        </g>
      </g>
    </g>
    <g>
      <path id="h1-3" data-name="h1" class="cls-3" d="M20.57,706.49H1004.57"/>
      <path id="h2-3" data-name="h2" class="cls-3" d="M20.57,690.36H1004.57"/>
      <path id="h3-3" data-name="h3" class="cls-3" d="M20.57,674.23H1004.57"/>
      <path id="h4-3" data-name="h4" class="cls-3" d="M20.57,658.09H1004.57"/>
      <path id="h5-3" data-name="h5" class="cls-3" d="M20.57,641.96H1004.57"/>
      <path id="h6-3" data-name="h6" class="cls-3" d="M20.57,625.83H1004.57"/>
      <path id="h7-3" data-name="h7" class="cls-3" d="M20.57,609.7H1004.57"/>
      <path id="h8-3" data-name="h8" class="cls-3" d="M20.57,593.57H1004.57"/>
      <path id="h9-3" data-name="h9" class="cls-3" d="M20.57,577.44H1004.57"/>
      <path id="h10-3" data-name="h10" class="cls-3" d="M20.57,561.31H1004.57"/>
      <path id="h11-3" data-name="h11" class="cls-3" d="M20.57,545.18H1004.57"/>
      <path id="h12-3" data-name="h12" class="cls-3" d="M20.57,529.05H1004.57"/>
      <path id="h13-3" data-name="h13" class="cls-3" d="M20.57,512.91H1004.57"/>
      <path id="h14-3" data-name="h14" class="cls-3" d="M20.57,496.78H1004.57"/>
      <path id="h15-3" data-name="h15" class="cls-3" d="M20.57,480.65H1004.57"/>
      <path id="h16-3" data-name="h16" class="cls-3" d="M20.57,464.52H1004.57"/>
      <path id="h17-3" data-name="h17" class="cls-3" d="M20.57,448.39H1004.57"/>
      <path id="h18-3" data-name="h18" class="cls-3" d="M20.57,432.26H1004.57"/>
      <path id="h19-3" data-name="h19" class="cls-3" d="M20.57,416.13H1004.57"/>
      <path id="path1437-3" data-name="path1437" class="cls-4" d="M28.63,408.06v306.49h0"/>
      <path id="path1437-0-3" data-name="path1437-0" class="cls-4" d="M60.89,408.06v306.49h0"/>
      <path id="path1437-2-3" data-name="path1437-2" class="cls-4" d="M93.16,408.06v306.49h0"/>
      <path id="path1437-0-3-3" data-name="path1437-0-3" class="cls-4" d="M125.42,408.06v306.49h0"/>
      <path id="path1437-1-3" data-name="path1437-1" class="cls-4" d="M157.68,408.06v306.49h0"/>
      <path id="path1437-0-9-3" data-name="path1437-0-9" class="cls-4" d="M189.94,408.06v306.49h0"/>
      <path id="path1437-2-5-3" data-name="path1437-2-5" class="cls-4" d="M222.21,408.06v306.49h0"/>
      <path id="path1437-0-3-3-3" data-name="path1437-0-3-3" class="cls-4" d="M254.47,408.06v306.49h0"/>
      <path id="path1437-21-3" data-name="path1437-21" class="cls-4" d="M286.73,408.06v306.49h0"/>
      <path id="path1437-0-6-3" data-name="path1437-0-6" class="cls-4" d="M318.99,408.06v306.49h0"/>
      <path id="path1437-2-9-3" data-name="path1437-2-9" class="cls-4" d="M351.26,408.06v306.49h0"/>
      <path id="path1437-0-3-2-3" data-name="path1437-0-3-2" class="cls-4" d="M383.52,408.06v306.49h0"/>
      <path id="path1437-1-5-3" data-name="path1437-1-5" class="cls-4" d="M415.78,408.06v306.49h0"/>
      <path id="path1437-0-9-8-3" data-name="path1437-0-9-8" class="cls-4" d="M448.04,408.06v306.49h0"/>
      <path id="path1437-2-5-0-3" data-name="path1437-2-5-0" class="cls-4" d="M480.3,408.06v306.49h0"/>
      <path id="path1437-0-3-3-9-3" data-name="path1437-0-3-3-9" class="cls-4" d="M512.57,408.06v306.49h0"/>
      <path id="path1437-21-2-3" data-name="path1437-21-2" class="cls-4" d="M544.83,408.06v306.49h0"/>
      <path id="path1437-0-6-9-3" data-name="path1437-0-6-9" class="cls-4" d="M577.09,408.06v306.49h0"/>
      <path id="path1437-2-9-2-3" data-name="path1437-2-9-2" class="cls-4" d="M609.35,408.06v306.49h0"/>
      <path id="path1437-0-3-2-1-3" data-name="path1437-0-3-2-1" class="cls-4" d="M641.62,408.06v306.49h0"/>
      <path id="path1437-1-5-1-3" data-name="path1437-1-5-1" class="cls-4" d="M673.88,408.06v306.49h0"/>
      <path id="path1437-0-9-8-7-3" data-name="path1437-0-9-8-7" class="cls-4" d="M706.14,408.06v306.49h0"/>
      <path id="path1437-2-5-0-9-3" data-name="path1437-2-5-0-9" class="cls-4" d="M738.4,408.06v306.49h0"/>
      <path id="path1437-0-3-3-9-2-3" data-name="path1437-0-3-3-9-2" class="cls-4" d="M770.67,408.06v306.49h0"/>
      <path id="path1437-21-2-1-3" data-name="path1437-21-2-1" class="cls-4" d="M802.93,408.06v306.49h0"/>
      <path id="path1437-0-6-9-0-3" data-name="path1437-0-6-9-0" class="cls-4" d="M835.19,408.06v306.49h0"/>
      <path id="path1437-2-9-2-1-3" data-name="path1437-2-9-2-1" class="cls-4" d="M867.45,408.06v306.49h0"/>
      <path id="path1437-0-3-2-1-5-3" data-name="path1437-0-3-2-1-5" class="cls-4" d="M899.71,408.06v306.49h0"/>
      <path id="path1437-1-5-1-5-3" data-name="path1437-1-5-1-5" class="cls-4" d="M931.98,408.06v306.49h0"/>
      <path id="path1437-0-9-8-7-7-3" data-name="path1437-0-9-8-7-7" class="cls-4" d="M964.24,408.06v306.49h0"/>
      <path id="path1437-2-5-0-9-0-3" data-name="path1437-2-5-0-9-0" class="cls-4" d="M996.18,407v306.49h0"/>
    </g>
    <g id="logo">
      <rect id="background" x="37.29" y="282.95" width="950" height="169.64"/>
      <path id="text-2" data-name="text" class="cls-1" d="M516.76,434.73c-1.41-.72-2.05-2-2.05-4.09,0-1.43,.32-2.28,2.16-5.73,5.23-9.85,10.98-21.59,20.48-41.8q1.85-3.94-4.9-3.8c-7.08,.16-7.66,.53-12.48,8.13-3.37,5.31-5.66,7.71-7.96,8.34-1.07,.29-7.31,.37-24.15,.3-21.94-.09-22.75-.12-24.03-.76-1.73-.87-2.62-2.26-3.33-5.21-.68-2.81-1.57-4.74-2.4-5.19-1.02-.55-3.01-.79-4.59-.55-1.33,.2-1.91,.6-4.64,3.16-7.42,6.98-13.03,9-23.62,8.48-5.99-.29-7.47-.94-8.76-3.83-.79-1.78-.9-6.15-.23-9.88,.24-1.32,.32-2.52,.18-2.65-.8-.8-7.47,.63-11.41,2.43-3.06,1.41-6.3,3.7-7.79,5.53-.63,.77-2.59,3.94-4.36,7.04-8.74,15.35-14.51,22.72-21.36,27.3-4.13,2.76-6.8,3.77-10.47,3.95-4.95,.25-6.67-.95-6.39-4.42,.14-1.63,.32-2,1.62-3.33,.8-.83,2.43-2.04,3.62-2.7,4.92-2.73,8-5.51,10.94-9.87,1.65-2.44,4.31-7.63,4.31-8.4,0-.93-1.59-.99-18.23-.69-12.04,.22-17.42,.2-18.37-.05-1.82-.48-2.75-1.41-3.85-3.84-1.06-2.35-1.83-2.89-4.03-2.86-2.29,.03-4.28,1.14-5.9,3.28-2.51,3.32-1.2,3.11-19.39,3.12-8.75,0-16.26,.1-16.68,.21-.61,.16-1.59,1.9-4.9,8.66-3.86,7.9-4.28,8.6-6.25,10.53-1.45,1.42-2.71,2.31-4.05,2.85l-1.94,.78-84.37,.1c-86.91,.1-96.75,0-100.27-1.16-2.34-.77-4.92-3.4-5.62-5.75-.67-2.24-.63-5.36,.08-7.3,.68-1.85,13.11-25.61,14.13-27,.66-.9,11.79-23.72,11.79-24.17,0-.32,7.42-17.01,9.57-21.54,1.12-2.35,1.95-4.39,1.85-4.55-.65-1.04-10.83-1.72-14.42-.96-3.96,.84-5.7,2.92-11.4,13.62-1.98,3.72-3.95,7.31-4.38,7.99l-.78,1.23-9.04,.09c-4.97,.05-9.11,.05-9.2-.01-.09-.06,.33-1.03,.94-2.15,.61-1.13,3.81-7.34,7.13-13.82,6.68-13.05,7.75-14.83,10.34-17.19,3.26-2.98,2.25-2.86,24.35-2.9,10.67-.02,42.25-.16,70.2-.3,27.94-.14,50.8-.14,50.8,0s-1.66,3.08-3.69,6.52l-3.69,6.25h-40.84c-28.05,0-41.45,.11-42.79,.36-2.35,.43-4.65,1.56-5.83,2.84-1.06,1.15-5.6,9.74-5.6,10.58,0,.74-5.56,14.36-6.15,15.06-.23,.27-2.68,5.42-5.44,11.44-2.76,6.02-7.39,15.64-10.28,21.38-2.89,5.74-5.35,10.91-5.47,11.49-.48,2.32,1.48,4.66,4.73,5.67,1.77,.55,6.22,.58,76.14,.58s74.37-.03,76.91-.61c4.04-.93,5.64-1.94,7.4-4.65,.81-1.26,2.13-3.56,2.92-5.12,1.33-2.61,1.45-3.03,1.45-5.37,0-1.63,.23-3.19,.63-4.37,.35-1.01,4.08-8.85,8.29-17.43,4.21-8.58,7.66-15.83,7.66-16.11,0-.31-.42-.58-1.08-.71-.59-.11-9.95-.14-20.8-.08-21.22,.13-21.54,.16-24.39,1.92-2.05,1.27-3.96,4.78-9.78,17.98-2.69,6.1-3.17,7.63-2.83,9,.3,1.19,1.76,2.77,3.31,3.61,1.34,.72,1.69,.73,16.36,.9l14.99,.17,1.05,1.05c1.97,1.97,1.61,5.73-.84,8.62-1.4,1.66-3.91,2.7-7,2.92-3.1,.22-36.14-.37-45.58-.8-8.37-.39-9.51-.73-13.69-4.09-3.39-2.73-4.78-3.56-5.93-3.55-1.02,0-1.29,.23-2.51,2.02-1.53,2.25-4.12,4.44-5.78,4.9-1.05,.29-7.4,.37-24.13,.3-21.94-.09-22.75-.12-24.03-.76-1.73-.87-2.62-2.26-3.33-5.22-.53-2.21-1.25-3.94-2.18-5.24-.28-.39,.13-1.91,1.79-6.63,1.6-4.57,3.63-9.18,7.98-18.15,3.2-6.61,6.26-12.65,6.8-13.43,1.28-1.86,4.17-4.55,6.02-5.62,4.21-2.43,9.04-2.88,31-2.89,16.46-.01,18.2,.25,21.49,3.28,2.28,2.1,3.03,4.12,3.01,8.14-.02,4.12-.03,4.16-6.05,16.78-2.58,5.4-4.68,10.05-4.68,10.33s.63,1,1.41,1.61c.77,.6,2.54,2.18,3.93,3.52,3.15,3.03,4.84,3.6,8.03,2.71,1.1-.31,1.38-.59,2.05-2.1,.43-.96,.94-2.37,1.14-3.12,.92-3.41,3.17-8.4,13.12-29.14,3.57-7.43,5.66-9.27,11.83-10.39,1.4-.26,10.33-.42,27.28-.51,13.86-.07,25.69-.21,26.3-.31,1.24-.2,1.64-.92,4.59-8.25,.8-2,2.64-6.18,4.07-9.28,1.43-3.11,3.69-8.11,5-11.12,1.32-3.01,2.67-6.03,3.02-6.71l.62-1.24h9.15c7.18,0,9.11,.09,8.98,.41-.47,1.19-10.2,22.86-12.8,28.51-2.64,5.74-3.27,7.35-2.93,7.6,.05,.03,4.96,.15,10.92,.25,10.32,.18,10.88,.22,11.77,.88,.51,.38,1.15,1.31,1.42,2.05,.43,1.22,.42,1.55-.11,3.23-.7,2.21-2.34,4.16-4.31,5.11-1.34,.65-1.98,.68-12.82,.69-6.28,0-11.73,.09-12.12,.19-.54,.15-1.65,2.17-4.76,8.7-2.23,4.68-4.41,9.33-4.84,10.33-1.51,3.53-.77,5.72,2.44,7.23l1.9,.89,15.58,.1c8.57,.06,16.03,.02,16.59-.08,.95-.18,1.17-.56,4.12-7.23,4.34-9.84,10.31-22.38,11.99-25.21,1.71-2.88,4.71-5.97,6.66-6.86,1.98-.9,5.28-.9,6.74,0,1.6,.99,2.26,2.64,2.06,5.13-.14,1.74-.73,3.24-4.01,10.17-5.57,11.79-9.57,20.88-9.58,21.78-.02,1.91,1.86,2.2,14.5,2.2,9.6,0,11.2-.07,13.07-.6,2.8-.8,4.39-1.63,5.41-2.85,.46-.55,2.81-4.84,5.22-9.55,10.53-20.55,10.98-21.35,13.14-23.64,2.84-3.01,4.5-3.81,7.96-3.81,2.55,0,2.77,.06,3.73,.97,.93,.89,1.02,1.16,1.02,3.1,0,2.43-1.05,5.17-6.3,16.38-1.64,3.51-2.99,6.65-2.99,6.99,0,.57,.45,.6,8.1,.5l8.1-.1,1.19-1.16c1.51-1.47,3.72-5.81,12.03-23.7,8.37-18.01,15.43-32.73,16.36-34.09,1.1-1.61,3.3-3.85,4.59-4.68,2.68-1.71,6.23-2.3,8.41-1.39,1.78,.74,2.53,1.98,2.53,4.18,0,1.76-.28,2.44-3.91,9.65-11.25,22.31-24.42,52.33-26.73,60.95-.84,3.12-.7,4.32,.49,4.32,1,0,1.7-.44,5.29-3.3,4.01-3.19,5.33-3.61,12.43-3.95,2.81-.13,5.18-.31,5.26-.39,.08-.08,2.55-5.21,5.48-11.39,5.85-12.32,7.11-14.5,9.92-17.18,4-3.81,6.99-4.82,15.48-5.24,8.35-.42,31.34-.39,33.98,.03,5.68,.92,9,4.33,9.51,9.75,.29,3.16-.35,5.71-2.9,11.53-1.26,2.87-2.3,5.43-2.3,5.68s.34,.55,.75,.66c.93,.25,11.77,.27,12.69,.02,.48-.13,1.24-1.4,2.63-4.39,1.07-2.31,3.36-7.03,5.07-10.49,2.64-5.3,3.43-6.61,5.14-8.38,2.47-2.57,5.2-4.01,8.4-4.42,1.25-.16,11.76-.3,23.35-.3h21.08s2.03,1.01,2.03,1.01c2.61,1.3,5.42,4.35,6.38,6.91,.53,1.4,.66,2.38,.56,4.01-.11,1.86-.52,2.99-3.01,8.38-1.58,3.42-2.88,6.44-2.88,6.7,0,.27,.47,.56,1.12,.68,1.24,.23,8.68,.08,8.93-.18,.08-.09,6.8-13.46,14.93-29.71,12.67-25.34,14.98-29.75,16.26-31.03,1.77-1.77,3.19-2.5,5.84-2.99,4.91-.91,8.85,1.78,8.14,5.57-.12,.62-1.69,4.08-3.49,7.69-3.13,6.26-10.29,22.01-10.29,22.64,0,.93,1.64,1.01,16.5,.79,13.57-.2,15.39-.17,17.32,.33,1.46,.38,2.48,.87,3.15,1.54,.93,.92,.99,1.15,.99,3.49v2.5l-8.37,16.64c-4.6,9.15-8.37,16.95-8.37,17.34,0,1.82,2.23,2.02,5.5,.49,2.96-1.39,4.54-2.7,6.63-5.53,2.21-2.99,3.47-3.79,6.47-4.12,1.27-.14,2.37-.31,2.44-.38s1.87-3.78,4-8.24c8.95-18.77,8.6-18.1,10.5-20,2-2.01,4.11-2.96,7.98-3.6,1.68-.28,8.66-.4,23.31-.42l20.92-.02,2.29,1.16c3.7,1.88,5.29,4.86,5.05,9.44-.11,2.16-.36,2.83-3.39,9.1-3.08,6.37-3.24,6.79-2.66,7.21,.85,.62,10.15,.6,13.12-.03,2.63-.56,4.62-1.52,5.52-2.66,.36-.46,3.17-5.1,6.25-10.31,5.86-9.93,7.63-12.27,10.21-13.44,1.27-.58,2.67-.61,23.21-.62,21.18,0,21.9,.01,23.23,.65,1.51,.73,2.5,1.89,3.09,3.61,.5,1.45,.5,5.9,0,7.36-.21,.62-3.42,7.74-7.13,15.82-3.71,8.08-6.74,14.97-6.74,15.29s.32,.68,.75,.8c.96,.26,13.44,.26,14.4,0,1.12-.3,5.54-10.35,5.17-11.77-.23-.87-2.04-1.29-5.59-1.29-3.8,0-4.27-.37-4.04-3.14,.19-2.23,1.4-3.95,3.58-5.06,1.23-.63,2-.75,4.79-.75,3.5,0,6.1-.51,7.57-1.48,.58-.38,1.91-2.58,3.95-6.52,1.69-3.27,3.6-6.64,4.24-7.5,1.59-2.11,4.06-3.92,6.46-4.71,3.84-1.27,7.06-1.37,39.12-1.27,29.21,.1,30.9,.13,32.24,.72,2.05,.89,3.06,2.24,3.06,4.06,0,1.99-.64,3.4-2.16,4.73-2.65,2.33-.39,2.17-34.14,2.36l-30.5,.17-1.6,.74c-.88,.41-1.89,1.08-2.24,1.49-1.65,1.93-3.42,5.81-2.87,6.3,.05,.04,13.73,.15,30.42,.25,28.19,.16,30.41,.22,31.41,.76,3.01,1.65,.97,6.24-3.82,8.6l-2.21,1.09-29.68,.17c-25.53,.14-29.82,.24-30.67,.66-1.17,.59-2.82,3.44-3.82,6.62-.81,2.55-.63,3.89,.57,4.35,1.37,.52,19.06,.73,30.93,.36,11.76-.36,13.76-.59,24.03-2.72,6.94-1.44,8.53-1.12,8.97,1.84,.46,3.06-1.46,7.07-5.07,10.64-2.3,2.28-5.04,3.63-8.21,4.08-1.4,.2-21.94,.35-51.94,.39-45.83,.06-49.69,.03-50.46-.48-1.36-.89-2-2.44-2-4.86,0-2.4-.1-2.16,8.77-21.22,5.75-12.35,6.19-14.3,3.49-15.43-1.29-.54-5.95-.6-14.27-.18-5.74,.29-6.85,.68-9.42,3.33-1.66,1.71-3.19,4.32-12.73,21.71-6.9,12.57-8.39,14.66-11.57,16.25-1.68,.84-1.82,.85-9.2,.85s-7.56-.04-8.95-.75c-2.11-1.08-2.83-2.21-2.82-4.5,0-2.28,.81-4.07,2.36-5.25,1.74-1.33,3.33-1.74,6.81-1.75,1.77,0,3.56-.15,3.99-.31,.44-.17,1.2-1.06,1.73-2.04,.92-1.69,.93-1.76,.32-2.22-.83-.64-11.02-.35-13.69,.39-2.71,.74-3.88,1.92-6.87,6.85-3.41,5.63-4.59,6.98-7.17,8.24-3.1,1.51-5.77,1.67-27.61,1.68-16.26,0-19.86-.08-21.22-.48-3.21-.95-5.21-3.13-6.46-7.03-.81-2.54-1.26-2.92-2.9-2.45-1.86,.53-3.3,1.73-6.04,5.02-1.55,1.86-3.34,3.66-3.97,4-1.05,.56-2.04,.62-10.87,.62-10.51,0-11.08-.08-12.67-1.81-.76-.82-.83-1.15-.83-3.96,0-3.56-.99-1.37,9.02-20.02,6.78-12.62,7.08-13.39,5.93-15.14-1.11-1.69-2.05-1.84-11.55-1.83-4.79,0-9.01,.09-9.38,.18-.46,.12-1.65,2.03-3.79,6.05-7.81,14.68-15.83,29.02-17.96,32.11-2.11,3.07-5.03,4.42-9.56,4.42-3.3,0-4.4-.3-5.74-1.57-.72-.69-.91-1.17-.91-2.31,0-1.62,.29-2.25,3.62-7.88,1.29-2.19,2.35-4.22,2.35-4.52,0-.69-.95-.94-3.67-.95-3.11,0-5.38,.76-6.97,2.34-.72,.72-2.58,3.24-4.13,5.59-3.29,5-4.77,6.2-9.83,8.01l-3.08,1.1-15.91,.11c-12.05,.09-16.27,.01-17.4-.3-1.08-.3-2.08-.99-3.63-2.51-1.18-1.15-2.31-2.09-2.51-2.09s-2.21,4.07-4.46,9.03c-5.23,11.54-10.44,22.5-12.49,26.29-1.96,3.62-4.51,6.3-7.24,7.6-2.54,1.21-6.95,1.53-8.72,.63h0Zm-338.42-51.47c2.53-.84,4.06-2.73,6.86-8.49,2.96-6.09,5.55-12.2,6.99-16.51,1.1-3.29,1.08-4.52-.11-6.04-1.34-1.7-2.1-1.82-12.11-1.81-13.9,0-16.94,.53-19.48,3.35-1.77,1.96-10.43,19.75-11.44,23.5-.68,2.54,1.17,5.12,4.42,6.16,1.89,.6,22.97,.47,24.87-.15Zm326.86,0c2.53-.84,4.06-2.73,6.86-8.49,2.96-6.09,5.55-12.2,6.99-16.51,1.1-3.29,1.08-4.52-.11-6.04-1.34-1.7-2.1-1.82-12.11-1.81-13.9,0-16.94,.53-19.48,3.35-1.77,1.96-10.43,19.75-11.44,23.5-.68,2.54,1.17,5.12,4.42,6.16,1.89,.6,22.97,.47,24.87-.15h0Zm81.95-.55c1.43-.73,2.28-1.46,3.16-2.72,1.44-2.07,5.44-10.56,8.3-17.66,1.74-4.3,2.08-5.47,2.09-7.18,.02-1.58-.14-2.26-.67-2.98-1.35-1.82-2.23-1.94-13.89-1.85-13.34,.1-15.25,.45-17.69,3.23-2.09,2.38-11.23,21.67-11.54,24.36-.19,1.64,.58,3.16,2.23,4.38,2.03,1.5,2.82,1.58,14.76,1.5l11.3-.08,1.96-1Zm152.09,.54c2.56-.84,3.91-2.72,8.15-11.4,4.83-9.88,6.43-13.82,6.44-15.85,0-1.87-1-3.62-2.71-4.68-1.22-.76-1.32-.76-12.33-.76-11.94,0-13.46,.16-16.18,1.72-2.29,1.31-3.96,4.33-10.07,18.17-3.03,6.85-3.36,8.4-2.2,10.08,.96,1.39,2.08,2.24,3.78,2.86,1.74,.63,23.13,.51,25.13-.14h0Z"/>
    </g>
  </g>
</svg>