<?xml version="1.0" encoding="UTF-8"?>
<svg id="Icon" xmlns="http://www.w3.org/2000/svg" xmlns:xlink="http://www.w3.org/1999/xlink" viewBox="0 0 1025.02 1025.02">
  <defs>
    <style>
      .cls-1, .cls-2, .cls-3 {
        fill: #fff;
      }

      .cls-4 {
        stroke-width: 2.5px;
      }

      .cls-4, .cls-5 {
        fill: none;
        stroke: #e6e6e6;
      }

      .cls-2 {
        stroke: #fff;
      }

      .cls-6 {
        fill: #e6e6e6;
      }

      .cls-6, .cls-7, .cls-8, .cls-3, .cls-9 {
        stroke: #000;
      }

      .cls-7, .cls-10 {
        stroke-width: 1.02px;
      }

      .cls-10 {
        stroke: #1a1a1a;
      }

      .cls-10, .cls-9 {
        fill: #1a1a1a;
      }

      .cls-11 {
        stroke: url(#Degradado_sin_nombre);
      }

      .cls-5 {
        stroke-width: 1.5px;
      }
    </style>
    <linearGradient id="Degradado_sin_nombre" data-name="Degradado sin nombre" x1="910.8" y1="1428.67" x2="878.91" y2="1404.75" gradientTransform="translate(-60.01 -312.72)" gradientUnits="userSpaceOnUse">
      <stop offset="0" stop-color="#000"/>
      <stop offset="1" stop-color="#000" stop-opacity="0"/>
    </linearGradient>
  </defs>
  <g id="body">
    <rect id="outter" class="cls-7" x=".51" y=".51" width="1024" height="1024" rx="10" ry="10"/>
    <rect id="inner" class="cls-10" x="10.29" y="10.63" width="1004" height="1004" rx="5" ry="5"/>
    <rect id="base" class="cls-7" x="20.79" y="20.13" width="984" height="703"/>
    <g>
      <path id="h1" class="cls-4" d="M20.57,319.84H1004.57"/>
      <path id="h2" class="cls-4" d="M20.57,303.71H1004.57"/>
      <path id="h3" class="cls-4" d="M20.57,287.58H1004.57"/>
      <path id="h4" class="cls-4" d="M20.57,271.45H1004.57"/>
      <path id="h5" class="cls-4" d="M20.57,255.32H1004.57"/>
      <path id="h6" class="cls-4" d="M20.57,239.18H1004.57"/>
      <path id="h7" class="cls-4" d="M20.57,223.05H1004.57"/>
      <path id="h8" class="cls-4" d="M20.57,206.92H1004.57"/>
      <path id="h9" class="cls-4" d="M20.57,190.79H1004.57"/>
      <path id="h10" class="cls-4" d="M20.57,174.66H1004.57"/>
      <path id="h11" class="cls-4" d="M20.57,158.53H1004.57"/>
      <path id="h12" class="cls-4" d="M20.57,142.4H1004.57"/>
      <path id="h13" class="cls-4" d="M20.57,126.27H1004.57"/>
      <path id="h14" class="cls-4" d="M20.57,110.13H1004.57"/>
      <path id="h15" class="cls-4" d="M20.57,94H1004.57"/>
      <path id="h16" class="cls-4" d="M20.57,77.87H1004.57"/>
      <path id="h17" class="cls-4" d="M20.57,61.74H1004.57"/>
      <path id="h18" class="cls-4" d="M20.57,45.61H1004.57"/>
      <path id="h19" class="cls-4" d="M20.57,29.48H1004.57"/>
      <path id="path1437" class="cls-5" d="M28.63,21.41V327.91h0"/>
      <path id="path1437-0" class="cls-5" d="M60.89,21.41V327.91h0"/>
      <path id="path1437-2" class="cls-5" d="M93.16,21.41V327.91h0"/>
      <path id="path1437-0-3" class="cls-5" d="M125.42,21.41V327.91h0"/>
      <path id="path1437-1" class="cls-5" d="M157.68,21.41V327.91h0"/>
      <path id="path1437-0-9" class="cls-5" d="M189.94,21.41V327.91h0"/>
      <path id="path1437-2-5" class="cls-5" d="M222.21,21.41V327.91h0"/>
      <path id="path1437-0-3-3" class="cls-5" d="M254.47,21.41V327.91h0"/>
      <path id="path1437-21" class="cls-5" d="M286.73,21.41V327.91h0"/>
      <path id="path1437-0-6" class="cls-5" d="M318.99,21.41V327.91h0"/>
      <path id="path1437-2-9" class="cls-5" d="M351.26,21.41V327.91h0"/>
      <path id="path1437-0-3-2" class="cls-5" d="M383.52,21.41V327.91h0"/>
      <path id="path1437-1-5" class="cls-5" d="M415.78,21.41V327.91h0"/>
      <path id="path1437-0-9-8" class="cls-5" d="M448.04,21.41V327.91h0"/>
      <path id="path1437-2-5-0" class="cls-5" d="M480.3,21.41V327.91h0"/>
      <path id="path1437-0-3-3-9" class="cls-5" d="M512.57,21.41V327.91h0"/>
      <path id="path1437-21-2" class="cls-5" d="M544.83,21.41V327.91h0"/>
      <path id="path1437-0-6-9" class="cls-5" d="M577.09,21.41V327.91h0"/>
      <path id="path1437-2-9-2" class="cls-5" d="M609.35,21.41V327.91h0"/>
      <path id="path1437-0-3-2-1" class="cls-5" d="M641.62,21.41V327.91h0"/>
      <path id="path1437-1-5-1" class="cls-5" d="M673.88,21.41V327.91h0"/>
      <path id="path1437-0-9-8-7" class="cls-5" d="M706.14,21.41V327.91h0"/>
      <path id="path1437-2-5-0-9" class="cls-5" d="M738.4,21.41V327.91h0"/>
      <path id="path1437-0-3-3-9-2" class="cls-5" d="M770.67,21.41V327.91h0"/>
      <path id="path1437-21-2-1" class="cls-5" d="M802.93,21.41V327.91h0"/>
      <path id="path1437-0-6-9-0" class="cls-5" d="M835.19,21.41V327.91h0"/>
      <path id="path1437-2-9-2-1" class="cls-5" d="M867.45,21.41V327.91h0"/>
      <path id="path1437-0-3-2-1-5" class="cls-5" d="M899.71,21.41V327.91h0"/>
      <path id="path1437-1-5-1-5" class="cls-5" d="M931.98,21.41V327.91h0"/>
      <path id="path1437-0-9-8-7-7" class="cls-5" d="M964.24,21.41V327.91h0"/>
      <path id="path1437-2-5-0-9-0" class="cls-5" d="M996.18,20.35V326.84h0"/>
    </g>
    <g>
      <path id="h1-2" class="cls-4" d="M20.57,625.98H1004.57"/>
      <path id="h2-2" class="cls-4" d="M20.57,609.85H1004.57"/>
      <path id="h3-2" class="cls-4" d="M20.57,593.72H1004.57"/>
      <path id="h4-2" class="cls-4" d="M20.57,577.59H1004.57"/>
      <path id="h5-2" class="cls-4" d="M20.57,561.46H1004.57"/>
      <path id="h6-2" class="cls-4" d="M20.57,545.33H1004.57"/>
      <path id="h7-2" class="cls-4" d="M20.57,529.2H1004.57"/>
      <path id="h8-2" class="cls-4" d="M20.57,513.06H1004.57"/>
      <path id="h9-2" class="cls-4" d="M20.57,496.93H1004.57"/>
      <path id="h10-2" class="cls-4" d="M20.57,480.8H1004.57"/>
      <path id="h11-2" class="cls-4" d="M20.57,464.67H1004.57"/>
      <path id="h12-2" class="cls-4" d="M20.57,448.54H1004.57"/>
      <path id="h13-2" class="cls-4" d="M20.57,432.41H1004.57"/>
      <path id="h14-2" class="cls-4" d="M20.57,416.28H1004.57"/>
      <path id="h15-2" class="cls-4" d="M20.57,400.15H1004.57"/>
      <path id="h16-2" class="cls-4" d="M20.57,384.02H1004.57"/>
      <path id="h17-2" class="cls-4" d="M20.57,367.88H1004.57"/>
      <path id="h18-2" class="cls-4" d="M20.57,351.75H1004.57"/>
      <path id="h19-2" class="cls-4" d="M20.57,335.62H1004.57"/>
      <path id="path1437-2-2" data-name="path1437-2" class="cls-5" d="M28.63,327.56v306.49h0"/>
      <path id="path1437-0-2" class="cls-5" d="M60.89,327.56v306.49h0"/>
      <path id="path1437-2-2" class="cls-5" d="M93.16,327.56v306.49h0"/>
      <path id="path1437-0-3-2-2" data-name="path1437-0-3-2" class="cls-5" d="M125.42,327.56v306.49h0"/>
      <path id="path1437-1-2" class="cls-5" d="M157.68,327.56v306.49h0"/>
      <path id="path1437-0-9-2" class="cls-5" d="M189.94,327.56v306.49h0"/>
      <path id="path1437-2-5-2" class="cls-5" d="M222.21,327.56v306.49h0"/>
      <path id="path1437-0-3-3-2" class="cls-5" d="M254.47,327.56v306.49h0"/>
      <path id="path1437-21-2-2" data-name="path1437-21-2" class="cls-5" d="M286.73,327.56v306.49h0"/>
      <path id="path1437-0-6-2" class="cls-5" d="M318.99,327.56v306.49h0"/>
      <path id="path1437-2-9-2-2" data-name="path1437-2-9-2" class="cls-5" d="M351.26,327.56v306.49h0"/>
      <path id="path1437-0-3-2-2" class="cls-5" d="M383.52,327.56v306.49h0"/>
      <path id="path1437-1-5-2" class="cls-5" d="M415.78,327.56v306.49h0"/>
      <path id="path1437-0-9-8-2" class="cls-5" d="M448.04,327.56v306.49h0"/>
      <path id="path1437-2-5-0-2" class="cls-5" d="M480.3,327.56v306.49h0"/>
      <path id="path1437-0-3-3-9-2-2" data-name="path1437-0-3-3-9-2" class="cls-5" d="M512.57,327.56v306.49h0"/>
      <path id="path1437-21-2-2" class="cls-5" d="M544.83,327.56v306.49h0"/>
      <path id="path1437-0-6-9-2" class="cls-5" d="M577.09,327.56v306.49h0"/>
      <path id="path1437-2-9-2-2" class="cls-5" d="M609.35,327.56v306.49h0"/>
      <path id="path1437-0-3-2-1-2" class="cls-5" d="M641.62,327.56v306.49h0"/>
      <path id="path1437-1-5-1-2" class="cls-5" d="M673.88,327.56v306.49h0"/>
      <path id="path1437-0-9-8-7-2" class="cls-5" d="M706.14,327.56v306.49h0"/>
      <path id="path1437-2-5-0-9-2" class="cls-5" d="M738.4,327.56v306.49h0"/>
      <path id="path1437-0-3-3-9-2-2" class="cls-5" d="M770.67,327.56v306.49h0"/>
      <path id="path1437-21-2-1-2" class="cls-5" d="M802.93,327.56v306.49h0"/>
      <path id="path1437-0-6-9-0-2" class="cls-5" d="M835.19,327.56v306.49h0"/>
      <path id="path1437-2-9-2-1-2" class="cls-5" d="M867.45,327.56v306.49h0"/>
      <path id="path1437-0-3-2-1-5-2" class="cls-5" d="M899.71,327.56v306.49h0"/>
      <path id="path1437-1-5-1-5-2" class="cls-5" d="M931.98,327.56v306.49h0"/>
      <path id="path1437-0-9-8-7-7-2" class="cls-5" d="M964.24,327.56v306.49h0"/>
      <path id="path1437-2-5-0-9-0-2" class="cls-5" d="M996.18,326.49v306.49h0"/>
    </g>
    <g>
      <path id="h1-3" class="cls-4" d="M20.57,706.49H1004.57"/>
      <path id="h2-3" class="cls-4" d="M20.57,690.36H1004.57"/>
      <path id="h3-3" class="cls-4" d="M20.57,674.23H1004.57"/>
      <path id="h4-3" class="cls-4" d="M20.57,658.09H1004.57"/>
      <path id="h5-3" class="cls-4" d="M20.57,641.96H1004.57"/>
      <path id="h6-3" class="cls-4" d="M20.57,625.83H1004.57"/>
      <path id="h7-3" class="cls-4" d="M20.57,609.7H1004.57"/>
      <path id="h8-3" class="cls-4" d="M20.57,593.57H1004.57"/>
      <path id="h9-3" class="cls-4" d="M20.57,577.44H1004.57"/>
      <path id="h10-3" class="cls-4" d="M20.57,561.31H1004.57"/>
      <path id="h11-3" class="cls-4" d="M20.57,545.18H1004.57"/>
      <path id="h12-3" class="cls-4" d="M20.57,529.05H1004.57"/>
      <path id="h13-3" class="cls-4" d="M20.57,512.91H1004.57"/>
      <path id="h14-3" class="cls-4" d="M20.57,496.78H1004.57"/>
      <path id="h15-3" class="cls-4" d="M20.57,480.65H1004.57"/>
      <path id="h16-3" class="cls-4" d="M20.57,464.52H1004.57"/>
      <path id="h17-3" class="cls-4" d="M20.57,448.39H1004.57"/>
      <path id="h18-3" class="cls-4" d="M20.57,432.26H1004.57"/>
      <path id="h19-3" class="cls-4" d="M20.57,416.13H1004.57"/>
      <path id="path1437-3" class="cls-5" d="M28.63,408.06v306.49h0"/>
      <path id="path1437-0-3-2" data-name="path1437-0-3" class="cls-5" d="M60.89,408.06v306.49h0"/>
      <path id="path1437-2-3" class="cls-5" d="M93.16,408.06v306.49h0"/>
      <path id="path1437-0-3-3-2" data-name="path1437-0-3-3" class="cls-5" d="M125.42,408.06v306.49h0"/>
      <path id="path1437-1-3" class="cls-5" d="M157.68,408.06v306.49h0"/>
      <path id="path1437-0-9-3" class="cls-5" d="M189.94,408.06v306.49h0"/>
      <path id="path1437-2-5-3" class="cls-5" d="M222.21,408.06v306.49h0"/>
      <path id="path1437-0-3-3-3" class="cls-5" d="M254.47,408.06v306.49h0"/>
      <path id="path1437-21-3" class="cls-5" d="M286.73,408.06v306.49h0"/>
      <path id="path1437-0-6-3" class="cls-5" d="M318.99,408.06v306.49h0"/>
      <path id="path1437-2-9-3" class="cls-5" d="M351.26,408.06v306.49h0"/>
      <path id="path1437-0-3-2-3" class="cls-5" d="M383.52,408.06v306.49h0"/>
      <path id="path1437-1-5-3" class="cls-5" d="M415.78,408.06v306.49h0"/>
      <path id="path1437-0-9-8-3" class="cls-5" d="M448.04,408.06v306.49h0"/>
      <path id="path1437-2-5-0-3" class="cls-5" d="M480.3,408.06v306.49h0"/>
      <path id="path1437-0-3-3-9-3" class="cls-5" d="M512.57,408.06v306.49h0"/>
      <path id="path1437-21-2-3" class="cls-5" d="M544.83,408.06v306.49h0"/>
      <path id="path1437-0-6-9-3" class="cls-5" d="M577.09,408.06v306.49h0"/>
      <path id="path1437-2-9-2-3" class="cls-5" d="M609.35,408.06v306.49h0"/>
      <path id="path1437-0-3-2-1-3" class="cls-5" d="M641.62,408.06v306.49h0"/>
      <path id="path1437-1-5-1-3" class="cls-5" d="M673.88,408.06v306.49h0"/>
      <path id="path1437-0-9-8-7-3" class="cls-5" d="M706.14,408.06v306.49h0"/>
      <path id="path1437-2-5-0-9-3" class="cls-5" d="M738.4,408.06v306.49h0"/>
      <path id="path1437-0-3-3-9-2-3" class="cls-5" d="M770.67,408.06v306.49h0"/>
      <path id="path1437-21-2-1-3" class="cls-5" d="M802.93,408.06v306.49h0"/>
      <path id="path1437-0-6-9-0-3" class="cls-5" d="M835.19,408.06v306.49h0"/>
      <path id="path1437-2-9-2-1-3" class="cls-5" d="M867.45,408.06v306.49h0"/>
      <path id="path1437-0-3-2-1-5-3" class="cls-5" d="M899.71,408.06v306.49h0"/>
      <path id="path1437-1-5-1-5-3" class="cls-5" d="M931.98,408.06v306.49h0"/>
      <path id="path1437-0-9-8-7-7-3" class="cls-5" d="M964.24,408.06v306.49h0"/>
      <path id="path1437-2-5-0-9-0-3" class="cls-5" d="M996.18,407v306.49h0"/>
    </g>
    <g id="stylus">
      <rect id="blank" x="20.29" y="734.63" width="984" height="62"/>
    </g>
    <g id="keyboard">
      <rect id="base-2" class="cls-1" x="20.29" y="811.73" width="984" height="190.9" rx="5" ry="5"/>
      <path id="frame" class="cls-3" d="M272.33,843.16l-55.99,40.85v76.99H968.27c.07-25.66,.13-51.33,.2-76.99-18.58-13.62-37.15-27.23-55.73-40.85H272.33Z"/>
      <g id="keys">
        <g id="naturals">
          <polygon id="key-12" class="cls-6" points="911.04 843.38 912.51 843.38 968.24 884.07 968.24 960.78 911.04 960.78 911.04 843.38"/>
          <rect id="key-11" class="cls-6" x="847.46" y="843.16" width="63.69" height="117.84"/>
          <rect id="key-10" class="cls-6" x="783.77" y="843.16" width="63.69" height="117.84"/>
          <rect id="key-9" class="cls-6" x="720.08" y="843.16" width="63.69" height="117.84"/>
          <rect id="key-8" class="cls-6" x="656.39" y="843.16" width="63.69" height="117.84"/>
          <rect id="key-7" class="cls-6" x="592.7" y="843.16" width="63.69" height="117.84"/>
          <rect id="key-6" class="cls-6" x="529.01" y="843.16" width="63.69" height="117.84"/>
          <rect id="key-5" class="cls-6" x="465.32" y="843.16" width="63.69" height="117.84"/>
          <rect id="key-4" class="cls-6" x="401.63" y="843.16" width="63.69" height="117.84"/>
          <rect id="key-3" class="cls-6" x="337.94" y="843.16" width="63.69" height="117.84"/>
          <rect id="key-2" class="cls-6" x="274.14" y="843.16" width="63.69" height="117.84"/>
          <polygon id="key-1" class="cls-6" points="274.14 843.16 272.66 843.16 216.93 884.01 216.93 961 274.14 961 274.14 843.16"/>
        </g>
        <g id="accidentals">
          <polyline id="key-11.5" class="cls-6" points="911.93 843.16 942.55 865.6 942.55 890.29 934.58 898.15 886.82 898.15 878.86 890.29 878.86 843.16 911.93 843.16 898.4 843.16"/>
          <polyline id="key-10.5" class="cls-6" points="815.17 843.16 815.17 890.29 823.13 898.15 870.89 898.15 878.86 890.29 878.86 843.16 815.17 843.16 815.17 843.16"/>
          <polyline id="key-8.5" class="cls-6" points="687.63 843.16 687.63 890.29 695.59 898.15 743.36 898.15 751.32 890.29 751.32 843.16 687.63 843.16 687.63 843.16"/>
          <polyline id="key-7.5" class="cls-6" points="623.94 843.16 623.94 890.29 631.9 898.15 679.67 898.15 687.63 890.29 687.63 843.16 623.94 843.16 623.94 843.16"/>
          <polyline id="key-6.5" class="cls-6" points="560.01 843.16 560.01 890.29 567.97 898.15 615.73 898.15 623.7 890.29 623.7 843.16 560.01 843.16 560.01 843.16"/>
          <polyline id="key-4.5" class="cls-6" points="432.66 843.16 432.66 890.29 440.62 898.15 488.39 898.15 496.35 890.29 496.35 843.16 432.66 843.16 432.66 843.16"/>
          <polyline id="key-3.5" class="cls-6" points="369.03 843.16 369.03 890.29 376.99 898.15 424.76 898.15 432.72 890.29 432.72 843.16 369.03 843.16 369.03 843.16"/>
          <polyline id="key-1.5" class="cls-6" points="272.66 843.16 242.05 865.6 242.05 890.29 250.01 898.15 297.78 898.15 305.74 890.29 305.74 843.16 272.66 843.16 286.2 843.16"/>
        </g>
      </g>
      <path id="shadow" class="cls-11" d="M216.93,953.05l743.57,1.66v-76.99l7.17,5.59v77.49H216.93v-7.75Z"/>
      <g id="controls">
        <g id="label">
          <rect class="cls-8" x="65.67" y="829.02" width="87.57" height="157.12"/>
          <rect class="cls-1" x="73.63" y="852.58" width="71.65" height="109.98"/>
        </g>
        <g id="text">
          <g id="off">
            <path id="f" class="cls-1" d="M116.08,845.27v-9h6.15v1.06h-4.94v2.79h4.28v1.06h-4.28v4.09h-1.21Z"/>
            <path id="f-2" class="cls-1" d="M108.3,845.27v-9h6.15v1.06h-4.94v2.79h4.28v1.06h-4.28v4.09h-1.21Z"/>
            <path id="o" class="cls-1" d="M97.96,840.89c0-1.49,.41-2.66,1.22-3.5,.81-.85,1.86-1.27,3.15-1.27,.84,0,1.6,.2,2.28,.6,.68,.4,1.19,.95,1.54,1.66,.36,.71,.53,1.51,.53,2.41s-.19,1.73-.56,2.45c-.37,.72-.9,1.27-1.59,1.64-.68,.37-1.42,.55-2.21,.55-.86,0-1.63-.2-2.3-.61-.68-.41-1.19-.97-1.54-1.68s-.52-1.46-.52-2.25h0Zm1.24,.02c0,1.08,.29,1.94,.88,2.57,.59,.62,1.34,.93,2.23,.93s1.65-.32,2.24-.95,.88-1.52,.88-2.68c0-.73-.13-1.37-.38-1.91-.25-.55-.62-.97-1.1-1.27-.48-.3-1.02-.45-1.62-.45-.85,0-1.59,.29-2.21,.87-.61,.58-.92,1.54-.92,2.9h0Z"/>
          </g>
          <g id="on">
            <path id="n" class="cls-1" d="M111.46,979.31v-9h1.24l4.79,7.06v-7.06h1.16v9h-1.24l-4.79-7.07v7.07h-1.16Z"/>
            <path id="o-2" class="cls-1" d="M101.2,974.93c0-1.49,.41-2.66,1.22-3.5,.81-.85,1.86-1.27,3.15-1.27,.84,0,1.6,.2,2.28,.6,.68,.4,1.19,.95,1.54,1.66,.36,.71,.53,1.51,.53,2.41s-.19,1.73-.56,2.45c-.37,.72-.9,1.27-1.59,1.64-.68,.37-1.42,.55-2.21,.55-.86,0-1.63-.2-2.3-.61-.68-.41-1.19-.97-1.54-1.68s-.52-1.46-.52-2.25h0Zm1.24,.02c0,1.08,.29,1.94,.88,2.57,.59,.62,1.34,.93,2.23,.93s1.65-.32,2.24-.95,.88-1.52,.88-2.68c0-.73-.13-1.37-.38-1.91-.25-.55-.62-.97-1.1-1.27-.48-.3-1.02-.45-1.62-.45-.85,0-1.59,.29-2.21,.87-.61,.58-.92,1.54-.92,2.9h0Z"/>
          </g>
          <g id="power">
            <path id="r" d="M111.17,932.59h-1.07l-2.06-2.42h-1.16v2.42h-.82v-6.09h1.73c.37,0,.68,.02,.93,.07s.47,.13,.67,.25c.22,.14,.4,.32,.52,.53,.13,.21,.19,.48,.19,.8,0,.44-.11,.81-.34,1.1-.22,.29-.53,.52-.92,.67l2.32,2.66h0Zm-1.92-4.37c0-.17-.03-.33-.1-.46-.06-.14-.16-.25-.31-.34-.12-.08-.26-.13-.42-.16-.16-.03-.36-.05-.58-.05h-.97v2.3h.83c.26,0,.49-.02,.68-.07s.36-.13,.49-.25c.12-.11,.22-.25,.27-.39,.06-.15,.09-.34,.09-.57h.02Z"/>
            <path id="e" d="M110.13,922.11h-4.07v-6.09h4.07v.72h-3.25v1.67h3.25v.72h-3.25v2.26h3.25v.72h0Z"/>
            <path id="w" d="M113.24,905.55l-1.6,6.09h-.92l-1.3-5.06-1.27,5.06h-.9l-1.63-6.09h.84l1.3,5.07,1.28-5.07h.83l1.29,5.11,1.29-5.11h.79Z"/>
            <path id="o-3" d="M110.66,895.77c.25,.27,.44,.61,.58,1,.14,.4,.2,.84,.2,1.35s-.07,.95-.21,1.35c-.14,.4-.33,.73-.57,.99-.25,.28-.56,.48-.9,.62-.35,.14-.74,.21-1.19,.21s-.83-.07-1.19-.21c-.35-.14-.66-.35-.9-.62s-.44-.6-.58-.99c-.13-.39-.2-.84-.2-1.35s.07-.94,.2-1.33c.13-.4,.33-.73,.58-1.01,.24-.27,.54-.47,.9-.61s.76-.21,1.18-.21,.84,.07,1.19,.22c.35,.14,.65,.35,.9,.61h0v-.02Zm-.06,2.35c0-.79-.18-1.4-.54-1.83s-.85-.65-1.47-.65-1.12,.22-1.48,.65c-.36,.43-.53,1.04-.53,1.83s.18,1.41,.55,1.84c.36,.42,.85,.63,1.47,.63s1.1-.21,1.46-.63c.36-.43,.55-1.04,.55-1.84h-.01Z"/>
            <path id="p" d="M110.1,886.44c0,.27-.05,.52-.15,.75-.09,.23-.23,.43-.4,.6-.21,.21-.46,.37-.75,.47s-.66,.16-1.1,.16h-.82v2.27h-.82v-6.09h1.68c.37,0,.68,.03,.94,.09s.49,.16,.68,.29c.23,.16,.42,.35,.54,.58,.13,.23,.19,.53,.19,.88h0Zm-.85,.02c0-.21-.04-.39-.11-.55s-.19-.28-.34-.38c-.13-.08-.28-.14-.46-.18-.17-.04-.38-.06-.64-.06h-.81v2.43h.69c.33,0,.6-.03,.81-.09s.38-.15,.51-.28c.13-.13,.22-.27,.27-.41,.06-.14,.08-.31,.08-.49h0Z"/>
          </g>
          <g id="vibrato">
            <path id="o-4" d="M184.18,937.47c.25,.27,.44,.61,.58,1,.14,.4,.2,.84,.2,1.35s-.07,.95-.21,1.35c-.14,.4-.33,.73-.57,.99-.25,.28-.56,.48-.9,.62-.35,.14-.74,.21-1.19,.21s-.83-.07-1.19-.21c-.35-.14-.66-.35-.9-.62s-.44-.6-.58-.99c-.13-.39-.2-.84-.2-1.35s.07-.94,.2-1.33c.13-.4,.33-.73,.58-1.01,.24-.27,.54-.47,.9-.61s.76-.21,1.18-.21,.84,.07,1.19,.22c.35,.14,.65,.35,.9,.61h0v-.02Zm-.06,2.35c0-.79-.18-1.4-.54-1.83s-.85-.65-1.47-.65-1.12,.22-1.48,.65c-.36,.43-.53,1.04-.53,1.83s.18,1.41,.55,1.84c.36,.42,.85,.63,1.47,.63s1.1-.21,1.46-.63c.36-.43,.55-1.04,.55-1.84h-.01Z"/>
            <path id="t" d="M183.98,927.01h-2.21v5.37h-.82v-5.37h-2.21v-.72h5.23v.72h.01Z"/>
            <path id="a" d="M184.44,921.91h-.87l-.61-1.7h-2.67l-.61,1.7h-.83l2.25-6.09h1.09l2.25,6.09Zm-1.73-2.39l-1.08-2.99-1.09,2.99h2.17Z"/>
            <path id="r-2" d="M184.68,911.43h-1.07l-2.06-2.42h-1.16v2.42h-.82v-6.09h1.73c.37,0,.68,.02,.93,.07s.47,.13,.67,.25c.22,.14,.4,.32,.52,.53,.13,.21,.19,.48,.19,.8,0,.44-.11,.81-.34,1.1-.22,.29-.53,.52-.92,.67l2.32,2.66h.01Zm-1.92-4.37c0-.17-.03-.33-.1-.46-.06-.14-.16-.25-.31-.34-.12-.08-.26-.13-.42-.16-.16-.03-.36-.05-.58-.05h-.97v2.3h.83c.26,0,.49-.02,.68-.07,.19-.05,.36-.13,.49-.25,.12-.11,.22-.25,.27-.39,.06-.15,.09-.34,.09-.57h.02Z"/>
            <path id="b" d="M184.23,899.09c0,.3-.06,.57-.17,.8s-.27,.42-.47,.57c-.23,.18-.49,.31-.77,.38-.28,.08-.63,.11-1.06,.11h-2.19v-6.09h1.83c.45,0,.79,.02,1.01,.05,.22,.03,.44,.1,.64,.2,.23,.12,.39,.27,.49,.45s.15,.4,.15,.66c0,.29-.07,.54-.22,.74s-.35,.36-.6,.49v.03c.42,.08,.75,.27,.99,.54,.24,.28,.36,.62,.36,1.05h0v.02Zm-1.37-2.75c0-.15-.02-.27-.07-.37s-.13-.18-.24-.25c-.13-.07-.29-.12-.47-.13-.19-.02-.41-.03-.69-.03h-.98v1.76h1.06c.26,0,.46-.01,.61-.04,.15-.03,.29-.08,.42-.16,.13-.08,.22-.19,.27-.32,.06-.13,.08-.29,.08-.46h.01Zm.53,2.78c0-.25-.04-.44-.11-.59-.07-.14-.21-.27-.41-.37-.13-.07-.29-.11-.49-.13-.19-.02-.42-.03-.69-.03h-1.29v2.27h1.09c.36,0,.65-.02,.88-.05,.23-.04,.42-.11,.56-.2,.15-.11,.27-.23,.34-.36,.07-.14,.11-.31,.11-.53h.01Z"/>
            <path id="i" d="M181.75,890.49h-2.44v-.62h.81v-4.85h-.81v-.62h2.44v.62h-.81v4.85h.81v.62Z"/>
            <path id="v" d="M184.44,873.92l-2.25,6.09h-1.09l-2.25-6.09h.88l1.94,5.36,1.94-5.36h.83Z"/>
          </g>
        </g>
        <g id="switches">
          <g id="power-2">
            <rect id="socket" class="cls-8" x="51.01" y="874.97" width="39.81" height="62.85"/>
            <rect id="switch" class="cls-9" x="51.01" y="914.25" width="39.81" height="23.57"/>
          </g>
          <g id="vibrato-2">
            <rect id="socket-2" class="cls-8" x="130.62" y="874.97" width="39.81" height="62.85"/>
            <rect id="switch-2" class="cls-9" x="130.62" y="914.25" width="39.81" height="23.57"/>
          </g>
        </g>
      </g>
      <g id="labels">
        <g id="naturals-2">
          <path id="_1" data-name=" 1" d="M248.84,983.22h-7.52v-1.4h2.89v-9.19h-2.89v-1.25c.39,0,.81-.03,1.26-.09,.45-.07,.79-.16,1.02-.29,.29-.15,.51-.35,.67-.58,.17-.24,.26-.56,.29-.96h1.45v12.35h2.84v1.4h0Z"/>
          <path id="_2" data-name=" 2" d="M308.81,983.22h-9.4v-1.92l1.96-1.66c.66-.55,1.27-1.1,1.84-1.65,1.19-1.14,2.01-2.05,2.45-2.72,.44-.68,.66-1.4,.66-2.18,0-.71-.24-1.27-.72-1.67-.47-.41-1.14-.61-1.99-.61-.57,0-1.18,.1-1.84,.29s-1.3,.5-1.93,.9h-.09v-1.93c.44-.21,1.03-.41,1.76-.59,.74-.18,1.46-.27,2.15-.27,1.42,0,2.54,.34,3.35,1.02s1.21,1.59,1.21,2.75c0,.52-.07,1.01-.21,1.46-.13,.45-.33,.87-.59,1.28-.24,.38-.53,.75-.86,1.12-.32,.37-.72,.78-1.18,1.22-.67,.64-1.35,1.27-2.06,1.88-.71,.6-1.37,1.16-1.99,1.68h7.47v1.6Z"/>
          <path id="_3" data-name=" 3" d="M373.47,976.62c.3,.26,.54,.6,.74,.99s.29,.91,.29,1.55-.12,1.2-.35,1.72-.55,.98-.97,1.36c-.47,.43-1.02,.75-1.65,.96-.63,.2-1.32,.3-2.07,.3s-1.53-.09-2.28-.28c-.75-.18-1.36-.37-1.84-.59v-1.92h.14c.53,.34,1.15,.63,1.87,.86s1.41,.34,2.07,.34c.39,0,.81-.06,1.25-.19s.8-.32,1.07-.57c.29-.27,.5-.57,.63-.89,.14-.33,.21-.74,.21-1.23s-.08-.9-.24-1.22c-.16-.33-.37-.58-.65-.76-.28-.19-.62-.32-1.02-.39s-.83-.11-1.29-.11h-.84v-1.53h.65c.95,0,1.7-.19,2.26-.58,.57-.39,.85-.96,.85-1.71,0-.33-.07-.62-.21-.87-.14-.25-.34-.46-.6-.62-.27-.16-.55-.27-.86-.33s-.65-.09-1.04-.09c-.59,0-1.22,.1-1.88,.31s-1.29,.5-1.88,.88h-.09v-1.92c.44-.21,1.03-.41,1.76-.59,.74-.18,1.46-.28,2.15-.28s1.28,.06,1.79,.18,.98,.32,1.4,.59c.45,.29,.79,.65,1.02,1.07s.35,.91,.35,1.46c0,.76-.27,1.43-.82,2-.54,.56-1.18,.92-1.92,1.07v.13c.3,.05,.64,.15,1.03,.31,.39,.15,.71,.35,.98,.58h-.01Z"/>
          <path id="_4" data-name=" 4" d="M434.17,979.37h-2.06v3.86h-1.79v-3.86h-6.65v-2.12l6.73-7.73h1.72v8.38h2.06v1.47h-.01Zm-3.85-1.47v-6.19l-5.38,6.19h5.38Z"/>
          <path id="_5" data-name=" 5" d="M499.63,978.87c0,.64-.12,1.25-.35,1.83s-.56,1.07-.97,1.47c-.45,.43-.98,.76-1.6,.99s-1.33,.34-2.15,.34c-.76,0-1.49-.08-2.19-.24-.7-.15-1.3-.34-1.78-.56v-1.94h.13c.51,.32,1.11,.59,1.79,.82,.68,.22,1.36,.33,2.02,.33,.44,0,.87-.06,1.28-.18,.42-.12,.79-.34,1.11-.64,.27-.26,.48-.58,.62-.95,.14-.37,.21-.79,.21-1.28s-.08-.87-.25-1.2c-.16-.33-.39-.59-.68-.78-.32-.23-.72-.4-1.18-.49-.46-.1-.98-.15-1.55-.15s-1.08,.04-1.59,.11c-.5,.07-.94,.15-1.31,.22v-7.06h8.36v1.61h-6.56v3.65c.27-.02,.54-.04,.82-.06,.28-.01,.52-.02,.73-.02,.75,0,1.41,.06,1.98,.19,.57,.12,1.09,.34,1.56,.66,.5,.34,.88,.77,1.16,1.31s.41,1.2,.41,2.01h-.02Z"/>
          <path id="_6" data-name=" 6" d="M565.83,978.78c0,1.39-.47,2.53-1.4,3.42-.93,.88-2.06,1.32-3.41,1.32-.68,0-1.31-.1-1.87-.31s-1.05-.52-1.48-.93c-.53-.51-.95-1.18-1.24-2.03-.29-.84-.43-1.85-.43-3.04s.13-2.29,.39-3.23c.27-.94,.69-1.77,1.27-2.5,.55-.69,1.25-1.23,2.12-1.62,.86-.39,1.87-.59,3.02-.59,.37,0,.67,.02,.92,.05s.5,.09,.76,.17v1.76h-.09c-.17-.09-.44-.18-.79-.26-.35-.09-.71-.13-1.07-.13-1.34,0-2.4,.41-3.2,1.24-.8,.82-1.26,1.94-1.39,3.34,.52-.31,1.04-.55,1.54-.71,.51-.17,1.1-.25,1.76-.25,.59,0,1.11,.06,1.56,.17,.45,.1,.92,.32,1.39,.64,.55,.37,.96,.85,1.23,1.42,.28,.57,.42,1.26,.42,2.08h-.01Zm-1.89,.06c0-.57-.09-1.04-.26-1.42-.17-.37-.45-.7-.84-.98-.29-.2-.6-.33-.95-.39s-.71-.09-1.09-.09c-.53,0-1.02,.06-1.47,.18s-.92,.31-1.4,.57c-.01,.14-.02,.27-.03,.4v.47c0,.97,.1,1.74,.3,2.3,.21,.56,.49,1,.84,1.33,.29,.27,.59,.47,.92,.6,.34,.12,.7,.18,1.09,.18,.9,0,1.61-.27,2.13-.81,.52-.55,.77-1.33,.77-2.35h0Z"/>
          <path id="_7" data-name=" 7" d="M631.55,971.57l-6.29,11.66h-2l6.69-12.1h-7.91v-1.61h9.51v2.05h0Z"/>
          <path id="_8" data-name=" 8" d="M690.78,979.4c0,1.18-.47,2.17-1.41,2.96-.93,.79-2.11,1.18-3.53,1.18-1.51,0-2.71-.38-3.6-1.15-.89-.77-1.33-1.75-1.33-2.95,0-.76,.22-1.45,.67-2.06,.45-.62,1.08-1.11,1.89-1.47v-.06c-.75-.39-1.3-.82-1.66-1.29-.35-.47-.53-1.05-.53-1.75,0-1.03,.43-1.89,1.29-2.58s1.95-1.03,3.27-1.03,2.49,.33,3.32,.99,1.24,1.49,1.24,2.5c0,.62-.2,1.23-.59,1.83-.39,.6-.97,1.06-1.73,1.4v.06c.87,.37,1.54,.82,2,1.36s.69,1.23,.69,2.06h.01Zm-2.21-6.69c0-.66-.26-1.18-.77-1.57s-1.16-.59-1.96-.59-1.43,.18-1.93,.55-.75,.87-.75,1.49c0,.44,.12,.83,.37,1.15,.26,.32,.64,.6,1.15,.86,.23,.11,.56,.25,.99,.43,.44,.18,.86,.33,1.27,.44,.62-.41,1.04-.83,1.28-1.26s.35-.94,.35-1.51h0Zm.29,6.88c0-.56-.13-1.02-.38-1.35-.25-.34-.74-.69-1.47-1.03-.29-.14-.61-.26-.96-.38s-.81-.28-1.39-.49c-.56,.3-1.01,.71-1.35,1.22-.34,.52-.5,1.1-.5,1.75,0,.83,.29,1.51,.87,2.05s1.31,.81,2.2,.81,1.63-.23,2.17-.69c.55-.46,.82-1.09,.82-1.9h-.01Z"/>
          <path id="_9" data-name=" 9" d="M756.55,975.54c0,1.2-.14,2.28-.42,3.26-.27,.98-.69,1.81-1.25,2.49-.57,.7-1.28,1.24-2.13,1.62s-1.85,.57-3,.57c-.32,0-.63-.02-.91-.06-.29-.03-.54-.08-.77-.16v-1.76h.09c.18,.09,.44,.18,.77,.27,.33,.08,.7,.12,1.1,.12,1.37,0,2.45-.41,3.23-1.22,.78-.82,1.24-1.94,1.36-3.37-.58,.34-1.12,.59-1.63,.74s-1.07,.22-1.67,.22-1.09-.06-1.56-.17c-.46-.11-.92-.33-1.39-.64-.55-.37-.96-.85-1.24-1.43-.27-.58-.41-1.27-.41-2.07,0-1.4,.47-2.54,1.4-3.42s2.07-1.32,3.41-1.32c.67,0,1.29,.1,1.87,.31,.57,.2,1.07,.51,1.5,.92,.53,.51,.94,1.17,1.22,1.97,.29,.8,.43,1.83,.43,3.1h0v.03Zm-1.88-.4c0-.95-.1-1.72-.3-2.29s-.47-1.02-.82-1.34c-.29-.28-.61-.47-.94-.59-.34-.12-.7-.18-1.09-.18-.9,0-1.6,.28-2.13,.83-.52,.55-.77,1.33-.77,2.33,0,.58,.08,1.06,.25,1.43s.45,.69,.85,.97c.28,.19,.59,.32,.92,.39,.34,.06,.71,.09,1.12,.09,.49,0,.98-.06,1.47-.19s.96-.32,1.4-.56c0-.13,.01-.25,.02-.38s.02-.29,.02-.49v-.02Z"/>
          <g id="_10" data-name=" 10">
            <path id="_0" data-name=" 0" d="M827.86,976.36c0,2.46-.39,4.27-1.18,5.42-.78,1.15-1.99,1.72-3.63,1.72s-2.89-.58-3.66-1.75c-.77-1.17-1.15-2.96-1.15-5.38s.39-4.23,1.17-5.39c.78-1.17,1.99-1.75,3.64-1.75s2.88,.59,3.65,1.78c.77,1.18,1.16,2.96,1.16,5.35h0Zm-2.45,4.18c.22-.5,.36-1.08,.44-1.75,.08-.68,.12-1.49,.12-2.43s-.04-1.74-.12-2.43c-.07-.69-.22-1.27-.45-1.75-.22-.47-.52-.83-.9-1.07-.37-.24-.86-.36-1.45-.36s-1.07,.12-1.46,.36c-.38,.24-.68,.6-.9,1.09-.21,.45-.36,1.05-.44,1.78-.07,.73-.11,1.53-.11,2.4,0,.96,.03,1.76,.1,2.4,.07,.64,.21,1.22,.44,1.73,.21,.48,.49,.84,.87,1.1,.38,.25,.88,.38,1.5,.38,.58,0,1.07-.12,1.46-.36s.68-.6,.9-1.09h0Z"/>
            <path id="_1-2" data-name=" 1-2" d="M814.94,983.22h-7.52v-1.4h2.89v-9.19h-2.89v-1.25c.39,0,.81-.03,1.26-.09,.45-.07,.79-.16,1.02-.29,.29-.15,.51-.35,.67-.58,.17-.24,.26-.56,.29-.96h1.45v12.35h2.84v1.4h-.01Z"/>
          </g>
          <g id="_11" data-name=" 11">
            <path id="_1-3" data-name=" 1-3" d="M891.68,983.22h-7.52v-1.4h2.89v-9.19h-2.89v-1.25c.39,0,.81-.03,1.26-.09,.45-.07,.79-.16,1.02-.29,.29-.15,.51-.35,.67-.58,.17-.24,.26-.56,.29-.96h1.45v12.35h2.84v1.4h-.01Z"/>
            <path id="_1-4" data-name=" 1-4" d="M879.54,983.22h-7.52v-1.4h2.89v-9.19h-2.89v-1.25c.39,0,.81-.03,1.26-.09,.45-.07,.79-.16,1.02-.29,.29-.15,.51-.35,.67-.58,.17-.24,.26-.56,.29-.96h1.45v12.35h2.84v1.4h-.01Z"/>
          </g>
          <g id="_12" data-name=" 12">
            <path id="_2-2" data-name=" 2-2" d="M950.36,983.22h-9.4v-1.92l1.96-1.66c.66-.55,1.27-1.1,1.84-1.65,1.19-1.14,2.01-2.05,2.45-2.72,.44-.68,.66-1.4,.66-2.18,0-.71-.24-1.27-.72-1.67-.47-.41-1.14-.61-1.99-.61-.57,0-1.18,.1-1.84,.29s-1.3,.5-1.93,.9h-.09v-1.93c.44-.21,1.03-.41,1.76-.59,.74-.18,1.46-.27,2.15-.27,1.42,0,2.54,.34,3.35,1.02s1.21,1.59,1.21,2.75c0,.52-.07,1.01-.21,1.46-.13,.45-.33,.87-.59,1.28-.24,.38-.53,.75-.86,1.12-.32,.37-.72,.78-1.18,1.22-.67,.64-1.35,1.27-2.06,1.88-.71,.6-1.37,1.16-1.99,1.68h7.47v1.6Z"/>
            <path id="_1-5" data-name=" 1-5" d="M937.42,983.22h-7.52v-1.4h2.89v-9.19h-2.89v-1.25c.39,0,.81-.03,1.26-.09,.45-.07,.79-.16,1.02-.29,.29-.15,.51-.35,.67-.58,.17-.24,.26-.56,.29-.96h1.45v12.35h2.84v1.4h-.01Z"/>
          </g>
        </g>
        <g id="accidentals-2">
          <g id="_1.5" data-name=" 1.5">
            <path id="_5-2" data-name=" 5-2" d="M304.2,828.87c0,.64-.12,1.25-.35,1.83s-.56,1.07-.97,1.47c-.45,.43-.98,.76-1.6,.99s-1.33,.34-2.15,.34c-.76,0-1.49-.08-2.19-.24-.7-.15-1.3-.34-1.78-.56v-1.94h.13c.51,.32,1.11,.59,1.79,.82,.68,.22,1.36,.33,2.02,.33,.44,0,.87-.06,1.28-.18,.42-.12,.79-.34,1.11-.64,.27-.26,.48-.58,.62-.95,.14-.37,.21-.79,.21-1.28s-.08-.87-.25-1.2c-.16-.33-.39-.59-.68-.78-.32-.23-.72-.4-1.18-.49-.46-.1-.98-.15-1.55-.15s-1.08,.04-1.59,.11c-.5,.07-.94,.15-1.31,.22v-7.06h8.36v1.61h-6.56v3.65c.27-.02,.54-.04,.82-.06,.28-.01,.52-.02,.73-.02,.75,0,1.41,.06,1.98,.19,.57,.12,1.09,.34,1.56,.66,.5,.34,.88,.77,1.16,1.31s.41,1.2,.41,2.01h-.02Z"/>
            <path id="_." data-name=" ." d="M291.04,833.22h-2.79v-3.28h2.79v3.28Z"/>
            <path id="_1-6" data-name=" 1-6" d="M284.42,833.22h-7.52v-1.4h2.89v-9.19h-2.89v-1.25c.39,0,.81-.03,1.26-.09,.45-.07,.79-.16,1.02-.29,.29-.15,.51-.35,.67-.58,.17-.24,.26-.56,.29-.96h1.45v12.35h2.84v1.4h-.01Z"/>
          </g>
          <g id="_3.5" data-name=" 3.5">
            <path id="_5-3" data-name=" 5-3" d="M416.05,828.87c0,.64-.12,1.25-.35,1.83s-.56,1.07-.97,1.47c-.45,.43-.98,.76-1.6,.99s-1.33,.34-2.15,.34c-.76,0-1.49-.08-2.19-.24-.7-.15-1.3-.34-1.78-.56v-1.94h.13c.51,.32,1.11,.59,1.79,.82,.68,.22,1.36,.33,2.02,.33,.44,0,.87-.06,1.28-.18,.42-.12,.79-.34,1.11-.64,.27-.26,.48-.58,.62-.95,.14-.37,.21-.79,.21-1.28s-.08-.87-.25-1.2c-.16-.33-.39-.59-.68-.78-.32-.23-.72-.4-1.18-.49-.46-.1-.98-.15-1.55-.15s-1.08,.04-1.59,.11c-.5,.07-.94,.15-1.31,.22v-7.06h8.36v1.61h-6.56v3.65c.27-.02,.54-.04,.82-.06,.28-.01,.52-.02,.73-.02,.75,0,1.41,.06,1.98,.19,.57,.12,1.09,.34,1.56,.66,.5,.34,.88,.77,1.16,1.31,.27,.53,.41,1.2,.41,2.01h-.02Z"/>
            <path id="_.-2" data-name=" .-2" d="M402.9,833.22h-2.23v-2.62h2.23v2.62Z"/>
            <path id="_3-2" data-name=" 3-2" d="M395.84,826.62c.3,.26,.54,.6,.74,.99s.29,.91,.29,1.55-.12,1.2-.35,1.72c-.23,.52-.55,.98-.97,1.36-.47,.43-1.02,.75-1.65,.96-.63,.2-1.32,.3-2.07,.3s-1.53-.09-2.28-.28c-.75-.18-1.36-.37-1.84-.59v-1.92h.14c.53,.34,1.15,.63,1.87,.86s1.41,.34,2.07,.34c.39,0,.81-.06,1.25-.19s.8-.32,1.07-.57c.29-.27,.5-.57,.63-.89,.14-.33,.21-.74,.21-1.23s-.08-.9-.24-1.22c-.16-.33-.37-.58-.65-.76-.28-.19-.62-.32-1.02-.39s-.83-.11-1.29-.11h-.84v-1.53h.65c.95,0,1.7-.19,2.26-.58,.57-.39,.85-.96,.85-1.71,0-.33-.07-.62-.21-.87-.14-.25-.34-.46-.6-.62-.27-.16-.55-.27-.86-.33s-.65-.09-1.04-.09c-.59,0-1.22,.1-1.88,.31s-1.29,.5-1.88,.88h-.09v-1.92c.44-.21,1.03-.41,1.76-.59,.74-.18,1.46-.28,2.15-.28s1.28,.06,1.79,.18,.98,.32,1.4,.59c.45,.29,.79,.65,1.02,1.07,.23,.42,.35,.91,.35,1.46,0,.76-.27,1.43-.82,2-.54,.56-1.18,.92-1.92,1.07v.13c.3,.05,.64,.15,1.03,.31,.39,.15,.71,.35,.98,.58h-.01Z"/>
          </g>
          <g id="_4.5" data-name=" 4.5">
            <path id="_5-4" data-name=" 5-4" d="M477.31,828.88c0,.64-.12,1.25-.35,1.83s-.56,1.07-.97,1.47c-.45,.43-.98,.76-1.6,.99s-1.33,.34-2.15,.34c-.76,0-1.49-.08-2.19-.24-.7-.15-1.3-.34-1.78-.56v-1.94h.13c.51,.32,1.11,.59,1.79,.82,.68,.22,1.36,.33,2.02,.33,.44,0,.87-.06,1.28-.18,.42-.12,.79-.34,1.11-.64,.27-.26,.48-.58,.62-.95,.14-.37,.21-.79,.21-1.28s-.08-.87-.25-1.2c-.16-.33-.39-.59-.68-.78-.32-.23-.72-.4-1.18-.49-.46-.1-.98-.15-1.55-.15s-1.08,.04-1.59,.11c-.5,.07-.94,.15-1.31,.22v-7.06h8.36v1.61h-6.56v3.65c.27-.02,.54-.04,.82-.06,.28-.01,.52-.02,.73-.02,.75,0,1.41,.06,1.98,.19,.57,.12,1.09,.34,1.56,.66,.5,.34,.88,.77,1.16,1.31,.27,.53,.41,1.2,.41,2.01h-.02Z"/>
            <path id="_.-3" data-name=" .-3" d="M464.19,833.22h-2.29v-2.7h2.29v2.7Z"/>
            <path id="_4-2" data-name=" 4-2" d="M458.93,829.52h-2.06v3.86h-1.79v-3.86h-6.65v-2.12l6.73-7.73h1.72v8.38h2.06v1.47h-.01Zm-3.85-1.47v-6.19l-5.38,6.19h5.38Z"/>
          </g>
          <g id="_6.5" data-name=" 6.5">
            <path id="_5-5" data-name=" 5-5" d="M606.17,828.87c0,.64-.12,1.25-.35,1.83s-.56,1.07-.97,1.47c-.45,.43-.98,.76-1.6,.99s-1.33,.34-2.15,.34c-.76,0-1.49-.08-2.19-.24-.7-.15-1.3-.34-1.78-.56v-1.94h.13c.51,.32,1.11,.59,1.79,.82,.68,.22,1.36,.33,2.02,.33,.44,0,.87-.06,1.28-.18,.42-.12,.79-.34,1.11-.64,.27-.26,.48-.58,.62-.95s.21-.79,.21-1.28-.08-.87-.25-1.2c-.16-.33-.39-.59-.68-.78-.32-.23-.72-.4-1.18-.49-.46-.1-.98-.15-1.55-.15s-1.08,.04-1.59,.11c-.5,.07-.94,.15-1.31,.22v-7.06h8.36v1.61h-6.56v3.65c.27-.02,.54-.04,.82-.06,.28-.01,.52-.02,.73-.02,.75,0,1.41,.06,1.98,.19,.57,.12,1.09,.34,1.56,.66,.5,.34,.88,.77,1.16,1.31s.41,1.2,.41,2.01h-.02Z"/>
            <path id="_.-4" data-name=" .-4" d="M593.01,833.22h-2.23v-2.62h2.23v2.62Z"/>
            <path id="_6-2" data-name=" 6-2" d="M587.39,828.78c0,1.39-.47,2.53-1.4,3.42-.93,.88-2.06,1.32-3.41,1.32-.68,0-1.31-.1-1.87-.31s-1.05-.52-1.48-.93c-.53-.51-.95-1.18-1.24-2.03-.29-.84-.43-1.85-.43-3.04s.13-2.29,.39-3.23c.27-.94,.69-1.77,1.27-2.5,.55-.69,1.25-1.23,2.12-1.62,.86-.39,1.87-.59,3.02-.59,.37,0,.67,.02,.92,.05s.5,.09,.76,.17v1.76h-.09c-.17-.09-.44-.18-.79-.26-.35-.09-.71-.13-1.07-.13-1.34,0-2.4,.41-3.2,1.24-.8,.82-1.26,1.94-1.39,3.34,.52-.31,1.04-.55,1.54-.71,.51-.17,1.1-.25,1.76-.25,.59,0,1.11,.06,1.56,.17,.45,.1,.92,.32,1.39,.64,.55,.37,.96,.85,1.23,1.42,.28,.57,.42,1.26,.42,2.08h-.01Zm-1.89,.06c0-.57-.09-1.04-.26-1.42-.17-.37-.45-.7-.84-.98-.29-.2-.6-.33-.95-.39s-.71-.09-1.09-.09c-.53,0-1.02,.06-1.47,.18s-.92,.31-1.4,.57c-.01,.14-.02,.27-.03,.4v.47c0,.97,.1,1.74,.3,2.3,.21,.56,.49,1,.84,1.33,.29,.27,.59,.47,.92,.6,.34,.12,.7,.18,1.09,.18,.9,0,1.61-.27,2.13-.81,.52-.55,.77-1.33,.77-2.35h0Z"/>
          </g>
          <g id="_7.5" data-name=" 7.5">
            <path id="_5-6" data-name=" 5-6" d="M671,828.87c0,.64-.12,1.25-.35,1.83s-.56,1.07-.97,1.47c-.45,.43-.98,.76-1.6,.99s-1.33,.34-2.15,.34c-.76,0-1.49-.08-2.19-.24-.7-.15-1.3-.34-1.78-.56v-1.94h.13c.51,.32,1.11,.59,1.79,.82,.68,.22,1.36,.33,2.02,.33,.44,0,.87-.06,1.28-.18,.42-.12,.79-.34,1.11-.64,.27-.26,.48-.58,.62-.95s.21-.79,.21-1.28-.08-.87-.25-1.2c-.16-.33-.39-.59-.68-.78-.32-.23-.72-.4-1.18-.49-.46-.1-.98-.15-1.55-.15s-1.08,.04-1.59,.11c-.5,.07-.94,.15-1.31,.22v-7.06h8.36v1.61h-6.56v3.65c.27-.02,.54-.04,.82-.06,.28-.01,.52-.02,.73-.02,.75,0,1.41,.06,1.98,.19,.57,.12,1.09,.34,1.56,.66,.5,.34,.88,.77,1.16,1.31s.41,1.2,.41,2.01h-.02Z"/>
            <path id="_.-5" data-name=" .-5" d="M657.84,833.22h-2.23v-2.62h2.23v2.62Z"/>
            <path id="_7-2" data-name=" 7-2" d="M652.05,821.57l-6.29,11.66h-2l6.69-12.1h-7.91v-1.61h9.51v2.05h0Z"/>
          </g>
          <g id="_8.5" data-name=" 8.5">
            <path id="_5-7" data-name=" 5-7" d="M735.83,828.87c0,.64-.12,1.25-.35,1.83s-.56,1.07-.97,1.47c-.45,.43-.98,.76-1.6,.99s-1.33,.34-2.15,.34c-.76,0-1.49-.08-2.19-.24-.7-.15-1.3-.34-1.78-.56v-1.94h.13c.51,.32,1.11,.59,1.79,.82,.68,.22,1.36,.33,2.02,.33,.44,0,.87-.06,1.28-.18,.42-.12,.79-.34,1.11-.64,.27-.26,.48-.58,.62-.95s.21-.79,.21-1.28-.08-.87-.25-1.2c-.16-.33-.39-.59-.68-.78-.32-.23-.72-.4-1.18-.49-.46-.1-.98-.15-1.55-.15s-1.08,.04-1.59,.11c-.5,.07-.94,.15-1.31,.22v-7.06h8.36v1.61h-6.56v3.65c.27-.02,.54-.04,.82-.06,.28-.01,.52-.02,.73-.02,.75,0,1.41,.06,1.98,.19,.57,.12,1.09,.34,1.56,.66,.5,.34,.88,.77,1.16,1.31s.41,1.2,.41,2.01h-.02Z"/>
            <path id="_.-6" data-name=" .-6" d="M722.67,833.22h-2.23v-2.62h2.23v2.62Z"/>
            <path id="_8-2" data-name=" 8-2" d="M716.95,829.4c0,1.18-.47,2.17-1.41,2.96-.93,.79-2.11,1.18-3.53,1.18-1.51,0-2.71-.38-3.6-1.15-.89-.77-1.33-1.75-1.33-2.95,0-.76,.22-1.45,.67-2.06,.45-.62,1.08-1.11,1.89-1.47v-.06c-.75-.39-1.3-.82-1.66-1.29-.35-.47-.53-1.05-.53-1.75,0-1.03,.43-1.89,1.29-2.58s1.95-1.03,3.27-1.03,2.49,.33,3.32,.99,1.24,1.49,1.24,2.5c0,.62-.2,1.23-.59,1.83-.39,.6-.97,1.06-1.73,1.4v.06c.87,.37,1.54,.82,2,1.36s.69,1.23,.69,2.06h.01Zm-2.21-6.69c0-.66-.26-1.18-.77-1.57s-1.16-.59-1.96-.59-1.43,.18-1.93,.55-.75,.87-.75,1.49c0,.44,.12,.83,.37,1.15,.26,.32,.64,.6,1.15,.86,.23,.11,.56,.25,.99,.43,.44,.18,.86,.33,1.27,.44,.62-.41,1.04-.83,1.28-1.26s.35-.94,.35-1.51h0Zm.29,6.88c0-.56-.13-1.02-.38-1.35-.25-.34-.74-.69-1.47-1.03-.29-.14-.61-.26-.96-.38s-.81-.28-1.39-.49c-.56,.3-1.01,.71-1.35,1.22-.34,.52-.5,1.1-.5,1.75,0,.83,.29,1.51,.87,2.05s1.31,.81,2.2,.81,1.63-.23,2.17-.69c.55-.46,.82-1.09,.82-1.9h-.01Z"/>
          </g>
          <g id="_10.5" data-name=" 10.5">
            <path id="_5-8" data-name=" 5-8" d="M866.54,828.87c0,.64-.12,1.25-.35,1.83s-.56,1.07-.97,1.47c-.45,.43-.98,.76-1.6,.99s-1.33,.34-2.15,.34c-.76,0-1.49-.08-2.19-.24-.7-.15-1.3-.34-1.78-.56v-1.94h.13c.51,.32,1.11,.59,1.79,.82,.68,.22,1.36,.33,2.02,.33,.44,0,.87-.06,1.28-.18,.42-.12,.79-.34,1.11-.64,.27-.26,.48-.58,.62-.95s.21-.79,.21-1.28-.08-.87-.25-1.2c-.16-.33-.39-.59-.68-.78-.32-.23-.72-.4-1.18-.49-.46-.1-.98-.15-1.55-.15s-1.08,.04-1.59,.11c-.5,.07-.94,.15-1.31,.22v-7.06h8.36v1.61h-6.56v3.65c.27-.02,.54-.04,.82-.06,.28-.01,.52-.02,.73-.02,.75,0,1.41,.06,1.98,.19,.57,.12,1.09,.34,1.56,.66,.5,.34,.88,.77,1.16,1.31s.41,1.2,.41,2.01h-.02Z"/>
            <path id="_.-7" data-name=" .-7" d="M853.39,833.22h-2.23v-2.62h2.23v2.62Z"/>
            <path id="_0-2" data-name=" 0-2" d="M847.54,826.36c0,2.46-.39,4.27-1.18,5.42-.78,1.15-1.99,1.72-3.63,1.72s-2.89-.58-3.66-1.75c-.77-1.17-1.15-2.96-1.15-5.38s.39-4.23,1.17-5.39c.78-1.17,1.99-1.75,3.64-1.75s2.88,.59,3.65,1.78c.77,1.18,1.16,2.96,1.16,5.35h0Zm-2.45,4.18c.22-.5,.36-1.08,.44-1.75,.08-.68,.12-1.49,.12-2.43s-.04-1.74-.12-2.43c-.07-.69-.22-1.27-.45-1.75-.22-.47-.52-.83-.9-1.07-.37-.24-.86-.36-1.45-.36s-1.07,.12-1.46,.36c-.38,.24-.68,.6-.9,1.09-.21,.45-.36,1.05-.44,1.78-.07,.73-.11,1.53-.11,2.4,0,.96,.03,1.76,.1,2.4,.07,.64,.21,1.22,.44,1.73,.21,.48,.49,.84,.87,1.1,.38,.25,.88,.38,1.5,.38,.58,0,1.07-.12,1.46-.36s.68-.6,.9-1.09h0Z"/>
            <path id="_1-7" data-name=" 1-7" d="M834.62,833.22h-7.52v-1.4h2.89v-9.19h-2.89v-1.25c.39,0,.81-.03,1.26-.09,.45-.07,.79-.16,1.02-.29,.29-.15,.51-.35,.67-.58,.17-.24,.26-.56,.29-.96h1.45v12.35h2.84v1.4h-.01Z"/>
          </g>
          <g id="_11.5" data-name=" 11.5">
            <path id="_5-9" data-name=" 5-9" d="M930.09,828.87c0,.64-.12,1.25-.35,1.83s-.56,1.07-.97,1.47c-.45,.43-.98,.76-1.6,.99s-1.33,.34-2.15,.34c-.76,0-1.49-.08-2.19-.24-.7-.15-1.3-.34-1.78-.56v-1.94h.13c.51,.32,1.11,.59,1.79,.82,.68,.22,1.36,.33,2.02,.33,.44,0,.87-.06,1.28-.18,.42-.12,.79-.34,1.11-.64,.27-.26,.48-.58,.62-.95s.21-.79,.21-1.28-.08-.87-.25-1.2c-.16-.33-.39-.59-.68-.78-.32-.23-.72-.4-1.18-.49-.46-.1-.98-.15-1.55-.15s-1.08,.04-1.59,.11c-.5,.07-.94,.15-1.31,.22v-7.06h8.36v1.61h-6.56v3.65c.27-.02,.54-.04,.82-.06,.28-.01,.52-.02,.73-.02,.75,0,1.41,.06,1.98,.19,.57,.12,1.09,.34,1.56,.66,.5,.34,.88,.77,1.16,1.31s.41,1.2,.41,2.01h-.02Z"/>
            <path id="_.-8" data-name=" .-8" d="M916.93,833.22h-2.23v-2.62h2.23v2.62Z"/>
            <path id="_1-8" data-name=" 1-8" d="M910.31,833.22h-7.52v-1.4h2.89v-9.19h-2.89v-1.25c.39,0,.81-.03,1.26-.09,.45-.07,.79-.16,1.02-.29,.29-.15,.51-.35,.67-.58,.17-.24,.26-.56,.29-.96h1.45v12.35h2.84v1.4h-.01Z"/>
            <path id="_1-9" data-name=" 1-9" d="M898.16,833.22h-7.52v-1.4h2.89v-9.19h-2.89v-1.25c.39,0,.81-.03,1.26-.09,.45-.07,.79-.16,1.02-.29,.29-.15,.51-.35,.67-.58,.17-.24,.26-.56,.29-.96h1.45v12.35h2.84v1.4h-.01Z"/>
          </g>
        </g>
      </g>
    </g>
    <g id="logo">
      <rect id="background" x="37.51" y="282.95" width="950" height="169.64"/>
      <path id="text-2" data-name="text" class="cls-2" d="M514.28,436.36c-1.66-.89-2.73-2.54-2.73-4.21s.78-3.6,3.05-7.67c3.61-6.46,11.68-22.92,19.61-40.01l1.87-4.03-4.95-.1c-2.96-.06-5.46,.05-6.23,.27-2.03,.59-3.67,2.38-6.96,7.58-3.61,5.69-5.81,7.94-8.54,8.74-1.53,.45-4.87,.5-24.44,.42l-22.66-.09-1.68-.84c-1.8-.9-3-2.37-3.52-4.34-.18-.66-.55-2.06-.84-3.1-.28-1.04-.8-2.25-1.16-2.69-.59-.72-.9-.8-3.48-.8h-2.84l-3.04,2.89c-7.15,6.8-12.13,8.83-21.77,8.84-6.75,0-8.5-.38-10.4-2.28-1.71-1.71-2.25-3.43-2.24-7.08,0-2.46,.17-3.72,.9-6.88,.18-.8,.16-.8-1.77-.6-6.56,.7-13.83,4.14-17.03,8.05-.64,.78-2.63,4-4.42,7.14-10.73,18.83-17.65,26.65-27.25,30.79l-2.67,1.15-136.01,.09c-91.86,.06-136.74-.02-138.27-.25-3.21-.49-5.67-1.5-7.44-3.05-2.93-2.58-4.22-7.02-3.13-10.77,.47-1.61,6.72-13.79,15.85-30.9,1.53-2.87,7.2-14.59,12.6-26.06,11.15-23.67,14.13-29.85,14.47-30.09,.13-.09,1.39-2.46,2.79-5.25l2.54-5.09-.74-.7c-.41-.38-1.5-1.05-2.42-1.47-1.67-.77-1.73-.77-19.25-.87-9.66-.06-17.57-.17-17.57-.25s2.03-3.27,4.5-7.07l4.5-6.93,104.45-.18,104.45-.18-.68,1.81c-.37,.99-1.63,4.23-2.8,7.19l-2.12,5.38-74.13,.17-74.13,.17-1.68,.77c-2.23,1.03-3.38,2.18-4.61,4.58-.56,1.1-1.29,2.38-1.63,2.86-.59,.83-19.35,41.21-23.67,50.99-1.15,2.6-4.22,8.81-6.82,13.79-7.95,15.24-10.17,19.89-10.17,21.35,0,1.69,1.46,3.39,3.62,4.24,1.51,.59,4.15,.62,55.22,.72,29.5,.06,87.45,0,128.78-.12l75.15-.22,1.91-2.02c2.43-2.57,5.04-6.54,6.5-9.9,.63-1.44,1.1-2.67,1.05-2.72-.05-.05-7.86,.05-17.36,.22-11.84,.22-17.78,.2-18.9-.04-2.19-.47-3.55-1.7-4.7-4.25-1.12-2.47-1.91-2.93-4.49-2.61-2.14,.26-3.14,.92-5.12,3.38-2.72,3.36-.93,3.13-24.95,3.22-20.65,.07-21.05,.06-22.96-.63-1.07-.39-2.38-1.02-2.91-1.4-1.07-.76-2.37-3.16-2.37-4.36,0-.74-.08-.77-1.77-.54-2.25,.3-3.24,.93-5.21,3.37-2.78,3.43-1.56,3.24-19.92,3.09-16.13-.13-26.05-.54-29.03-1.22-2.69-.61-3.88-1.25-7.15-3.88-3.8-3.06-6.09-4.54-7.01-4.54-.5,0-1.18,.78-2.47,2.84-2.25,3.58-4.88,6.05-7.21,6.74-2.55,.76-45.01,.77-47.56,0-3.34-.99-4.48-2.64-5.51-7.95-.73-3.76-.83-7.62-.27-9.97,.79-3.31,12.62-28.71,15-32.22,2.82-4.16,6.98-7.14,11.69-8.37,3.08-.81,14.56-1.23,29.08-1.08,13.54,.15,14.15,.21,17.15,1.76,1.96,1.01,3.91,3.12,4.89,5.29,.8,1.77,.95,2.55,.95,4.96,0,1.67-.22,3.56-.53,4.54-.65,2.06-3.03,7.37-5.55,12.39-1.03,2.06-2.37,4.83-2.97,6.14l-1.09,2.4,2.06,1.45c1.13,.8,3.32,2.66,4.86,4.14,2.66,2.55,2.88,2.69,4.35,2.71l1.55,.02,2.58-6.41c3.22-8.02,12.09-26.76,14.14-29.9,2.9-4.43,7.04-7.48,11.91-8.75,2.68-.7,11.82-1.14,24.14-1.15,11.21-.01,11.14-.03,12.36,2.38,1.8,3.53-.5,8.56-4.96,10.84-.92,.47-2.45,.55-10.59,.56-14.25,0-16.61,.4-19.05,3.19-2.08,2.37-11.09,21.49-11.38,24.16-.19,1.75,.83,3.38,2.77,4.39,1.3,.68,1.88,.7,16.48,.79l15.13,.09,9.78-19.92c5.38-10.96,9.65-20.01,9.49-20.12-.27-.18,17.82-43.02,18.66-44.16,.36-.49,1.45-.54,10.18-.46l9.78,.09-3.83,8.57c-2.11,4.72-5.05,11.3-6.54,14.63-1.49,3.33-2.78,6.24-2.88,6.47-.13,.33,2.67,.42,13.33,.42,12.87,0,13.56,.03,14.83,.68,4.67,2.38,2.94,9.79-3.03,12.97-1.05,.56-2.33,.65-11.6,.85-5.73,.12-12.62,.24-15.31,.26l-4.89,.03-3.32,7.14c-1.82,3.93-4.83,10.31-6.68,14.18-3.6,7.54-3.98,8.96-2.83,10.71,.33,.5,1.23,1.25,2.02,1.67,1.42,.76,1.5,.76,18.4,.86l16.98,.1,3-6.82c3.92-8.91,10.19-22.16,12.02-25.41,1.85-3.27,5-6.53,7.38-7.63,3.47-1.62,7.13-.86,8.8,1.83,.57,.92,.73,1.68,.72,3.38-.02,2.07-.23,2.62-3.92,10.42-5.18,10.94-10.01,21.83-10.01,22.56,0,1.29,1.88,1.48,14.12,1.48s13.75-.15,16.54-1.56c1.83-.92,2.62-2.1,6.53-9.71,12.56-24.5,12.12-23.71,14.78-26.3,3.29-3.2,7.68-4.44,10.63-3.01,1.87,.91,2.63,2.18,2.63,4.43,0,2.02-1.46,5.72-6.42,16.21-1.68,3.56-3.13,6.71-3.21,6.98-.14,.44,.86,.49,7.85,.4l8-.1,1.11-1.07c1.32-1.27,3.87-6.22,9.58-18.56,6.45-13.94,11.58-24.84,15.47-32.81,2.92-6.01,3.86-7.61,5.43-9.31,2.23-2.41,4.02-3.53,6.86-4.32,2.81-.78,5.15-.29,6.81,1.42,1.08,1.12,1.15,1.32,1.12,3.43-.02,2.19-.13,2.45-3.89,9.82-9.58,18.76-23.58,50.33-26.65,60.11-1.23,3.91-1.43,5.39-.78,5.64,.72,.28,1.54-.22,5.31-3.22,1.98-1.58,3.92-2.83,4.9-3.15,2.19-.73,5.99-1.19,9.86-1.21h3.19s5.38-11.36,5.38-11.36c2.96-6.24,6.07-12.41,6.92-13.7,2.9-4.43,7.04-7.47,11.91-8.75,3.08-.81,14.56-1.23,29.08-1.08,13.54,.15,14.15,.21,17.15,1.76,1.96,1.01,3.91,3.12,4.89,5.29,.8,1.77,.95,2.55,.95,4.96,0,3.42-.35,4.61-3.29,11.21-1.22,2.74-2.22,5.05-2.22,5.13s3.08,.14,6.85,.14h6.85l.43-1.09c.24-.6,2.51-5.37,5.06-10.6,4.23-8.69,4.81-9.69,6.74-11.7,2.82-2.94,5.87-4.47,9.76-4.9,1.54-.17,12.19-.27,23.65-.22l20.85,.09,1.68,.82c2.36,1.15,5.7,4.57,6.81,6.97,.71,1.53,.91,2.47,.92,4.31,0,2.27-.1,2.59-3.1,9.03-1.71,3.67-3.11,6.74-3.11,6.81s2.16,.13,4.8,.13h4.8l10.1-20.26c19.49-39.09,19.83-39.74,21.47-41.38,4.44-4.44,11.9-4.58,14.42-.28,1.24,2.13,.94,3.28-2.91,10.98-2.95,5.9-9.14,19.42-10.32,22.52l-.33,.86,16.55-.09c15.26-.08,16.69-.04,18.3,.52,1.98,.69,3.61,2.3,3.97,3.93,.53,2.39-.12,3.96-8.58,20.84-4.59,9.15-8.43,16.96-8.55,17.35-.5,1.73,1.68,1.87,5.06,.32,2.63-1.21,4.31-2.64,6.4-5.46,2.28-3.08,4.13-4.24,7.03-4.43l2.06-.13,3.31-6.94q10.47-21.97,14.41-23.93c3.85-1.89,5.48-2.03,26.96-2.24,20.72-.21,22.58-.11,25.64,1.33,1.99,.94,3.75,2.71,4.76,4.8,.65,1.34,.81,2.22,.83,4.52l.02,2.86-3.42,7.06-3.42,7.06,5.6,.1c7.92,.14,11.39-.6,13.1-2.77,.37-.46,3.22-5.17,6.34-10.46,6.1-10.34,7.7-12.41,10.69-13.8l1.7-.79h21.65c15.62,0,22.02,.1,22.97,.39,1.74,.52,3.79,2.61,4.45,4.55,.61,1.8,.69,5.06,.16,6.96-.2,.72-3.53,8.2-7.4,16.61-3.87,8.41-7.03,15.43-7.03,15.58s3.46,.28,7.69,.28h7.69l1.53-3.45c2.07-4.65,2.92-6.88,2.92-7.62,0-.84-.89-1.03-4.82-1.03-3.2,0-3.33-.04-4.29-.99-1.58-1.58-1.24-4.19,.86-6.68,1.71-2.03,3.17-2.52,8.25-2.76,4.84-.23,6.69-.75,7.54-2.15,.24-.39,1.85-3.43,3.58-6.76,4.45-8.56,6.77-10.72,13.09-12.19,2.3-.54,5.3-.59,35.13-.59,35.1,0,34-.05,36.4,1.74,3.78,2.82,2.15,8.16-3.26,10.66-1.51,.7-1.9,.71-32.63,.88-29.59,.16-31.16,.2-32.26,.8-.64,.35-1.43,.95-1.76,1.34-.8,.94-2.49,3.88-2.78,4.83l-.23,.75,30.53,.09c29.26,.09,30.59,.12,31.82,.73,1.77,.88,2.49,2.41,1.96,4.17-.63,2.09-2.79,4.25-5.69,5.68l-2.57,1.27-30.31,.17c-25.71,.14-30.4,.24-30.9,.65-1.38,1.14-3.67,6.95-3.49,8.83l.11,1.11,6.89,.31c9.23,.41,35.93-.24,40.18-.97,1.66-.29,5.71-1.06,8.98-1.72,5.03-1.01,6.14-1.14,7.1-.82,4.39,1.45,3.32,8.14-2.21,13.82-3.1,3.18-5.45,4.39-9.7,4.98-1.59,.22-20.48,.37-52.32,.41-48.74,.06-49.84,.05-50.94-.59-1.64-.95-2.74-3.16-2.74-5.47,0-2.08,.35-2.93,8.86-21.21,5.64-12.12,6.25-14.2,4.52-15.34-.78-.51-1.77-.54-10.17-.32-10.66,.27-11.07,.37-13.77,3.15-1.73,1.78-3.25,4.37-12.97,22.07-7.16,13.05-8.47,14.86-12.07,16.65l-2.05,1.02h-6.86c-7.93,0-9.38-.26-11.19-1.98-3.22-3.06-2.07-8.19,2.38-10.61,1.65-.9,2.2-1.01,5.99-1.18l4.17-.19,1.02-1.81,1.02-1.81-6.36,.18c-3.5,.1-7.06,.36-7.92,.58-2.41,.63-3.75,2-6.6,6.8-3.12,5.26-4.47,6.87-6.85,8.16-3.6,1.96-3.64,1.96-26.6,2.11-18.42,.12-21.35,.07-23.16-.4-3.74-.96-6.41-3.69-7.57-7.75-.56-1.95-.72-2.18-1.48-2.18-1.78,0-3.8,1.52-6.72,5.06-4.31,5.22-3.73,5.03-15.43,5.02-8.6,0-9.76-.07-10.97-.62-3.95-1.79-4.65-6.19-1.85-11.57,.79-1.52,4.31-8.11,7.83-14.65,3.96-7.37,6.45-12.38,6.56-13.18,.15-1.11,.03-1.44-.85-2.32l-1.02-1.02h-9.86s-9.86,0-9.86,0l-2.99,5.63c-8.23,15.48-16.45,30.14-18.61,33.19-2.08,2.93-5.72,4.56-10.15,4.54-2.98,0-4.8-.69-6.17-2.32-1.67-1.99-1.39-3,2.82-10.13,3.25-5.51,3.29-5.02-.42-5.02-1.73,0-3.72,.16-4.43,.36-1.79,.5-3.5,2.34-6.77,7.3-3.57,5.43-5.12,6.62-11.28,8.68l-2.86,.96-15.74,.11c-18.56,.13-17.9,.23-21.37-3.16-1.2-1.17-2.21-2.09-2.25-2.05-.04,.04-1.96,4.24-4.27,9.32-5.57,12.27-9.99,21.57-12.3,25.89-3.37,6.28-7.37,9.3-12.77,9.65-2.25,.14-2.75,.07-4.05-.63h0Zm-334.69-53.23c2.54-.76,4.11-2.68,6.84-8.36,4.4-9.19,7.72-17.84,7.72-20.11,0-1.09-.22-1.57-1.14-2.49l-1.14-1.14h-10.2c-15,.01-17.27,.38-19.74,3.2-1.98,2.26-11.02,21.31-11.38,23.99-.29,2.17,1.14,4.08,3.77,5.01,.63,.22,5.25,.37,12.3,.38,9.12,.02,11.61-.07,12.99-.48h0Zm322.78,0c2.54-.76,4.11-2.68,6.84-8.36,4.4-9.19,7.72-17.84,7.72-20.11,0-1.09-.22-1.57-1.14-2.49l-1.14-1.14h-10.2c-15,.01-17.27,.38-19.74,3.2-1.98,2.26-11.02,21.31-11.38,23.99-.29,2.17,1.14,4.08,3.77,5.01,.63,.22,5.25,.37,12.3,.38,9.12,.02,11.61-.07,12.99-.48h0Zm83.56-.6c2.1-1.23,3.25-2.99,6.34-9.65,6.32-13.63,7.76-18.59,5.98-20.64-1.22-1.41-3.83-1.64-15.42-1.38-12.43,.28-13.54,.49-15.76,3.03-1.72,1.96-10.5,20.08-11.46,23.67-.6,2.21,.59,4.24,3.19,5.46,1.25,.59,2.21,.62,13.45,.54l12.1-.09,1.59-.93Zm153.28,.73c2.95-.63,4.11-2.13,8.36-10.81,2.01-4.11,4.3-8.99,5.08-10.84,2.32-5.48,1.94-8.57-1.23-10.08-1.09-.52-2.38-.56-12.87-.43-9.85,.12-11.93,.23-13.44,.72-2.66,.87-4.02,2.45-6.57,7.66-2.82,5.76-7.51,16.43-7.96,18.1-.59,2.19,.62,4.24,3.19,5.42,1.22,.56,2.37,.62,12.51,.63,6.96,0,11.82-.13,12.91-.37h0Z"/>
    </g>
  </g>
</svg>