<?xml version="1.0" encoding="UTF-8"?>
<svg id="svg2" xmlns="http://www.w3.org/2000/svg" viewBox="0 0 3548.03 542.48">
  <defs>
    <style>
      .cls-1 {
        fill: #fff;
      }
    </style>
  </defs>
  <g id="g8">
    <g id="g917">
      <path id="path919" class="cls-1" d="M1798.96,540.39c-5.68-2.9-8.26-8.05-8.26-16.46,0-5.74,1.29-9.17,8.68-23.07,21.05-39.6,44.18-86.83,82.35-168.13q7.45-15.86-19.7-15.27c-28.48,.63-30.8,2.14-50.18,32.7-13.54,21.34-22.75,31-32.03,33.55-4.29,1.18-29.4,1.49-97.12,1.21-88.26-.37-91.51-.48-96.65-3.05-6.94-3.48-10.52-9.09-13.39-20.97-2.72-11.29-6.33-19.08-9.66-20.86-4.11-2.2-12.12-3.16-18.45-2.21-5.36,.8-7.7,2.4-18.67,12.72-29.84,28.09-52.41,36.19-94.99,34.11-24.11-1.18-30.04-3.77-35.23-15.39-3.2-7.15-3.61-24.74-.92-39.74,.95-5.32,1.28-10.12,.74-10.67-3.21-3.2-30.06,2.52-45.89,9.79-12.31,5.65-25.34,14.89-31.34,22.23-2.54,3.11-10.44,15.86-17.54,28.32-35.17,61.72-58.38,91.38-85.92,109.8-16.59,11.1-27.34,15.15-42.11,15.89-19.91,.99-26.85-3.81-25.69-17.77,.54-6.55,1.27-8.05,6.5-13.41,3.24-3.32,9.79-8.2,14.55-10.84,19.77-10.97,32.19-22.17,44.01-39.69,6.63-9.83,17.32-30.68,17.32-33.79,0-3.76-6.39-4-73.34-2.79-48.44,.88-70.07,.82-73.9-.2-7.33-1.95-11.07-5.67-15.49-15.43-4.27-9.43-7.34-11.61-16.19-11.5-9.23,.12-17.21,4.57-23.74,13.21-10.08,13.35-4.81,12.5-78,12.53-35.2,.01-65.38,.39-67.07,.85-2.46,.66-6.4,7.63-19.71,34.85-15.54,31.79-17.19,34.57-25.12,42.34-5.83,5.72-10.92,9.3-16.29,11.46l-7.81,3.15-339.33,.41c-349.54,.42-389.15-.04-403.29-4.65-9.43-3.08-19.79-13.69-22.6-23.13-2.68-9.03-2.54-21.55,.33-29.37,2.73-7.44,52.74-103.01,56.83-108.59,2.64-3.6,47.4-95.4,47.4-97.21,0-1.27,29.83-68.43,38.47-86.62,4.48-9.44,7.84-17.67,7.46-18.28-2.6-4.2-43.58-6.94-58.01-3.87-15.92,3.38-22.93,11.76-45.83,54.79-7.96,14.95-15.88,29.42-17.6,32.15l-3.13,4.96-36.34,.38c-19.99,.21-36.63,.18-36.99-.05s1.35-4.13,3.78-8.67c2.44-4.53,15.34-29.54,28.67-55.57,26.88-52.5,31.17-59.63,41.59-69.15,13.1-11.97,9.05-11.49,97.94-11.67,42.9-.09,169.95-.63,282.33-1.2,112.38-.58,204.33-.56,204.33,.03s-6.67,12.39-14.83,26.2l-14.83,25.12h-164.26c-112.8,0-166.72,.46-172.12,1.45-9.44,1.75-18.7,6.26-23.45,11.42-4.24,4.62-22.52,39.16-22.52,42.56,0,2.97-22.37,57.76-24.73,60.56-.93,1.1-10.78,21.8-21.89,46s-29.71,62.9-41.33,86-21.52,43.89-22,46.2c-1.93,9.32,5.94,18.74,19.04,22.79,7.14,2.21,25.01,2.34,306.24,2.34s299.12-.11,309.33-2.47c16.25-3.76,22.7-7.82,29.76-18.72,3.27-5.05,8.56-14.31,11.76-20.58,5.37-10.52,5.82-12.19,5.82-21.61,0-6.56,.91-12.84,2.53-17.57,1.39-4.05,16.39-35.6,33.33-70.12s30.8-63.67,30.8-64.78c0-1.24-1.69-2.35-4.33-2.84-2.38-.44-40.03-.58-83.67-.31-85.36,.54-86.65,.64-98.11,7.73-8.25,5.1-15.94,19.23-39.33,72.3-10.82,24.54-12.75,30.69-11.37,36.19,1.2,4.77,7.06,11.16,13.31,14.5,5.38,2.88,6.82,2.96,65.81,3.61l60.31,.67,4.24,4.24c7.93,7.94,6.46,23.05-3.38,34.69-5.63,6.66-15.73,10.87-28.15,11.75-12.45,.88-145.35-1.47-183.33-3.24-33.66-1.57-38.26-2.94-55.08-16.47-13.64-10.97-19.23-14.32-23.86-14.29-4.09,.03-5.18,.91-10.1,8.14-6.14,9.03-16.56,17.86-23.23,19.7-4.23,1.16-29.77,1.48-97.07,1.19-88.26-.37-91.51-.48-96.65-3.05-6.94-3.48-10.52-9.09-13.39-20.97-2.14-8.89-5.04-15.84-8.78-21.06-1.13-1.57,.52-7.67,7.19-26.67,6.45-18.36,14.61-36.93,32.09-72.98,12.89-26.59,25.19-50.89,27.33-54,5.16-7.48,16.75-18.31,24.21-22.62,16.92-9.77,36.34-11.58,124.67-11.64,66.21-.05,73.22,1.03,86.42,13.19,9.18,8.47,12.19,16.59,12.1,32.75-.08,16.58-.14,16.73-24.35,67.49-10.36,21.72-18.84,40.42-18.84,41.55s2.55,4.04,5.67,6.46,10.23,8.78,15.8,14.15c12.66,12.18,19.47,14.48,32.32,10.91,4.42-1.23,5.54-2.38,8.23-8.46,1.71-3.87,3.78-9.52,4.6-12.56,3.7-13.73,12.73-33.8,52.76-117.19,14.35-29.9,22.75-37.28,47.58-41.81,5.64-1.03,41.55-1.71,109.72-2.07,55.73-.3,103.34-.86,105.79-1.26,4.97-.8,6.58-3.7,18.45-33.17,3.24-8.04,10.61-24.84,16.38-37.33s14.82-32.62,20.12-44.72c5.29-12.1,10.76-24.25,12.14-27l2.51-5h36.78c28.89,0,36.64,.36,36.13,1.67-1.88,4.78-41.03,91.95-51.49,114.67-10.63,23.07-13.14,29.57-11.8,30.58,.18,.14,19.94,.59,43.91,1,41.49,.71,43.75,.88,47.33,3.53,2.07,1.53,4.63,5.25,5.69,8.26,1.74,4.92,1.69,6.23-.44,12.99-2.8,8.89-9.4,16.71-17.34,20.55-5.38,2.61-7.98,2.75-51.58,2.76-25.25,.01-47.19,.36-48.76,.78-2.18,.59-6.65,8.74-19.16,34.98-8.97,18.82-17.73,37.52-19.45,41.55-6.09,14.22-3.12,23.02,9.83,29.09l7.63,3.58,62.67,.42c34.47,.23,64.49,.08,66.71-.34,3.83-.72,4.7-2.24,16.56-29.09,17.47-39.56,41.46-90.02,48.21-101.41,6.86-11.58,18.95-24.03,26.78-27.58,7.96-3.61,21.25-3.6,27.11,.02,6.42,3.97,9.11,10.64,8.3,20.63-.56,7-2.94,13.04-16.11,40.9-22.42,47.42-38.5,83.99-38.53,87.61-.07,7.69,7.49,8.84,58.31,8.84,38.6,0,45.05-.29,52.59-2.43,11.28-3.2,17.66-6.55,21.78-11.45,1.85-2.2,11.3-19.48,21-38.39,42.37-82.63,44.17-85.87,52.86-95.09,11.4-12.1,18.12-15.31,32.03-15.31,10.26,0,11.16,.24,15,3.92,3.73,3.57,4.09,4.67,4.09,12.47,0,9.79-4.22,20.78-25.33,65.89-6.6,14.12-12.01,26.76-12.01,28.1,0,2.29,1.82,2.4,32.6,2.03l32.6-.4,4.81-4.66c6.09-5.91,14.95-23.37,48.39-95.34,33.65-72.42,62.07-131.64,65.81-137.11,4.43-6.48,13.29-15.5,18.47-18.81,10.78-6.88,25.07-9.23,33.82-5.58,7.16,2.99,10.18,7.98,10.18,16.81,0,7.08-1.11,9.83-15.74,38.82-45.27,89.71-98.23,210.49-107.51,245.14-3.36,12.55-2.81,17.39,1.96,17.39,4.02,0,6.84-1.76,21.27-13.26,16.12-12.84,21.42-14.53,49.99-15.87,11.31-.53,20.83-1.25,21.15-1.59,.32-.34,10.24-20.96,22.04-45.83,23.53-49.56,28.58-58.3,39.9-69.08,16.09-15.32,28.13-19.39,62.27-21.09,33.6-1.67,126.07-1.58,136.66,.14,22.84,3.71,36.21,17.41,38.25,39.21,1.19,12.71-1.4,22.98-11.68,46.36-5.08,11.55-9.23,21.83-9.23,22.84s1.35,2.2,3,2.64c3.75,1.01,47.36,1.07,51.06,.07,1.94-.52,4.99-5.61,10.58-17.65,4.32-9.3,13.51-28.28,20.41-42.17,10.6-21.33,13.81-26.57,20.67-33.71,9.93-10.34,20.91-16.11,33.8-17.77,5.03-.65,47.3-1.2,93.93-1.22l84.79-.04,8.18,4.09c10.5,5.25,21.8,17.48,25.68,27.79,2.12,5.63,2.67,9.58,2.27,16.13-.46,7.5-2.09,12.04-12.12,33.71-6.37,13.78-11.59,25.9-11.59,26.94,0,1.1,1.9,2.25,4.51,2.74,4.99,.94,34.91,.33,35.9-.72,.34-.37,27.36-54.14,60.03-119.49,50.96-101.92,60.26-119.67,65.4-124.81,7.1-7.1,12.85-10.04,23.5-12.02,19.73-3.67,35.59,7.18,32.73,22.39-.47,2.51-6.79,16.42-14.03,30.91-12.6,25.19-41.37,88.51-41.37,91.04,0,3.74,6.61,4.06,66.35,3.17,54.59-.81,61.9-.67,69.65,1.33,5.86,1.51,9.96,3.52,12.67,6.21,3.74,3.72,4,4.63,4,14.04v10.06l-33.67,66.91c-18.52,36.8-33.67,68.19-33.67,69.75,.01,7.33,8.97,8.13,22.12,1.97,11.92-5.58,18.25-10.86,26.68-22.25,8.89-12.02,13.96-15.25,26.04-16.57,5.13-.56,9.54-1.25,9.82-1.52,.27-.27,7.51-15.19,16.07-33.15,36.01-75.5,34.6-72.8,42.22-80.43,8.06-8.06,16.55-11.89,32.09-14.48,6.75-1.12,34.82-1.62,93.76-1.67l84.13-.07,9.21,4.68c14.86,7.55,21.28,19.54,20.31,37.95-.46,8.69-1.46,11.36-13.65,36.59-12.38,25.6-13.01,27.32-10.71,29,3.41,2.49,40.83,2.4,52.79-.14,10.57-2.24,18.58-6.1,22.19-10.68,1.45-1.84,12.76-20.51,25.13-41.48,23.56-39.95,30.7-49.35,41.07-54.06,5.09-2.31,10.74-2.46,93.33-2.49,85.18-.03,88.08,.05,93.41,2.63,6.05,2.93,10.05,7.6,12.44,14.54,2.01,5.83,2.02,23.74,.01,29.6-.85,2.49-13.75,31.13-28.67,63.64-14.91,32.51-27.12,60.19-27.12,61.51s1.3,2.75,3,3.2c3.85,1.03,54.06,1.05,57.9,.03,4.51-1.21,22.27-41.64,20.79-47.32-.92-3.5-8.19-5.18-22.48-5.19-15.3,0-17.19-1.48-16.26-12.65,.74-8.98,5.62-15.87,14.42-20.36,4.93-2.52,8.02-3,19.26-3.02,14.06-.02,24.54-2.06,30.46-5.94,2.34-1.54,7.7-10.37,15.9-26.22,6.8-13.15,14.48-26.72,17.06-30.17,6.38-8.51,16.34-15.78,25.97-18.96,15.44-5.11,28.39-5.53,157.33-5.1,117.47,.38,124.3,.53,129.67,2.88,8.23,3.6,12.33,9.03,12.33,16.33,0,8.01-2.59,13.67-8.7,19.04-10.67,9.37-1.56,8.74-137.3,9.48l-122.67,.67-6.43,2.97c-3.53,1.63-7.59,4.33-9.02,6-6.64,7.78-13.75,23.37-11.56,25.33,.18,.16,55.23,.61,122.33,1,113.37,.65,122.31,.87,126.31,3.06,12.12,6.62,3.92,25.1-15.35,34.59l-8.9,4.38-119.36,.67c-102.68,.57-119.92,.95-123.36,2.67-4.7,2.36-11.32,13.83-15.36,26.61-3.25,10.27-2.54,15.64,2.28,17.48,5.5,2.09,76.64,2.92,124.42,1.45,47.31-1.45,55.36-2.37,96.67-10.94,27.93-5.8,34.29-4.49,36.07,7.42,1.84,12.29-5.86,28.45-20.39,42.81-9.27,9.15-20.27,14.62-33.01,16.39-5.64,.79-88.26,1.41-208.91,1.58-184.34,.26-199.84,.11-202.97-1.94-5.45-3.57-8.02-9.82-8.03-19.53-.01-9.64-.41-8.69,35.28-85.33,23.14-49.69,24.9-57.52,14.02-62.06-5.19-2.17-23.92-2.41-57.38-.74-23.07,1.15-27.56,2.74-37.89,13.38-6.66,6.87-12.83,17.38-51.22,87.32-27.74,50.55-33.74,58.96-46.55,65.35-6.76,3.37-7.32,3.42-36.99,3.42s-30.42-.15-35.99-3c-8.5-4.34-11.36-8.91-11.35-18.1,.02-9.15,3.27-16.37,9.5-21.13,7-5.34,13.38-6.98,27.4-7.04,7.1-.03,14.32-.59,16.04-1.25,1.75-.67,4.81-4.28,6.95-8.21,3.71-6.82,3.75-7.07,1.29-8.95-3.35-2.56-44.33-1.39-55.07,1.56-10.89,3-15.62,7.71-27.64,27.55-13.71,22.63-18.45,28.07-28.86,33.15-12.47,6.08-23.2,6.73-111.06,6.74-65.39,0-79.88-.32-85.35-1.95-12.91-3.83-20.95-12.59-25.96-28.28-3.27-10.23-5.05-11.74-11.65-9.84-7.48,2.15-13.28,6.97-24.28,20.18-6.23,7.49-13.42,14.73-15.98,16.09-4.22,2.25-8.21,2.48-43.71,2.48-42.26,0-44.58-.33-50.98-7.27-3.05-3.31-3.33-4.64-3.33-15.92,0-14.32-3.97-5.52,36.3-80.51,27.25-50.76,28.47-53.87,23.86-60.91-4.45-6.79-8.23-7.39-46.45-7.37-19.27,.01-36.25,.34-37.72,.74-1.84,.49-6.64,8.16-15.24,24.32-31.42,59.04-63.68,116.72-72.23,129.14-8.5,12.35-20.25,17.79-38.45,17.79-13.28,0-17.71-1.22-23.07-6.33-2.9-2.77-3.67-4.71-3.67-9.3,0-6.51,1.17-9.06,14.54-31.7,5.2-8.8,9.45-16.98,9.46-18.18,0-2.79-3.83-3.78-14.75-3.8-12.51-.03-21.64,3.04-28.02,9.42-2.91,2.91-10.39,13.04-16.62,22.5-13.23,20.1-19.17,24.93-39.55,32.2l-12.39,4.42-64,.46c-48.47,.35-65.46,.06-70-1.21-4.34-1.21-8.38-4-14.62-10.08-4.74-4.62-9.28-8.4-10.1-8.4s-8.89,16.35-17.95,36.33c-21.04,46.4-41.99,90.51-50.22,105.75-7.88,14.57-18.13,25.35-29.11,30.58-10.22,4.88-27.97,6.15-35.07,2.52h0ZM437.84,333.37c10.17-3.37,16.33-10.99,27.6-34.17,11.91-24.48,22.33-49.08,28.13-66.39,4.44-13.25,4.35-18.19-.46-24.3-5.39-6.85-8.46-7.31-48.7-7.28-55.9,.04-68.12,2.13-78.35,13.46-7.13,7.89-41.96,79.43-46.03,94.53-2.75,10.23,4.69,20.6,17.79,24.77,7.62,2.43,92.4,1.9,100.02-.62h0Zm1314.67,0c10.17-3.37,16.33-10.99,27.6-34.17,11.91-24.48,22.33-49.08,28.13-66.39,4.44-13.25,4.35-18.19-.46-24.3-5.39-6.85-8.46-7.31-48.7-7.28-55.9,.04-68.12,2.13-78.35,13.46-7.13,7.89-41.96,79.43-46.03,94.53-2.75,10.23,4.69,20.6,17.79,24.77,7.62,2.43,92.4,1.9,100.02-.62h0Zm329.6-2.19c5.77-2.95,9.16-5.88,12.71-10.96,5.8-8.31,21.87-42.49,33.38-71.02,6.98-17.31,8.35-22,8.42-28.9,.06-6.36-.55-9.09-2.71-12-5.43-7.32-8.96-7.79-55.87-7.44-53.66,.4-61.33,1.81-71.16,13.01-8.41,9.58-45.15,87.17-46.39,97.99-.76,6.61,2.35,12.71,8.97,17.61,8.17,6.05,11.36,6.37,59.35,6.04l45.43-.32,7.87-4.03Zm611.73,2.18c10.31-3.38,15.72-10.94,32.78-45.84,19.43-39.73,25.87-55.57,25.9-63.74,.03-7.54-4.04-14.58-10.89-18.84-4.89-3.04-5.31-3.07-49.6-3.07-48.01,0-54.12,.65-65.08,6.92-9.2,5.26-15.93,17.41-40.5,73.08-12.17,27.56-13.52,33.77-8.87,40.54,3.86,5.61,8.36,9.02,15.2,11.51,7.01,2.55,93.02,2.07,101.06-.57h0Z"/>
    </g>
  </g>
</svg>