<?xml version="1.0" encoding="UTF-8"?>
<svg id="stylophone" xmlns="http://www.w3.org/2000/svg" xmlns:xlink="http://www.w3.org/1999/xlink" viewBox="0 0 631.04 371.02">
  <defs>
    <style>
      .cls-1, .cls-2 {
        fill: #fff;
      }

      .cls-3 {
        stroke-width: 2.5px;
      }

      .cls-3, .cls-4 {
        fill: none;
        stroke: #e6e6e6;
      }

      .cls-5 {
        fill: #e6e6e6;
      }

      .cls-5, .cls-6, .cls-7, .cls-2, .cls-8 {
        stroke: #000;
      }

      .cls-9 {
        stroke: url(#Degradado_sin_nombre_2);
      }

      .cls-10 {
        stroke: #1a1a1a;
      }

      .cls-10, .cls-7 {
        stroke-width: 1.02px;
      }

      .cls-10, .cls-8 {
        fill: #1a1a1a;
      }

      .cls-4 {
        stroke-width: 1.5px;
      }
    </style>
    <linearGradient id="Degradado_sin_nombre_2" data-name="Degradado sin nombre 2" x1="588.64" y1="-165.9" x2="568.58" y2="-150.86" gradientTransform="translate(-60.01 269.71) scale(1 -1)" gradientUnits="userSpaceOnUse">
      <stop offset="0" stop-color="#000"/>
      <stop offset="1" stop-color="#000" stop-opacity="0"/>
    </linearGradient>
  </defs>
  <g id="body">
    <rect id="outter" class="cls-7" x=".51" y=".51" width="630.03" height="370" rx="10" ry="10"/>
    <rect id="inner" class="cls-10" x="6.55" y="5.51" width="617.94" height="360" rx="5" ry="5"/>
  </g>
  <g id="keyboard">
    <rect id="base" class="cls-1" x="6.67" y="243.35" width="618" height="121.5" rx="5" ry="5"/>
    <path id="frame" class="cls-2" d="M164.96,263.35l-35.17,26v49h472.25c.04-16.33,.08-32.67,.12-49-11.67-8.67-23.33-17.33-35-26H164.96Z"/>
    <g id="keys">
      <g id="naturals">
        <polygon id="key-12" class="cls-5" points="566.1 263.49 567.03 263.49 602.03 289.39 602.03 338.21 566.1 338.21 566.1 263.49"/>
        <rect id="key-11" class="cls-5" x="526.17" y="263.35" width="40" height="75"/>
        <rect id="key-10" class="cls-5" x="486.17" y="263.35" width="40" height="75"/>
        <rect id="key-9" class="cls-5" x="446.17" y="263.35" width="40" height="75"/>
        <rect id="key-8" class="cls-5" x="406.17" y="263.35" width="40" height="75"/>
        <rect id="key-7" class="cls-5" x="366.17" y="263.35" width="40" height="75"/>
        <rect id="key-6" class="cls-5" x="326.17" y="263.35" width="40" height="75"/>
        <rect id="key-5" class="cls-5" x="286.17" y="263.35" width="40" height="75"/>
        <rect id="key-4" class="cls-5" x="246.17" y="263.35" width="40" height="75"/>
        <rect id="key-3" class="cls-5" x="206.17" y="263.35" width="40" height="75"/>
        <rect id="key-2" class="cls-5" x="166.1" y="263.35" width="40" height="75"/>
        <polygon id="key-1" class="cls-5" points="166.1 263.35 165.17 263.35 130.17 289.35 130.17 338.35 166.1 338.35 166.1 263.35"/>
      </g>
      <g id="accidentals">
        <polyline id="key-11.5" class="cls-5" points="566.67 263.35 585.89 277.63 585.89 293.35 580.89 298.35 550.89 298.35 545.89 293.35 545.89 263.35 566.67 263.35 558.17 263.35"/>
        <polyline id="key-10.5" class="cls-5" points="505.89 263.35 505.89 293.35 510.89 298.35 540.89 298.35 545.89 293.35 545.89 263.35 505.89 263.35 505.89 263.35"/>
        <polyline id="key-8.5" class="cls-5" points="425.79 263.35 425.79 293.35 430.79 298.35 460.79 298.35 465.79 293.35 465.79 263.35 425.79 263.35 425.79 263.35"/>
        <polyline id="key-7.5" class="cls-5" points="385.79 263.35 385.79 293.35 390.79 298.35 420.79 298.35 425.79 293.35 425.79 263.35 385.79 263.35 385.79 263.35"/>
        <polyline id="key-6.5" class="cls-5" points="345.64 263.35 345.64 293.35 350.64 298.35 380.64 298.35 385.64 293.35 385.64 263.35 345.64 263.35 345.64 263.35"/>
        <polyline id="key-4.5" class="cls-5" points="265.66 263.35 265.66 293.35 270.66 298.35 300.66 298.35 305.66 293.35 305.66 263.35 265.66 263.35 265.66 263.35"/>
        <polyline id="key-3.5" class="cls-5" points="225.69 263.35 225.69 293.35 230.69 298.35 260.69 298.35 265.69 293.35 265.69 263.35 225.69 263.35 225.69 263.35"/>
        <polyline id="key-1.5" class="cls-5" points="165.17 263.35 145.95 277.63 145.95 293.35 150.95 298.35 180.95 298.35 185.95 293.35 185.95 263.35 165.17 263.35 173.67 263.35"/>
      </g>
    </g>
    <path id="shadow" class="cls-9" d="M130.17,333.29l467,1.06v-49l4.5,3.56v49.32H130.17v-4.93Z"/>
    <g id="controls">
      <g id="label">
        <rect class="cls-6" x="35.17" y="254.35" width="55" height="100"/>
        <rect class="cls-1" x="40.17" y="269.35" width="45" height="70"/>
      </g>
      <g id="text">
        <g id="off">
          <path id="f" class="cls-1" d="M66.83,264.69v-5.73h3.86v.68h-3.11v1.77h2.69v.68h-2.69v2.6h-.76Z"/>
          <path id="f-2" data-name="f" class="cls-1" d="M61.94,264.69v-5.73h3.86v.68h-3.11v1.77h2.69v.68h-2.69v2.6h-.76Z"/>
          <path id="o" class="cls-1" d="M55.45,261.91c0-.95,.26-1.69,.77-2.23,.51-.54,1.17-.81,1.98-.81,.53,0,1.01,.13,1.43,.38,.42,.25,.75,.61,.97,1.06,.22,.45,.34,.96,.34,1.54s-.12,1.1-.35,1.56c-.23,.46-.57,.81-1,1.04-.43,.23-.89,.35-1.39,.35-.54,0-1.02-.13-1.45-.39-.42-.26-.75-.62-.96-1.07-.22-.45-.33-.93-.33-1.43Zm.78,.01c0,.69,.18,1.23,.55,1.63,.37,.4,.84,.59,1.4,.59s1.04-.2,1.41-.6c.37-.4,.55-.97,.55-1.71,0-.47-.08-.87-.24-1.22-.16-.35-.39-.62-.69-.81-.3-.19-.64-.29-1.02-.29-.54,0-1,.18-1.39,.55-.39,.37-.58,.98-.58,1.84Z"/>
        </g>
        <g id="on">
          <path id="n" class="cls-1" d="M63.93,350.01v-5.73h.78l3.01,4.5v-4.5h.73v5.73h-.78l-3.01-4.5v4.5h-.73Z"/>
          <path id="o-2" data-name="o" class="cls-1" d="M57.48,347.22c0-.95,.26-1.69,.77-2.23,.51-.54,1.17-.81,1.98-.81,.53,0,1.01,.13,1.43,.38,.42,.25,.75,.61,.97,1.06,.22,.45,.34,.96,.34,1.54s-.12,1.1-.35,1.56c-.23,.46-.57,.81-1,1.04-.43,.23-.89,.35-1.39,.35-.54,0-1.02-.13-1.45-.39-.42-.26-.75-.62-.96-1.07-.22-.45-.33-.93-.33-1.43Zm.78,.01c0,.69,.18,1.23,.55,1.63,.37,.4,.84,.59,1.4,.59s1.04-.2,1.41-.6c.37-.4,.55-.97,.55-1.71,0-.47-.08-.87-.24-1.22-.16-.35-.39-.62-.69-.81-.3-.19-.64-.29-1.02-.29-.54,0-1,.18-1.39,.55-.39,.37-.58,.98-.58,1.84Z"/>
        </g>
        <g id="power">
          <path id="r" d="M63.75,320.27h-.67l-1.3-1.54h-.73v1.54h-.52v-3.88h1.09c.23,0,.43,.02,.59,.05,.16,.03,.3,.08,.42,.16,.14,.09,.25,.2,.33,.34,.08,.13,.12,.3,.12,.51,0,.28-.07,.51-.21,.7-.14,.19-.33,.33-.58,.42l1.46,1.7Zm-1.21-2.79c0-.11-.02-.21-.06-.29-.04-.09-.1-.16-.19-.22-.07-.05-.16-.09-.27-.1-.1-.02-.22-.03-.36-.03h-.61v1.46h.52c.16,0,.31-.01,.43-.04,.12-.03,.22-.08,.31-.16,.08-.07,.14-.16,.17-.25,.04-.1,.06-.22,.06-.36h0Z"/>
          <path id="e" d="M63.09,313.6h-2.55v-3.88h2.55v.46h-2.04v1.06h2.04v.46h-2.04v1.44h2.04v.46Z"/>
          <path id="w" d="M65.05,303.06l-1.01,3.88h-.58l-.82-3.22-.8,3.22h-.57l-1.03-3.88h.53l.82,3.22,.8-3.22h.52l.81,3.26,.81-3.26h.51Z"/>
          <path id="o-3" data-name="o" d="M63.43,296.84c.16,.17,.28,.39,.36,.64,.09,.25,.13,.54,.13,.86s-.04,.61-.13,.86c-.09,.25-.2,.46-.36,.63-.16,.18-.35,.31-.57,.4-.22,.09-.47,.13-.74,.13s-.52-.05-.74-.14c-.22-.09-.41-.22-.57-.39s-.28-.38-.36-.63c-.08-.25-.13-.54-.12-.86,0-.32,.04-.6,.12-.85,.08-.25,.2-.47,.36-.65,.15-.17,.34-.3,.57-.39,.23-.09,.47-.14,.74-.14s.53,.05,.75,.14c.22,.09,.41,.22,.57,.39h0Zm-.05,1.49c0-.5-.11-.89-.34-1.16-.23-.27-.53-.41-.92-.41s-.7,.14-.93,.41c-.22,.27-.34,.66-.34,1.16s.11,.9,.34,1.17c.23,.27,.54,.4,.92,.4s.69-.13,.92-.4c.23-.27,.34-.66,.34-1.17Z"/>
          <path id="p" d="M63.07,290.9c0,.17-.03,.33-.09,.48-.06,.15-.14,.27-.25,.38-.13,.13-.29,.23-.47,.3-.18,.07-.41,.1-.69,.1h-.52v1.45h-.52v-3.88h1.05c.23,0,.43,.02,.59,.06,.16,.04,.3,.1,.43,.18,.15,.1,.26,.22,.34,.37,.08,.15,.12,.33,.12,.56h0Zm-.54,.01c0-.13-.02-.25-.07-.35-.05-.1-.12-.18-.21-.24-.08-.05-.18-.09-.29-.11-.11-.02-.24-.04-.4-.04h-.51v1.55h.43c.21,0,.38-.02,.51-.05,.13-.04,.24-.1,.32-.18,.08-.08,.14-.17,.17-.26,.03-.09,.05-.2,.05-.31h0Z"/>
        </g>
        <g id="vibrato">
          <path id="o-4" data-name="o" d="M109.6,323.37c.16,.17,.28,.39,.36,.64,.09,.25,.13,.54,.13,.86s-.04,.61-.13,.86c-.09,.25-.2,.46-.36,.63-.16,.18-.35,.31-.57,.4-.22,.09-.47,.13-.74,.13s-.52-.05-.74-.14c-.22-.09-.41-.22-.57-.39s-.28-.38-.36-.63c-.08-.25-.12-.54-.12-.86s.04-.6,.12-.85c.08-.25,.2-.47,.36-.65,.15-.17,.34-.3,.57-.39,.23-.09,.47-.14,.74-.14s.53,.05,.75,.14c.22,.09,.41,.22,.57,.39h0Zm-.05,1.49c0-.5-.11-.89-.34-1.16-.23-.27-.53-.41-.92-.41s-.7,.14-.93,.41c-.22,.27-.34,.66-.34,1.16s.11,.9,.34,1.17c.23,.27,.54,.4,.92,.4s.69-.13,.92-.4c.23-.27,.34-.66,.34-1.17Z"/>
          <path id="t" d="M109.47,316.72h-1.39v3.42h-.52v-3.42h-1.39v-.46h3.29v.46Z"/>
          <path id="a" d="M109.77,313.47h-.55l-.38-1.08h-1.68l-.38,1.08h-.52l1.41-3.88h.69l1.41,3.88Zm-1.09-1.52l-.68-1.9-.68,1.9h1.36Z"/>
          <path id="r-2" data-name="r" d="M109.92,306.8h-.67l-1.3-1.54h-.73v1.54h-.52v-3.88h1.09c.23,0,.43,.02,.59,.05,.16,.03,.3,.08,.42,.16,.14,.09,.25,.2,.33,.34,.08,.13,.12,.3,.12,.51,0,.28-.07,.51-.21,.7-.14,.19-.33,.33-.58,.42l1.46,1.7Zm-1.21-2.79c0-.11-.02-.21-.06-.29-.04-.09-.1-.16-.19-.22-.07-.05-.16-.09-.27-.1-.1-.02-.22-.03-.36-.03h-.61v1.46h.52c.16,0,.31-.01,.43-.04,.12-.03,.22-.08,.31-.16,.08-.07,.14-.16,.17-.25,.04-.1,.06-.22,.06-.36h0Z"/>
          <path id="b" d="M109.63,298.95c0,.19-.04,.36-.11,.51s-.17,.27-.29,.36c-.15,.11-.31,.2-.48,.24-.17,.05-.39,.07-.66,.07h-1.38v-3.88h1.15c.28,0,.49,.01,.64,.03,.14,.02,.28,.06,.4,.13,.14,.07,.25,.17,.31,.29,.06,.12,.1,.26,.1,.42,0,.18-.05,.34-.14,.47-.09,.13-.22,.23-.38,.31v.02c.26,.05,.47,.17,.62,.35,.15,.18,.23,.4,.23,.67h0Zm-.87-1.75c0-.09-.02-.17-.05-.24s-.08-.12-.15-.16c-.08-.05-.18-.08-.3-.09-.12-.01-.26-.02-.43-.02h-.61v1.12h.67c.16,0,.29,0,.39-.02,.1-.02,.18-.05,.27-.1,.08-.05,.14-.12,.17-.2,.03-.08,.05-.18,.05-.29h0Zm.33,1.77c0-.16-.02-.28-.07-.37-.05-.09-.13-.17-.26-.23-.08-.04-.18-.07-.3-.08-.12-.01-.26-.02-.43-.02h-.81v1.44h.68c.23,0,.41-.01,.55-.03,.14-.02,.26-.07,.35-.13,.1-.07,.17-.14,.21-.23,.05-.09,.07-.2,.07-.34h0Z"/>
          <path id="i" d="M108.08,293.47h-1.53v-.4h.51v-3.09h-.51v-.4h1.53v.4h-.51v3.09h.51v.4Z"/>
          <path id="v" d="M109.77,282.93l-1.41,3.88h-.69l-1.41-3.88h.55l1.22,3.41,1.22-3.41h.53Z"/>
        </g>
      </g>
      <g id="switches">
        <g id="power-2" data-name="power">
          <rect id="socket" class="cls-6" x="25.96" y="283.6" width="25" height="40"/>
          <rect id="switch" class="cls-8" x="25.96" y="308.6" width="25" height="15"/>
        </g>
        <g id="vibrato-2" data-name="vibrato">
          <rect id="socket-2" data-name="socket" class="cls-6" x="75.96" y="283.6" width="25" height="40"/>
          <rect id="switch-2" data-name="switch" class="cls-8" x="75.96" y="308.6" width="25" height="15"/>
        </g>
      </g>
    </g>
    <g id="labels">
      <g id="naturals-2" data-name="naturals">
        <path id="_1" data-name="1" d="M150.21,352.49h-4.72v-.89h1.82v-5.85h-1.82v-.8c.25,0,.51-.02,.79-.06,.28-.04,.49-.1,.64-.18,.18-.1,.32-.22,.42-.37,.11-.15,.17-.36,.18-.61h.91v7.86h1.78v.89Z"/>
        <path id="_2" data-name="2" d="M187.87,352.49h-5.91v-1.22l1.23-1.05c.41-.35,.8-.7,1.15-1.05,.75-.73,1.26-1.3,1.54-1.73,.28-.43,.42-.89,.42-1.39,0-.45-.15-.81-.45-1.06-.3-.26-.71-.39-1.25-.39-.36,0-.74,.06-1.15,.19s-.82,.32-1.21,.57h-.06v-1.23c.28-.14,.65-.26,1.11-.38,.46-.11,.91-.17,1.35-.17,.89,0,1.6,.22,2.1,.65,.51,.43,.76,1.01,.76,1.75,0,.33-.04,.64-.13,.93-.08,.29-.21,.56-.37,.81-.15,.24-.33,.48-.54,.71-.2,.23-.45,.49-.74,.78-.42,.41-.85,.81-1.29,1.2-.45,.38-.86,.74-1.25,1.07h4.69v1Z"/>
        <path id="_3" data-name="3" d="M228.48,348.29c.19,.17,.34,.38,.46,.63s.18,.58,.18,.98-.07,.76-.22,1.1-.35,.62-.61,.87c-.29,.27-.64,.48-1.04,.61-.39,.13-.83,.19-1.3,.19s-.96-.06-1.43-.18c-.47-.11-.85-.24-1.15-.38v-1.22h.09c.33,.22,.72,.4,1.17,.54s.88,.22,1.3,.22c.25,0,.51-.04,.79-.12s.5-.2,.67-.36c.18-.17,.31-.36,.4-.57,.09-.21,.13-.47,.13-.79s-.05-.57-.15-.77c-.1-.21-.23-.37-.41-.49-.18-.12-.39-.2-.64-.25-.25-.05-.52-.07-.81-.07h-.53v-.97h.41c.59,0,1.07-.12,1.42-.37,.36-.25,.53-.61,.53-1.09,0-.21-.04-.39-.13-.55-.09-.16-.21-.29-.38-.39-.17-.1-.35-.17-.54-.21s-.41-.06-.65-.06c-.37,0-.77,.07-1.18,.2s-.81,.32-1.18,.56h-.06v-1.22c.28-.14,.65-.26,1.11-.38,.46-.12,.91-.18,1.35-.18s.8,.04,1.12,.12,.62,.2,.88,.38c.28,.19,.49,.41,.64,.68s.22,.58,.22,.93c0,.48-.17,.91-.52,1.27-.34,.36-.74,.59-1.21,.68v.08c.19,.03,.4,.1,.64,.2,.24,.1,.45,.22,.62,.37h0Z"/>
        <path id="_4" data-name="4" d="M266.61,350.04h-1.29v2.46h-1.12v-2.46h-4.18v-1.35l4.22-4.92h1.08v5.33h1.29v.94Zm-2.42-.94v-3.94l-3.38,3.94h3.38Z"/>
        <path id="_5" data-name="5" d="M307.72,349.72c0,.41-.07,.79-.22,1.17s-.35,.68-.61,.94c-.28,.27-.62,.48-1.01,.63-.39,.14-.84,.22-1.35,.22-.48,0-.94-.05-1.38-.15-.44-.1-.81-.22-1.12-.36v-1.24h.08c.32,.2,.7,.38,1.12,.52,.43,.14,.85,.21,1.27,.21,.28,0,.54-.04,.8-.12,.26-.08,.49-.21,.7-.41,.17-.17,.3-.37,.39-.6,.09-.23,.13-.51,.13-.81s-.05-.55-.16-.76c-.1-.21-.24-.37-.43-.5-.2-.15-.45-.25-.74-.31-.29-.06-.61-.09-.97-.09s-.68,.02-1,.07c-.32,.05-.59,.09-.82,.14v-4.49h5.25v1.03h-4.12v2.32c.17-.02,.34-.03,.52-.04,.18,0,.33-.01,.46-.01,.47,0,.89,.04,1.24,.12,.36,.08,.68,.22,.98,.42,.31,.21,.55,.49,.73,.83s.26,.77,.26,1.28h0Z"/>
        <path id="_6" data-name="6" d="M349.3,349.66c0,.89-.29,1.61-.88,2.17-.58,.56-1.3,.84-2.14,.84-.43,0-.82-.07-1.17-.2s-.66-.33-.93-.59c-.34-.32-.6-.75-.78-1.29-.18-.54-.27-1.18-.27-1.93s.08-1.46,.25-2.06c.17-.6,.43-1.13,.8-1.59,.34-.44,.79-.79,1.33-1.03,.54-.25,1.18-.38,1.9-.38,.23,0,.42,0,.58,.03s.31,.05,.47,.11v1.12h-.06c-.11-.06-.28-.11-.5-.16-.22-.05-.44-.08-.67-.08-.84,0-1.51,.26-2.01,.79-.5,.52-.79,1.23-.87,2.13,.33-.2,.65-.35,.97-.45,.32-.11,.69-.16,1.11-.16,.37,0,.7,.04,.98,.11,.29,.07,.58,.2,.87,.41,.34,.24,.6,.54,.77,.9,.18,.36,.26,.8,.26,1.32h0Zm-1.19,.05c0-.36-.05-.66-.16-.9-.11-.24-.28-.45-.53-.62-.18-.12-.38-.21-.6-.25s-.45-.06-.69-.06c-.33,0-.64,.04-.93,.12s-.58,.2-.88,.36c0,.09-.01,.17-.02,.25,0,.08,0,.18,0,.3,0,.62,.06,1.11,.19,1.46,.13,.36,.3,.64,.53,.84,.18,.17,.37,.3,.58,.38,.21,.08,.44,.12,.69,.12,.57,0,1.01-.17,1.34-.52,.32-.35,.49-.85,.49-1.49h0Z"/>
        <path id="_7" data-name="7" d="M390.57,345.08l-3.95,7.42h-1.25l4.2-7.7h-4.97v-1.03h5.97v1.31Z"/>
        <path id="_8" data-name="8" d="M427.77,350.06c0,.75-.29,1.38-.88,1.88-.59,.5-1.32,.75-2.21,.75-.95,0-1.7-.24-2.26-.73-.56-.49-.84-1.11-.84-1.88,0-.48,.14-.92,.42-1.31,.28-.39,.68-.71,1.19-.94v-.04c-.47-.25-.82-.52-1.04-.82-.22-.3-.33-.67-.33-1.11,0-.66,.27-1.2,.81-1.64s1.22-.66,2.06-.66,1.57,.21,2.09,.63,.78,.95,.78,1.59c0,.39-.12,.78-.37,1.17-.25,.38-.61,.68-1.08,.89v.04c.55,.23,.96,.52,1.25,.87s.43,.78,.43,1.31Zm-1.39-4.26c0-.42-.16-.75-.49-1-.32-.25-.73-.38-1.23-.38s-.9,.12-1.21,.35c-.31,.23-.47,.55-.47,.95,0,.28,.08,.53,.23,.73,.16,.2,.4,.38,.72,.54,.14,.07,.35,.16,.62,.28,.27,.11,.54,.21,.8,.28,.39-.26,.65-.53,.8-.8s.22-.6,.22-.96Zm.18,4.37c0-.36-.08-.65-.24-.86-.16-.22-.46-.44-.93-.66-.18-.09-.38-.17-.6-.24s-.51-.18-.87-.31c-.35,.19-.63,.45-.85,.78-.21,.33-.32,.7-.32,1.11,0,.53,.18,.96,.54,1.31s.82,.52,1.38,.52,1.03-.15,1.37-.44c.34-.29,.52-.7,.52-1.21Z"/>
        <path id="_9" data-name="9" d="M469.08,347.61c0,.76-.09,1.45-.26,2.07-.17,.62-.43,1.15-.79,1.59-.36,.45-.8,.79-1.34,1.03s-1.16,.36-1.89,.36c-.2,0-.39-.01-.57-.04-.18-.02-.34-.05-.48-.1v-1.12h.06c.11,.06,.27,.12,.48,.17,.21,.05,.44,.08,.69,.08,.86,0,1.54-.26,2.03-.77,.49-.52,.78-1.23,.86-2.14-.36,.22-.71,.38-1.03,.47s-.67,.14-1.05,.14c-.36,0-.69-.04-.98-.11-.29-.07-.58-.21-.87-.41-.34-.24-.6-.54-.78-.91-.17-.37-.26-.81-.26-1.32,0-.89,.29-1.62,.88-2.17s1.3-.84,2.14-.84c.42,0,.81,.07,1.17,.2,.36,.13,.67,.32,.94,.59,.33,.32,.59,.74,.77,1.25,.18,.51,.27,1.17,.27,1.97h0Zm-1.18-.25c0-.61-.06-1.09-.19-1.46s-.3-.65-.52-.86c-.18-.18-.38-.3-.59-.38-.21-.08-.44-.12-.69-.12-.56,0-1.01,.18-1.34,.53-.32,.35-.49,.85-.49,1.48,0,.37,.05,.67,.16,.91s.28,.44,.53,.62c.18,.12,.37,.2,.58,.25,.21,.04,.45,.06,.7,.06,.3,0,.61-.04,.93-.12s.61-.2,.88-.36c0-.08,0-.16,.01-.24,0-.08,.01-.19,.01-.31Z"/>
        <g id="_10" data-name="10">
          <path id="_0" data-name="0" d="M513.86,348.13c0,1.57-.25,2.72-.74,3.45-.49,.73-1.25,1.1-2.28,1.1s-1.81-.37-2.3-1.11c-.48-.74-.72-1.88-.72-3.42s.24-2.7,.73-3.43c.49-.74,1.25-1.11,2.29-1.11s1.81,.38,2.29,1.13c.48,.75,.73,1.88,.73,3.4Zm-1.54,2.66c.14-.32,.23-.69,.28-1.11,.05-.43,.08-.95,.08-1.55s-.03-1.11-.08-1.55c-.05-.44-.14-.81-.28-1.11-.14-.3-.32-.53-.56-.68-.23-.15-.54-.23-.91-.23s-.67,.08-.91,.23c-.24,.15-.43,.38-.57,.69-.13,.29-.22,.67-.28,1.13-.05,.46-.07,.97-.07,1.53,0,.61,.02,1.12,.06,1.53,.04,.41,.13,.78,.28,1.1,.13,.3,.31,.54,.54,.7,.24,.16,.55,.24,.94,.24,.37,0,.67-.08,.91-.23s.43-.38,.56-.69h0Z"/>
          <path id="_1-2" data-name="1" d="M505.75,352.49h-4.72v-.89h1.82v-5.85h-1.82v-.8c.25,0,.51-.02,.79-.06,.28-.04,.49-.1,.64-.18,.18-.1,.32-.22,.42-.37,.11-.15,.17-.36,.18-.61h.91v7.86h1.78v.89Z"/>
        </g>
        <g id="_11" data-name="11">
          <path id="_1-3" data-name="1" d="M553.95,352.49h-4.72v-.89h1.82v-5.85h-1.82v-.8c.25,0,.51-.02,.79-.06,.28-.04,.49-.1,.64-.18,.18-.1,.32-.22,.42-.37,.11-.15,.17-.36,.18-.61h.91v7.86h1.78v.89Z"/>
          <path id="_1-4" data-name="1" d="M546.32,352.49h-4.72v-.89h1.82v-5.85h-1.82v-.8c.25,0,.51-.02,.79-.06,.28-.04,.49-.1,.64-.18,.18-.1,.32-.22,.42-.37,.11-.15,.17-.36,.18-.61h.91v7.86h1.78v.89Z"/>
        </g>
        <g id="_12" data-name="12">
          <path id="_2-2" data-name="2" d="M590.8,352.49h-5.91v-1.22l1.23-1.05c.41-.35,.8-.7,1.15-1.05,.75-.73,1.26-1.3,1.54-1.73,.28-.43,.42-.89,.42-1.39,0-.45-.15-.81-.45-1.06-.3-.26-.71-.39-1.25-.39-.36,0-.74,.06-1.15,.19s-.82,.32-1.21,.57h-.06v-1.23c.28-.14,.65-.26,1.11-.38,.46-.11,.91-.17,1.35-.17,.89,0,1.6,.22,2.1,.65,.51,.43,.76,1.01,.76,1.75,0,.33-.04,.64-.13,.93-.08,.29-.21,.56-.37,.81-.15,.24-.33,.48-.54,.71-.2,.23-.45,.49-.74,.78-.42,.41-.85,.81-1.29,1.2-.45,.38-.86,.74-1.25,1.07h4.69v1Z"/>
          <path id="_1-5" data-name="1" d="M582.67,352.49h-4.72v-.89h1.82v-5.85h-1.82v-.8c.25,0,.51-.02,.79-.06,.28-.04,.49-.1,.64-.18,.18-.1,.32-.22,.42-.37,.11-.15,.17-.36,.18-.61h.91v7.86h1.78v.89Z"/>
        </g>
      </g>
      <g id="accidentals-2" data-name="accidentals">
        <g id="_1.5" data-name="1.5">
          <path id="_5-2" data-name="5" d="M184.98,254.25c0,.41-.07,.79-.22,1.17s-.35,.68-.61,.94c-.28,.27-.62,.48-1.01,.63-.39,.14-.84,.22-1.35,.22-.48,0-.94-.05-1.38-.15-.44-.1-.81-.22-1.12-.36v-1.24h.08c.32,.2,.7,.38,1.12,.52,.43,.14,.85,.21,1.27,.21,.28,0,.54-.04,.8-.12,.26-.08,.49-.21,.7-.41,.17-.17,.3-.37,.39-.6,.09-.23,.13-.51,.13-.81s-.05-.55-.16-.76c-.1-.21-.24-.37-.43-.5-.2-.15-.45-.25-.74-.31-.29-.06-.61-.09-.97-.09s-.68,.02-1,.07c-.32,.05-.59,.09-.82,.14v-4.49h5.25v1.03h-4.12v2.32c.17-.02,.34-.03,.52-.04,.18,0,.33-.01,.46-.01,.47,0,.89,.04,1.24,.12,.36,.08,.68,.22,.98,.42,.31,.21,.55,.49,.73,.83s.26,.77,.26,1.28Z"/>
          <path id="_." data-name="." d="M176.72,257.03h-1.75v-2.09h1.75v2.09Z"/>
          <path id="_1-6" data-name="1" d="M172.56,257.03h-4.72v-.89h1.82v-5.85h-1.82v-.8c.25,0,.51-.02,.79-.06,.28-.04,.49-.1,.64-.18,.18-.1,.32-.22,.42-.37,.11-.15,.17-.36,.18-.61h.91v7.86h1.78v.89Z"/>
        </g>
        <g id="_3.5" data-name="3.5">
          <path id="_5-3" data-name="5" d="M255.23,254.25c0,.41-.07,.79-.22,1.17s-.35,.68-.61,.94c-.28,.27-.62,.48-1.01,.63-.39,.14-.84,.22-1.35,.22-.48,0-.94-.05-1.38-.15-.44-.1-.81-.22-1.12-.36v-1.24h.08c.32,.2,.7,.38,1.12,.52,.43,.14,.85,.21,1.27,.21,.28,0,.54-.04,.8-.12,.26-.08,.49-.21,.7-.41,.17-.17,.3-.37,.39-.6,.09-.23,.13-.51,.13-.81s-.05-.55-.16-.76c-.1-.21-.24-.37-.43-.5-.2-.15-.45-.25-.74-.31-.29-.06-.61-.09-.97-.09s-.68,.02-1,.07c-.32,.05-.59,.09-.82,.14v-4.49h5.25v1.03h-4.12v2.32c.17-.02,.34-.03,.52-.04,.18,0,.33-.01,.46-.01,.47,0,.89,.04,1.24,.12,.36,.08,.68,.22,.98,.42,.31,.21,.55,.49,.73,.83,.17,.34,.26,.77,.26,1.28h0Z"/>
          <path id="_.-2" data-name="." d="M246.97,257.03h-1.4v-1.67h1.4v1.67Z"/>
          <path id="_3-2" data-name="3" d="M242.54,252.82c.19,.17,.34,.38,.46,.63s.18,.58,.18,.98-.07,.76-.22,1.1c-.14,.33-.35,.62-.61,.87-.29,.27-.64,.48-1.04,.61-.39,.13-.83,.19-1.3,.19s-.96-.06-1.43-.18c-.47-.11-.85-.24-1.15-.38v-1.22h.09c.33,.22,.72,.4,1.17,.54s.88,.22,1.3,.22c.25,0,.51-.04,.79-.12s.5-.2,.67-.36c.18-.17,.31-.36,.4-.57,.09-.21,.13-.47,.13-.79s-.05-.57-.15-.77c-.1-.21-.23-.37-.41-.49-.18-.12-.39-.2-.64-.25-.25-.05-.52-.07-.81-.07h-.53v-.97h.41c.59,0,1.07-.12,1.42-.37,.36-.25,.53-.61,.53-1.09,0-.21-.04-.39-.13-.55-.09-.16-.21-.29-.38-.39-.17-.1-.35-.17-.54-.21s-.41-.06-.65-.06c-.37,0-.77,.07-1.18,.2s-.81,.32-1.18,.56h-.06v-1.22c.28-.14,.65-.26,1.11-.38,.46-.12,.91-.18,1.35-.18s.8,.04,1.12,.12,.62,.2,.88,.38c.28,.19,.49,.41,.64,.68,.14,.27,.22,.58,.22,.93,0,.48-.17,.91-.52,1.27-.34,.36-.74,.59-1.21,.68v.08c.19,.03,.4,.1,.64,.2,.24,.1,.45,.22,.62,.37h0Z"/>
        </g>
        <g id="_4.5" data-name="4.5">
          <path id="_5-4" data-name="5" d="M293.7,254.26c0,.41-.07,.79-.22,1.17s-.35,.68-.61,.94c-.28,.27-.62,.48-1.01,.63-.39,.14-.84,.22-1.35,.22-.48,0-.94-.05-1.38-.15-.44-.1-.81-.22-1.12-.36v-1.24h.08c.32,.2,.7,.38,1.12,.52,.43,.14,.85,.21,1.27,.21,.28,0,.54-.04,.8-.12,.26-.08,.49-.21,.7-.41,.17-.17,.3-.37,.39-.6,.09-.23,.13-.51,.13-.81s-.05-.55-.16-.76c-.1-.21-.24-.37-.43-.5-.2-.15-.45-.25-.74-.31-.29-.06-.61-.09-.97-.09s-.68,.02-1,.07c-.32,.05-.59,.09-.82,.14v-4.49h5.25v1.03h-4.12v2.32c.17-.02,.34-.03,.52-.04,.18,0,.33-.01,.46-.01,.47,0,.89,.04,1.24,.12,.36,.08,.68,.22,.98,.42,.31,.21,.55,.49,.73,.83,.17,.34,.26,.77,.26,1.28h0Z"/>
          <path id="_.-3" data-name="." d="M285.46,257.03h-1.44v-1.72h1.44v1.72Z"/>
          <path id="_4-2" data-name="4" d="M282.16,254.67h-1.29v2.46h-1.12v-2.46h-4.18v-1.35l4.22-4.92h1.08v5.33h1.29v.94Zm-2.42-.94v-3.94l-3.38,3.94h3.38Z"/>
        </g>
        <g id="_6.5" data-name="6.5">
          <path id="_5-5" data-name="5" d="M374.63,254.25c0,.41-.07,.79-.22,1.17s-.35,.68-.61,.94c-.28,.27-.62,.48-1.01,.63-.39,.14-.84,.22-1.35,.22-.48,0-.94-.05-1.38-.15-.44-.1-.81-.22-1.12-.36v-1.24h.08c.32,.2,.7,.38,1.12,.52,.43,.14,.85,.21,1.27,.21,.28,0,.54-.04,.8-.12,.26-.08,.49-.21,.7-.41,.17-.17,.3-.37,.39-.6,.09-.23,.13-.51,.13-.81s-.05-.55-.16-.76c-.1-.21-.24-.37-.43-.5-.2-.15-.45-.25-.74-.31-.29-.06-.61-.09-.97-.09s-.68,.02-1,.07c-.32,.05-.59,.09-.82,.14v-4.49h5.25v1.03h-4.12v2.32c.17-.02,.34-.03,.52-.04,.18,0,.33-.01,.46-.01,.47,0,.89,.04,1.24,.12,.36,.08,.68,.22,.98,.42,.31,.21,.55,.49,.73,.83s.26,.77,.26,1.28h0Z"/>
          <path id="_.-4" data-name="." d="M366.37,257.03h-1.4v-1.67h1.4v1.67Z"/>
          <path id="_6-2" data-name="6" d="M362.83,254.2c0,.89-.29,1.61-.88,2.17-.58,.56-1.3,.84-2.14,.84-.43,0-.82-.07-1.17-.2s-.66-.33-.93-.59c-.34-.32-.6-.75-.78-1.29-.18-.54-.27-1.18-.27-1.93s.08-1.46,.25-2.06c.17-.6,.43-1.13,.8-1.59,.34-.44,.79-.79,1.33-1.03,.54-.25,1.18-.38,1.9-.38,.23,0,.42,0,.58,.03s.31,.05,.47,.11v1.12h-.06c-.11-.06-.28-.11-.5-.16-.22-.05-.44-.08-.67-.08-.84,0-1.51,.26-2.01,.79-.5,.52-.79,1.23-.87,2.13,.33-.2,.65-.35,.97-.45,.32-.11,.69-.16,1.11-.16,.37,0,.7,.04,.98,.11,.29,.07,.58,.2,.87,.41,.34,.24,.6,.54,.77,.9,.18,.36,.26,.8,.26,1.32h0Zm-1.19,.05c0-.36-.05-.66-.16-.9-.11-.24-.28-.45-.53-.62-.18-.12-.38-.21-.6-.25s-.45-.06-.69-.06c-.33,0-.64,.04-.93,.12s-.58,.2-.88,.36c0,.09-.01,.17-.02,.25,0,.08,0,.18,0,.3,0,.62,.06,1.11,.19,1.46,.13,.36,.3,.64,.53,.84,.18,.17,.37,.3,.58,.38,.21,.08,.44,.12,.69,.12,.57,0,1.01-.17,1.34-.52,.32-.35,.49-.85,.49-1.49h0Z"/>
        </g>
        <g id="_7.5" data-name="7.5">
          <path id="_5-6" data-name="5" d="M415.35,254.25c0,.41-.07,.79-.22,1.17s-.35,.68-.61,.94c-.28,.27-.62,.48-1.01,.63-.39,.14-.84,.22-1.35,.22-.48,0-.94-.05-1.38-.15-.44-.1-.81-.22-1.12-.36v-1.24h.08c.32,.2,.7,.38,1.12,.52,.43,.14,.85,.21,1.27,.21,.28,0,.54-.04,.8-.12,.26-.08,.49-.21,.7-.41,.17-.17,.3-.37,.39-.6,.09-.23,.13-.51,.13-.81s-.05-.55-.16-.76c-.1-.21-.24-.37-.43-.5-.2-.15-.45-.25-.74-.31-.29-.06-.61-.09-.97-.09s-.68,.02-1,.07c-.32,.05-.59,.09-.82,.14v-4.49h5.25v1.03h-4.12v2.32c.17-.02,.34-.03,.52-.04,.18,0,.33-.01,.46-.01,.47,0,.89,.04,1.24,.12,.36,.08,.68,.22,.98,.42,.31,.21,.55,.49,.73,.83s.26,.77,.26,1.28h0Z"/>
          <path id="_.-5" data-name="." d="M407.08,257.03h-1.4v-1.67h1.4v1.67Z"/>
          <path id="_7-2" data-name="7" d="M403.45,249.61l-3.95,7.42h-1.25l4.2-7.7h-4.97v-1.03h5.97v1.31Z"/>
        </g>
        <g id="_8.5" data-name="8.5">
          <path id="_5-7" data-name="5" d="M456.06,254.25c0,.41-.07,.79-.22,1.17s-.35,.68-.61,.94c-.28,.27-.62,.48-1.01,.63-.39,.14-.84,.22-1.35,.22-.48,0-.94-.05-1.38-.15-.44-.1-.81-.22-1.12-.36v-1.24h.08c.32,.2,.7,.38,1.12,.52,.43,.14,.85,.21,1.27,.21,.28,0,.54-.04,.8-.12,.26-.08,.49-.21,.7-.41,.17-.17,.3-.37,.39-.6,.09-.23,.13-.51,.13-.81s-.05-.55-.16-.76c-.1-.21-.24-.37-.43-.5-.2-.15-.45-.25-.74-.31-.29-.06-.61-.09-.97-.09s-.68,.02-1,.07c-.32,.05-.59,.09-.82,.14v-4.49h5.25v1.03h-4.12v2.32c.17-.02,.34-.03,.52-.04,.18,0,.33-.01,.46-.01,.47,0,.89,.04,1.24,.12,.36,.08,.68,.22,.98,.42,.31,.21,.55,.49,.73,.83s.26,.77,.26,1.28h0Z"/>
          <path id="_.-6" data-name="." d="M447.8,257.03h-1.4v-1.67h1.4v1.67Z"/>
          <path id="_8-2" data-name="8" d="M444.2,254.59c0,.75-.29,1.38-.88,1.88-.59,.5-1.32,.75-2.21,.75-.95,0-1.7-.24-2.26-.73-.56-.49-.84-1.11-.84-1.88,0-.48,.14-.92,.42-1.31,.28-.39,.68-.71,1.19-.94v-.04c-.47-.25-.82-.52-1.04-.82-.22-.3-.33-.67-.33-1.11,0-.66,.27-1.2,.81-1.64s1.22-.66,2.06-.66,1.57,.21,2.09,.63,.78,.95,.78,1.59c0,.39-.12,.78-.37,1.17-.25,.38-.61,.68-1.08,.89v.04c.55,.23,.96,.52,1.25,.87s.43,.78,.43,1.31Zm-1.39-4.26c0-.42-.16-.75-.49-1-.32-.25-.73-.38-1.23-.38s-.9,.12-1.21,.35c-.31,.23-.47,.55-.47,.95,0,.28,.08,.53,.23,.73,.16,.2,.4,.38,.72,.54,.14,.07,.35,.16,.62,.28,.27,.11,.54,.21,.8,.28,.39-.26,.65-.53,.8-.8s.22-.6,.22-.96Zm.18,4.37c0-.36-.08-.65-.24-.86-.16-.22-.46-.44-.93-.66-.18-.09-.38-.17-.6-.24s-.51-.18-.87-.31c-.35,.19-.63,.45-.85,.78-.21,.33-.32,.7-.32,1.11,0,.53,.18,.96,.54,1.31s.82,.52,1.38,.52,1.03-.15,1.37-.44c.34-.29,.52-.7,.52-1.21Z"/>
        </g>
        <g id="_10.5" data-name="10.5">
          <path id="_5-8" data-name="5" d="M538.16,254.25c0,.41-.07,.79-.22,1.17s-.35,.68-.61,.94c-.28,.27-.62,.48-1.01,.63-.39,.14-.84,.22-1.35,.22-.48,0-.94-.05-1.38-.15-.44-.1-.81-.22-1.12-.36v-1.24h.08c.32,.2,.7,.38,1.12,.52,.43,.14,.85,.21,1.27,.21,.28,0,.54-.04,.8-.12,.26-.08,.49-.21,.7-.41,.17-.17,.3-.37,.39-.6,.09-.23,.13-.51,.13-.81s-.05-.55-.16-.76c-.1-.21-.24-.37-.43-.5-.2-.15-.45-.25-.74-.31-.29-.06-.61-.09-.97-.09s-.68,.02-1,.07c-.32,.05-.59,.09-.82,.14v-4.49h5.25v1.03h-4.12v2.32c.17-.02,.34-.03,.52-.04,.18,0,.33-.01,.46-.01,.47,0,.89,.04,1.24,.12,.36,.08,.68,.22,.98,.42,.31,.21,.55,.49,.73,.83s.26,.77,.26,1.28h0Z"/>
          <path id="_.-7" data-name="." d="M529.9,257.03h-1.4v-1.67h1.4v1.67Z"/>
          <path id="_0-2" data-name="0" d="M526.22,252.66c0,1.57-.25,2.72-.74,3.45-.49,.73-1.25,1.1-2.28,1.1s-1.81-.37-2.3-1.11c-.48-.74-.72-1.88-.72-3.42s.24-2.7,.73-3.43c.49-.74,1.25-1.11,2.29-1.11s1.81,.38,2.29,1.13c.48,.75,.73,1.88,.73,3.4Zm-1.54,2.66c.14-.32,.23-.69,.28-1.11,.05-.43,.08-.95,.08-1.55s-.03-1.11-.08-1.55c-.05-.44-.14-.81-.28-1.11-.14-.3-.32-.53-.56-.68-.23-.15-.54-.23-.91-.23s-.67,.08-.91,.23c-.24,.15-.43,.38-.57,.69-.13,.29-.22,.67-.28,1.13-.05,.46-.07,.97-.07,1.53,0,.61,.02,1.12,.06,1.53,.04,.41,.13,.78,.28,1.1,.13,.3,.31,.54,.54,.7,.24,.16,.55,.24,.94,.24,.37,0,.67-.08,.91-.23,.24-.15,.43-.38,.56-.69h0Z"/>
          <path id="_1-7" data-name="1" d="M518.11,257.03h-4.72v-.89h1.82v-5.85h-1.82v-.8c.25,0,.51-.02,.79-.06,.28-.04,.49-.1,.64-.18,.18-.1,.32-.22,.42-.37,.11-.15,.17-.36,.18-.61h.91v7.86h1.78v.89Z"/>
        </g>
        <g id="_11.5" data-name="11.5">
          <path id="_5-9" data-name="5" d="M578.07,254.25c0,.41-.07,.79-.22,1.17s-.35,.68-.61,.94c-.28,.27-.62,.48-1.01,.63-.39,.14-.84,.22-1.35,.22-.48,0-.94-.05-1.38-.15-.44-.1-.81-.22-1.12-.36v-1.24h.08c.32,.2,.7,.38,1.12,.52,.43,.14,.85,.21,1.27,.21,.28,0,.54-.04,.8-.12,.26-.08,.49-.21,.7-.41,.17-.17,.3-.37,.39-.6,.09-.23,.13-.51,.13-.81s-.05-.55-.16-.76c-.1-.21-.24-.37-.43-.5-.2-.15-.45-.25-.74-.31-.29-.06-.61-.09-.97-.09s-.68,.02-1,.07c-.32,.05-.59,.09-.82,.14v-4.49h5.25v1.03h-4.12v2.32c.17-.02,.34-.03,.52-.04,.18,0,.33-.01,.46-.01,.47,0,.89,.04,1.24,.12,.36,.08,.68,.22,.98,.42,.31,.21,.55,.49,.73,.83s.26,.77,.26,1.28h0Z"/>
          <path id="_.-8" data-name="." d="M569.81,257.03h-1.4v-1.67h1.4v1.67Z"/>
          <path id="_1-8" data-name="1" d="M565.65,257.03h-4.72v-.89h1.82v-5.85h-1.82v-.8c.25,0,.51-.02,.79-.06,.28-.04,.49-.1,.64-.18,.18-.1,.32-.22,.42-.37,.11-.15,.17-.36,.18-.61h.91v7.86h1.78v.89Z"/>
          <path id="_1-9" data-name="1" d="M558.02,257.03h-4.72v-.89h1.82v-5.85h-1.82v-.8c.25,0,.51-.02,.79-.06,.28-.04,.49-.1,.64-.18,.18-.1,.32-.22,.42-.37,.11-.15,.17-.36,.18-.61h.91v7.86h1.78v.89Z"/>
        </g>
      </g>
    </g>
  </g>
  <g id="grid">
    <rect id="base-2" data-name="base" class="cls-7" x="10.17" y="10.35" width="610" height="190"/>
    <g id="mesh">
      <path id="h1" class="cls-3" d="M9.87,195.51H619.87"/>
      <path id="h2" class="cls-3" d="M9.87,185.51H619.87"/>
      <path id="h3" class="cls-3" d="M9.87,175.51H619.87"/>
      <path id="h4" class="cls-3" d="M9.87,165.51H619.87"/>
      <path id="h5" class="cls-3" d="M9.87,155.51H619.87"/>
      <path id="h6" class="cls-3" d="M9.87,145.51H619.87"/>
      <path id="h7" class="cls-3" d="M9.87,135.51H619.87"/>
      <path id="h8" class="cls-3" d="M9.87,125.51H619.87"/>
      <path id="h9" class="cls-3" d="M9.87,115.51H619.87"/>
      <path id="h10" class="cls-3" d="M9.87,105.51H619.87"/>
      <path id="h11" class="cls-3" d="M9.87,95.51H619.87"/>
      <path id="h12" class="cls-3" d="M9.87,85.51H619.87"/>
      <path id="h13" class="cls-3" d="M9.87,75.51H619.87"/>
      <path id="h14" class="cls-3" d="M9.87,65.51H619.87"/>
      <path id="h15" class="cls-3" d="M9.87,55.51H619.87"/>
      <path id="h16" class="cls-3" d="M9.87,45.51H619.87"/>
      <path id="h17" class="cls-3" d="M9.87,35.51H619.87"/>
      <path id="h18" class="cls-3" d="M9.87,25.51H619.87"/>
      <path id="h19" class="cls-3" d="M9.87,15.51H619.87"/>
      <path id="v1" class="cls-4" d="M14.87,10.51V200.51h0"/>
      <path id="v2" class="cls-4" d="M34.87,10.51V200.51h0"/>
      <path id="v3" class="cls-4" d="M54.87,10.51V200.51h0"/>
      <path id="v4" class="cls-4" d="M74.87,10.51V200.51h0"/>
      <path id="v5" class="cls-4" d="M94.87,10.51V200.51h0"/>
      <path id="v6" class="cls-4" d="M114.87,10.51V200.51h0"/>
      <path id="v7" class="cls-4" d="M134.87,10.51V200.51h0"/>
      <path id="v8" class="cls-4" d="M154.87,10.51V200.51h0"/>
      <path id="v9" class="cls-4" d="M174.87,10.51V200.51h0"/>
      <path id="v10" class="cls-4" d="M194.87,10.51V200.51h0"/>
      <path id="v11" class="cls-4" d="M214.87,10.51V200.51h0"/>
      <path id="v12" class="cls-4" d="M234.87,10.51V200.51h0"/>
      <path id="v13" class="cls-4" d="M254.87,10.51V200.51h0"/>
      <path id="v14" class="cls-4" d="M274.87,10.51V200.51h0"/>
      <path id="v15" class="cls-4" d="M294.87,10.51V200.51h0"/>
      <path id="v16" class="cls-4" d="M314.87,10.51V200.51h0"/>
      <path id="v17" class="cls-4" d="M334.87,10.51V200.51h0"/>
      <path id="v18" class="cls-4" d="M354.87,10.51V200.51h0"/>
      <path id="v19" class="cls-4" d="M374.87,10.51V200.51h0"/>
      <path id="v20" class="cls-4" d="M394.87,10.51V200.51h0"/>
      <path id="v21" class="cls-4" d="M414.87,10.51V200.51h0"/>
      <path id="v22" class="cls-4" d="M434.87,10.51V200.51h0"/>
      <path id="v23" class="cls-4" d="M454.87,10.51V200.51h0"/>
      <path id="v24" class="cls-4" d="M474.87,10.51V200.51h0"/>
      <path id="v25" class="cls-4" d="M494.87,10.51V200.51h0"/>
      <path id="v26" class="cls-4" d="M514.87,10.51V200.51h0"/>
      <path id="v27" class="cls-4" d="M534.87,10.51V200.51h0"/>
      <path id="v28" class="cls-4" d="M554.87,10.51V200.51h0"/>
      <path id="v29" class="cls-4" d="M574.87,10.51V200.51h0"/>
      <path id="v30" class="cls-4" d="M594.87,10.51V200.51h0"/>
      <path id="v31" class="cls-4" d="M614.67,9.85V199.85h0"/>
    </g>
    <g id="logo">
      <rect id="background" x="331.08" y="20.92" width="280" height="50"/>
      <path id="text-2" data-name="text" class="cls-1" d="M470.9,64.96c-.46-.25-.76-.7-.76-1.17s.22-1,.85-2.13c1-1.79,3.24-6.36,5.44-11.11l.52-1.12-1.37-.03c-.82-.02-1.52,.01-1.73,.08-.56,.16-1.02,.66-1.93,2.1-1,1.58-1.61,2.2-2.37,2.42-.43,.12-1.35,.14-6.78,.12l-6.29-.03-.47-.23c-.5-.25-.83-.66-.98-1.2-.05-.18-.15-.57-.23-.86-.08-.29-.22-.63-.32-.75-.16-.2-.25-.22-.97-.22h-.79l-.84,.8c-1.98,1.89-3.37,2.45-6.04,2.45-1.87,0-2.36-.1-2.89-.63-.47-.48-.63-.95-.62-1.97,0-.68,.05-1.03,.25-1.91,.05-.22,.04-.22-.49-.17-1.82,.19-3.84,1.15-4.73,2.23-.18,.22-.73,1.11-1.23,1.98-2.98,5.23-4.9,7.4-7.56,8.55l-.74,.32-37.75,.03c-25.5,.02-37.96,0-38.38-.07-.89-.14-1.57-.42-2.06-.85-.81-.72-1.17-1.95-.87-2.99,.13-.45,1.86-3.83,4.4-8.58,.42-.8,2-4.05,3.5-7.23,3.1-6.57,3.92-8.29,4.02-8.35,.04-.03,.39-.68,.77-1.46l.71-1.41-.21-.19c-.11-.11-.42-.29-.67-.41-.46-.21-.48-.21-5.34-.24-2.68-.02-4.88-.05-4.88-.07s.56-.91,1.25-1.96l1.25-1.92,28.99-.05,28.99-.05-.19,.5c-.1,.28-.45,1.17-.78,1.99l-.59,1.49-20.58,.05-20.58,.05-.47,.22c-.62,.29-.94,.6-1.28,1.27-.15,.3-.36,.66-.45,.79-.17,.23-5.37,11.44-6.57,14.15-.32,.72-1.17,2.44-1.89,3.83-2.21,4.23-2.82,5.52-2.82,5.93,0,.47,.41,.94,1.01,1.18,.42,.16,1.15,.17,15.33,.2,8.19,.02,24.27,0,35.75-.03l20.86-.06,.53-.56c.68-.71,1.4-1.82,1.8-2.75,.17-.4,.31-.74,.29-.75-.01-.01-2.18,.01-4.82,.06-3.29,.06-4.94,.06-5.25-.01-.61-.13-.98-.47-1.31-1.18-.31-.69-.53-.81-1.25-.72-.59,.07-.87,.26-1.42,.94-.76,.93-.26,.87-6.93,.89-5.73,.02-5.84,.02-6.37-.18-.3-.11-.66-.28-.81-.39-.3-.21-.66-.88-.66-1.21,0-.21-.02-.21-.49-.15-.62,.08-.9,.26-1.45,.94-.77,.95-.43,.9-5.53,.86-4.48-.03-7.23-.15-8.06-.34-.75-.17-1.08-.35-1.98-1.08-1.05-.85-1.69-1.26-1.95-1.26-.14,0-.33,.22-.69,.79-.62,.99-1.36,1.68-2,1.87-.71,.21-12.49,.21-13.2,0-.93-.28-1.24-.73-1.53-2.21-.2-1.04-.23-2.12-.07-2.77,.22-.92,3.5-7.97,4.16-8.94,.78-1.15,1.94-1.98,3.24-2.32,.86-.22,4.04-.34,8.07-.3,3.76,.04,3.93,.06,4.76,.49,.54,.28,1.08,.87,1.36,1.47,.22,.49,.26,.71,.26,1.38,0,.46-.06,.99-.15,1.26-.18,.57-.84,2.05-1.54,3.44-.29,.57-.66,1.34-.83,1.71l-.3,.67,.57,.4c.31,.22,.92,.74,1.35,1.15,.74,.71,.8,.75,1.21,.75h.43s.72-1.77,.72-1.77c.89-2.23,3.36-7.43,3.93-8.3,.8-1.23,1.95-2.07,3.31-2.43,.74-.2,3.28-.32,6.7-.32,3.11,0,3.09,0,3.43,.66,.5,.98-.14,2.38-1.38,3.01-.26,.13-.68,.15-2.94,.15-3.96,0-4.61,.11-5.29,.89-.58,.66-3.08,5.97-3.16,6.71-.05,.49,.23,.94,.77,1.22,.36,.19,.52,.2,4.57,.22l4.2,.02,2.71-5.53c1.49-3.04,2.68-5.55,2.63-5.58-.08-.05,4.95-11.94,5.18-12.26,.1-.14,.4-.15,2.83-.13l2.72,.02-1.06,2.38c-.58,1.31-1.4,3.14-1.82,4.06-.41,.92-.77,1.73-.8,1.8-.04,.09,.74,.12,3.7,.12,3.57,0,3.76,0,4.12,.19,1.3,.66,.82,2.72-.84,3.6-.29,.15-.65,.18-3.22,.24-1.59,.03-3.5,.07-4.25,.07h-1.36s-.92,1.99-.92,1.99c-.51,1.09-1.34,2.86-1.85,3.94-1,2.09-1.1,2.49-.79,2.97,.09,.14,.34,.35,.56,.46,.39,.21,.42,.21,5.11,.24l4.71,.03,.83-1.89c1.09-2.47,2.83-6.15,3.34-7.05,.51-.91,1.39-1.81,2.05-2.12,.96-.45,1.98-.24,2.44,.51,.16,.26,.2,.47,.2,.94,0,.57-.06,.73-1.09,2.89-1.44,3.04-2.78,6.06-2.78,6.26,0,.36,.52,.41,3.92,.41s3.82-.04,4.59-.43c.51-.26,.73-.58,1.81-2.69,3.49-6.8,3.37-6.58,4.1-7.3,.91-.89,2.13-1.23,2.95-.83,.52,.25,.73,.61,.73,1.23,0,.56-.41,1.59-1.78,4.5-.47,.99-.87,1.86-.89,1.94-.04,.12,.24,.14,2.18,.11l2.22-.03,.31-.3c.37-.35,1.07-1.73,2.66-5.15,1.79-3.87,3.22-6.89,4.29-9.11,.81-1.67,1.07-2.11,1.51-2.58,.62-.67,1.11-.98,1.9-1.2,.78-.22,1.43-.08,1.89,.39,.3,.31,.32,.37,.31,.95,0,.61-.04,.68-1.08,2.72-2.66,5.21-6.55,13.97-7.4,16.69-.34,1.09-.4,1.5-.22,1.57,.2,.08,.43-.06,1.47-.89,.55-.44,1.09-.78,1.36-.87,.61-.2,1.66-.33,2.74-.33h.89s1.49-3.15,1.49-3.15c.82-1.73,1.69-3.44,1.92-3.8,.8-1.23,1.95-2.07,3.31-2.43,.86-.22,4.04-.34,8.07-.3,3.76,.04,3.93,.06,4.76,.49,.54,.28,1.08,.87,1.36,1.47,.22,.49,.26,.71,.26,1.38,0,.95-.1,1.28-.91,3.11-.34,.76-.62,1.4-.62,1.42s.86,.04,1.9,.04h1.9l.12-.3c.07-.17,.7-1.49,1.4-2.94,1.18-2.41,1.33-2.69,1.87-3.25,.78-.82,1.63-1.24,2.71-1.36,.43-.05,3.38-.07,6.57-.06l5.79,.03,.47,.23c.65,.32,1.58,1.27,1.89,1.93,.2,.42,.25,.69,.25,1.2,0,.63-.03,.72-.86,2.51-.47,1.02-.86,1.87-.86,1.89s.6,.04,1.33,.04h1.33l2.8-5.62c5.41-10.85,5.5-11.03,5.96-11.49,1.23-1.23,3.3-1.27,4-.08,.35,.59,.26,.91-.81,3.05-.82,1.64-2.54,5.39-2.87,6.25l-.09,.24,4.6-.03c4.24-.02,4.63-.01,5.08,.14,.55,.19,1,.64,1.1,1.09,.15,.66-.03,1.1-2.38,5.78-1.27,2.54-2.34,4.71-2.37,4.82-.14,.48,.47,.52,1.4,.09,.73-.33,1.2-.73,1.78-1.51,.63-.85,1.15-1.18,1.95-1.23l.57-.04,.92-1.93q2.91-6.1,4-6.64c1.07-.53,1.52-.56,7.48-.62,5.75-.06,6.27-.03,7.12,.37,.55,.26,1.04,.75,1.32,1.33,.18,.37,.23,.62,.23,1.26v.79s-.94,1.96-.94,1.96l-.95,1.96,1.56,.03c2.2,.04,3.16-.17,3.64-.77,.1-.13,.89-1.44,1.76-2.9,1.69-2.87,2.14-3.45,2.97-3.83l.47-.22h6.01c4.34,0,6.11,.03,6.38,.11,.48,.15,1.05,.73,1.23,1.26,.17,.5,.19,1.4,.05,1.93-.06,.2-.98,2.28-2.05,4.61-1.07,2.34-1.95,4.28-1.95,4.33s.96,.08,2.13,.08h2.13l.43-.96c.57-1.29,.81-1.91,.81-2.12,0-.23-.25-.28-1.34-.29-.89,0-.93,0-1.19-.27-.44-.44-.35-1.16,.24-1.85,.47-.56,.88-.7,2.29-.77,1.34-.06,1.86-.21,2.09-.6,.07-.11,.51-.95,.99-1.88,1.23-2.38,1.88-2.97,3.63-3.38,.64-.15,1.47-.16,9.75-.16,9.74,0,9.44-.01,10.1,.48,1.05,.78,.6,2.27-.91,2.96-.42,.19-.53,.2-9.06,.24-8.21,.04-8.65,.06-8.95,.22-.18,.1-.4,.26-.49,.37-.22,.26-.69,1.08-.77,1.34l-.06,.21,8.48,.03c8.12,.02,8.49,.03,8.83,.2,.49,.24,.69,.67,.54,1.16-.17,.58-.77,1.18-1.58,1.58l-.71,.35-8.41,.05c-7.14,.04-8.44,.07-8.58,.18-.38,.32-1.02,1.93-.97,2.45l.03,.31,1.91,.08c2.56,.11,9.97-.07,11.15-.27,.46-.08,1.58-.29,2.49-.48,1.4-.28,1.7-.32,1.97-.23,1.22,.4,.92,2.26-.61,3.84-.86,.88-1.51,1.22-2.69,1.38-.44,.06-5.69,.1-14.52,.11-13.53,.02-13.84,.01-14.14-.16-.45-.26-.76-.88-.76-1.52,0-.58,.1-.81,2.46-5.89,1.57-3.36,1.74-3.94,1.25-4.26-.22-.14-.49-.15-2.82-.09-2.96,.08-3.07,.1-3.82,.87-.48,.5-.9,1.21-3.6,6.13-1.99,3.62-2.35,4.12-3.35,4.62l-.57,.28h-1.9c-2.2,0-2.6-.07-3.11-.55-.89-.85-.57-2.27,.66-2.94,.46-.25,.61-.28,1.66-.33l1.16-.05,.28-.5,.28-.5-1.77,.05c-.97,.03-1.96,.1-2.2,.16-.67,.17-1.04,.56-1.83,1.89-.87,1.46-1.24,1.91-1.9,2.27-1,.54-1.01,.54-7.38,.59-5.11,.03-5.93,.02-6.43-.11-1.04-.27-1.78-1.02-2.1-2.15-.15-.54-.2-.61-.41-.61-.49,0-1.06,.42-1.87,1.4-1.2,1.45-1.04,1.4-4.28,1.39-2.39,0-2.71-.02-3.05-.17-1.1-.5-1.29-1.72-.51-3.21,.22-.42,1.2-2.25,2.17-4.07,1.1-2.05,1.79-3.44,1.82-3.66,.04-.31,0-.4-.24-.64l-.28-.28h-2.74s-2.74,0-2.74,0l-.83,1.56c-2.28,4.3-4.57,8.37-5.17,9.21-.58,.81-1.59,1.26-2.82,1.26-.83,0-1.33-.19-1.71-.65-.46-.55-.39-.83,.78-2.81,.9-1.53,.91-1.39-.12-1.39-.48,0-1.03,.05-1.23,.1-.5,.14-.97,.65-1.88,2.03-.99,1.51-1.42,1.84-3.13,2.41l-.79,.27-4.37,.03c-5.15,.04-4.97,.06-5.93-.88-.33-.32-.61-.58-.63-.57-.01,.01-.54,1.18-1.18,2.59-1.55,3.41-2.77,5.99-3.42,7.19-.94,1.74-2.05,2.58-3.55,2.68-.62,.04-.76,.02-1.12-.18h0Zm-92.91-14.78c.71-.21,1.14-.74,1.9-2.32,1.22-2.55,2.14-4.95,2.14-5.58,0-.3-.06-.44-.32-.69l-.32-.32h-2.83c-4.16,0-4.79,.11-5.48,.89-.55,.63-3.06,5.92-3.16,6.66-.08,.6,.32,1.13,1.05,1.39,.17,.06,1.46,.1,3.41,.11,2.53,0,3.22-.02,3.6-.13h0Zm89.6,0c.71-.21,1.14-.74,1.9-2.32,1.22-2.55,2.14-4.95,2.14-5.58,0-.3-.06-.44-.32-.69l-.32-.32h-2.83c-4.16,0-4.79,.11-5.48,.89-.55,.63-3.06,5.92-3.16,6.66-.08,.6,.32,1.13,1.05,1.39,.17,.06,1.46,.1,3.41,.11,2.53,0,3.22-.02,3.6-.13h0Zm23.2-.17c.58-.34,.9-.83,1.76-2.68,1.75-3.78,2.15-5.16,1.66-5.73-.34-.39-1.06-.46-4.28-.38-3.45,.08-3.76,.14-4.38,.84-.48,.54-2.91,5.57-3.18,6.57-.17,.61,.16,1.18,.88,1.52,.35,.16,.61,.17,3.73,.15l3.36-.02,.44-.26Zm42.55,.2c.82-.18,1.14-.59,2.32-3,.56-1.14,1.19-2.5,1.41-3.01,.64-1.52,.54-2.38-.34-2.8-.3-.14-.66-.16-3.57-.12-2.74,.03-3.31,.06-3.73,.2-.74,.24-1.12,.68-1.82,2.13-.78,1.6-2.08,4.56-2.21,5.02-.16,.61,.17,1.18,.89,1.51,.34,.16,.66,.17,3.47,.17,1.93,0,3.28-.04,3.58-.1h0Z"/>
    </g>
  </g>
  <g id="stylus">
    <rect id="blank" x="9.67" y="204.35" width="610" height="35"/>
  </g>
</svg>